NimbusSanL-BoldCondItal.ufo
<glyph name="exclam" format="1">
  <advance width="273"/>
  <unicode hex="0021"/>
  <outline>
    <contour>
      <point x="221" y="141" type="line"/>
      <point x="102" y="141" type="line"/>
      <point x="77" y="0" type="line"/>
      <point x="197" y="0" type="line"/>
    </contour>
    <contour>
      <point x="293" y="535" type="line"/>
      <point x="325" y="718" type="line"/>
      <point x="199" y="718" type="line"/>
      <point x="167" y="535" type="line"/>
      <point x="141" y="199" type="line"/>
      <point x="202" y="199" type="line"/>
    </contour>
  </outline>
</glyph>
<glyph name="quotedbl" format="1">
  <advance width="389"/>
  <unicode hex="0022"/>
  <outline>
    <contour>
      <point x="305" y="447" type="line"/>
      <point x="386" y="447" type="line"/>
      <point x="433" y="718" type="line"/>
      <point x="353" y="718" type="line"/>
    </contour>
    <contour>
      <point x="158" y="447" type="line"/>
      <point x="238" y="447" type="line"/>
      <point x="286" y="718" type="line"/>
      <point x="205" y="718" type="line"/>
    </contour>
  </outline>
</glyph>
<glyph name="numbersign" format="1">
  <advance width="456"/>
  <unicode hex="0023"/>
  <outline>
    <contour>
      <point x="468" y="289" type="line"/>
      <point x="388" y="289" type="line"/>
      <point x="423" y="409" type="line"/>
      <point x="502" y="409" type="line"/>
      <point x="528" y="499" type="line"/>
      <point x="448" y="499" type="line"/>
      <point x="506" y="698" type="line"/>
      <point x="429" y="698" type="line"/>
      <point x="371" y="499" type="line"/>
      <point x="292" y="499" type="line"/>
      <point x="349" y="698" type="line"/>
      <point x="272" y="698" type="line"/>
      <point x="215" y="499" type="line"/>
      <point x="135" y="499" type="line"/>
      <point x="109" y="409" type="line"/>
      <point x="189" y="409" type="line"/>
      <point x="154" y="289" type="line"/>
      <point x="75" y="289" type="line"/>
      <point x="49" y="199" type="line"/>
      <point x="129" y="199" type="line"/>
      <point x="71" y="0" type="line"/>
      <point x="148" y="0" type="line"/>
      <point x="206" y="199" type="line"/>
      <point x="285" y="199" type="line"/>
      <point x="228" y="0" type="line"/>
      <point x="305" y="0" type="line"/>
      <point x="362" y="199" type="line"/>
      <point x="442" y="199" type="line"/>
    </contour>
    <contour>
      <point x="346" y="409" type="line"/>
      <point x="311" y="289" type="line"/>
      <point x="231" y="289" type="line"/>
      <point x="266" y="409" type="line"/>
    </contour>
  </outline>
</glyph>
<glyph name="dollar" format="1">
  <advance width="456"/>
  <unicode hex="0024"/>
  <outline>
    <contour>
      <point x="507" y="501" type="line"/>
      <point x="509" y="522"/>
      <point x="510" y="540"/>
      <point x="510" y="554" type="curve" smooth="yes"/>
      <point x="510" y="597"/>
      <point x="496" y="639"/>
      <point x="474" y="664" type="curve" smooth="yes"/>
      <point x="451" y="690"/>
      <point x="425" y="701"/>
      <point x="371" y="710" type="curve"/>
      <point x="382" y="775" type="line"/>
      <point x="345" y="775" type="line"/>
      <point x="333" y="710" type="line"/>
      <point x="271" y="705"/>
      <point x="236" y="690"/>
      <point x="198" y="651" type="curve" smooth="yes"/>
      <point x="152" y="605"/>
      <point x="121" y="527"/>
      <point x="121" y="458" type="curve" smooth="yes"/>
      <point x="121" y="409"/>
      <point x="139" y="368"/>
      <point x="174" y="341" type="curve" smooth="yes"/>
      <point x="194" y="326"/>
      <point x="216" y="315"/>
      <point x="262" y="299" type="curve"/>
      <point x="225" y="89" type="line"/>
      <point x="183" y="101"/>
      <point x="167" y="121"/>
      <point x="167" y="164" type="curve" smooth="yes"/>
      <point x="167" y="178"/>
      <point x="168" y="196"/>
      <point x="170" y="215" type="curve"/>
      <point x="63" y="215" type="line"/>
      <point x="58" y="182"/>
      <point x="55" y="154"/>
      <point x="55" y="132" type="curve" smooth="yes"/>
      <point x="55" y="95"/>
      <point x="68" y="55"/>
      <point x="87" y="33" type="curve" smooth="yes"/>
      <point x="112" y="4"/>
      <point x="142" y="-8"/>
      <point x="207" y="-17" type="curve"/>
      <point x="190" y="-115" type="line"/>
      <point x="227" y="-115" type="line"/>
      <point x="244" y="-17" type="line"/>
      <point x="314" y="-9"/>
      <point x="352" y="9"/>
      <point x="393" y="52" type="curve" smooth="yes"/>
      <point x="439" y="100"/>
      <point x="469" y="178"/>
      <point x="469" y="247" type="curve" smooth="yes"/>
      <point x="469" y="296"/>
      <point x="453" y="334"/>
      <point x="422" y="361" type="curve" smooth="yes"/>
      <point x="401" y="379"/>
      <point x="375" y="393"/>
      <point x="320" y="417" type="curve"/>
      <point x="353" y="604" type="line"/>
      <point x="389" y="603"/>
      <point x="404" y="585"/>
      <point x="404" y="541" type="curve" smooth="yes"/>
      <point x="404" y="530"/>
      <point x="403" y="517"/>
      <point x="402" y="501" type="curve"/>
    </contour>
    <contour>
      <point x="285" y="431" type="line"/>
      <point x="245" y="445"/>
      <point x="230" y="464"/>
      <point x="230" y="503" type="curve" smooth="yes"/>
      <point x="230" y="558"/>
      <point x="263" y="598"/>
      <point x="315" y="604" type="curve"/>
    </contour>
    <contour>
      <point x="296" y="282" type="line"/>
      <point x="337" y="265"/>
      <point x="354" y="243"/>
      <point x="354" y="206" type="curve" smooth="yes"/>
      <point x="354" y="144"/>
      <point x="317" y="96"/>
      <point x="263" y="89" type="curve"/>
    </contour>
  </outline>
</glyph>
<glyph name="percent" format="1">
  <advance width="729"/>
  <unicode hex="0025"/>
  <outline>
    <contour>
      <point x="278" y="710" type="curve" smooth="yes"/>
      <point x="237" y="710"/>
      <point x="202" y="695"/>
      <point x="176" y="664" type="curve" smooth="yes"/>
      <point x="140" y="624"/>
      <point x="112" y="526"/>
      <point x="112" y="445" type="curve" smooth="yes"/>
      <point x="112" y="371"/>
      <point x="147" y="332"/>
      <point x="214" y="332" type="curve" smooth="yes"/>
      <point x="255" y="332"/>
      <point x="289" y="347"/>
      <point x="316" y="378" type="curve" smooth="yes"/>
      <point x="352" y="419"/>
      <point x="379" y="512"/>
      <point x="379" y="595" type="curve" smooth="yes"/>
      <point x="379" y="672"/>
      <point x="346" y="710"/>
    </contour>
    <contour>
      <point x="267" y="641" type="curve" smooth="yes"/>
      <point x="288" y="641"/>
      <point x="299" y="627"/>
      <point x="299" y="601" type="curve" smooth="yes"/>
      <point x="299" y="547"/>
      <point x="280" y="455"/>
      <point x="263" y="425" type="curve" smooth="yes"/>
      <point x="254" y="408"/>
      <point x="242" y="401"/>
      <point x="224" y="401" type="curve" smooth="yes"/>
      <point x="203" y="401"/>
      <point x="192" y="415"/>
      <point x="192" y="442" type="curve" smooth="yes"/>
      <point x="192" y="496"/>
      <point x="210" y="584"/>
      <point x="228" y="618" type="curve" smooth="yes"/>
      <point x="236" y="633"/>
      <point x="250" y="641"/>
    </contour>
    <contour>
      <point x="680" y="710" type="line"/>
      <point x="620" y="710" type="line"/>
      <point x="166" y="-19" type="line"/>
      <point x="227" y="-19" type="line"/>
    </contour>
    <contour>
      <point x="638" y="366" type="curve" smooth="yes"/>
      <point x="597" y="366"/>
      <point x="563" y="351"/>
      <point x="536" y="320" type="curve" smooth="yes"/>
      <point x="500" y="281"/>
      <point x="472" y="182"/>
      <point x="472" y="101" type="curve" smooth="yes"/>
      <point x="472" y="27"/>
      <point x="507" y="-12"/>
      <point x="574" y="-12" type="curve" smooth="yes"/>
      <point x="615" y="-12"/>
      <point x="649" y="3"/>
      <point x="676" y="34" type="curve" smooth="yes"/>
      <point x="712" y="75"/>
      <point x="739" y="168"/>
      <point x="739" y="251" type="curve" smooth="yes"/>
      <point x="739" y="328"/>
      <point x="706" y="366"/>
    </contour>
    <contour>
      <point x="626" y="297" type="curve" smooth="yes"/>
      <point x="648" y="297"/>
      <point x="659" y="284"/>
      <point x="659" y="257" type="curve" smooth="yes"/>
      <point x="659" y="202"/>
      <point x="640" y="111"/>
      <point x="623" y="81" type="curve" smooth="yes"/>
      <point x="614" y="64"/>
      <point x="602" y="57"/>
      <point x="584" y="57" type="curve" smooth="yes"/>
      <point x="563" y="57"/>
      <point x="552" y="71"/>
      <point x="552" y="98" type="curve" smooth="yes"/>
      <point x="552" y="152"/>
      <point x="570" y="240"/>
      <point x="588" y="274" type="curve" smooth="yes"/>
      <point x="596" y="289"/>
      <point x="609" y="297"/>
    </contour>
  </outline>
</glyph>
<glyph name="ampersand" format="1">
  <advance width="592"/>
  <unicode hex="0026"/>
  <outline>
    <contour>
      <point x="495" y="157" type="line"/>
      <point x="551" y="228"/>
      <point x="576" y="278"/>
      <point x="600" y="373" type="curve"/>
      <point x="498" y="373" type="line"/>
      <point x="485" y="321"/>
      <point x="471" y="290"/>
      <point x="448" y="255" type="curve"/>
      <point x="386" y="381" type="line"/>
      <point x="474" y="438"/>
      <point x="517" y="506"/>
      <point x="517" y="589" type="curve" smooth="yes"/>
      <point x="517" y="666"/>
      <point x="468" y="718"/>
      <point x="395" y="718" type="curve" smooth="yes"/>
      <point x="293" y="718"/>
      <point x="209" y="627"/>
      <point x="209" y="517" type="curve" smooth="yes"/>
      <point x="209" y="477"/>
      <point x="218" y="445"/>
      <point x="240" y="403" type="curve"/>
      <point x="226" y="394" type="line" smooth="yes"/>
      <point x="124" y="328"/>
      <point x="73" y="245"/>
      <point x="73" y="144" type="curve" smooth="yes"/>
      <point x="73" y="45"/>
      <point x="134" y="-19"/>
      <point x="229" y="-19" type="curve" smooth="yes"/>
      <point x="297" y="-19"/>
      <point x="346" y="3"/>
      <point x="406" y="61" type="curve"/>
      <point x="436" y="0" type="line"/>
      <point x="574" y="0" type="line"/>
    </contour>
    <contour>
      <point x="345" y="464" type="curve"/>
      <point x="324" y="501"/>
      <point x="316" y="521"/>
      <point x="316" y="542" type="curve" smooth="yes"/>
      <point x="316" y="580"/>
      <point x="343" y="612"/>
      <point x="376" y="612" type="curve" smooth="yes"/>
      <point x="401" y="612"/>
      <point x="416" y="596"/>
      <point x="416" y="569" type="curve" smooth="yes"/>
      <point x="416" y="530"/>
      <point x="397" y="501"/>
    </contour>
    <contour>
      <point x="363" y="149" type="line"/>
      <point x="323" y="114"/>
      <point x="293" y="99"/>
      <point x="260" y="99" type="curve" smooth="yes"/>
      <point x="219" y="99"/>
      <point x="192" y="130"/>
      <point x="192" y="177" type="curve" smooth="yes"/>
      <point x="192" y="203"/>
      <point x="200" y="230"/>
      <point x="215" y="251" type="curve" smooth="yes"/>
      <point x="226" y="268"/>
      <point x="241" y="281"/>
      <point x="283" y="314" type="curve"/>
    </contour>
  </outline>
</glyph>
<glyph name="quotesingle" format="1">
  <advance width="195"/>
  <unicode hex="0027"/>
  <outline>
    <contour>
      <point x="135" y="447" type="line"/>
      <point x="216" y="447" type="line"/>
      <point x="263" y="718" type="line"/>
      <point x="182" y="718" type="line"/>
    </contour>
  </outline>
</glyph>
<glyph name="parenleft" format="1">
  <advance width="273"/>
  <unicode hex="0028"/>
  <outline>
    <contour>
      <point x="221" y="-207" type="line"/>
      <point x="186" y="-85"/>
      <point x="175" y="-18"/>
      <point x="175" y="78" type="curve" smooth="yes"/>
      <point x="175" y="171"/>
      <point x="192" y="286"/>
      <point x="220" y="387" type="curve" smooth="yes"/>
      <point x="255" y="508"/>
      <point x="295" y="594"/>
      <point x="385" y="734" type="curve"/>
      <point x="301" y="734" type="line"/>
      <point x="207" y="611"/>
      <point x="164" y="539"/>
      <point x="123" y="435" type="curve" smooth="yes"/>
      <point x="83" y="334"/>
      <point x="62" y="228"/>
      <point x="62" y="126" type="curve" smooth="yes"/>
      <point x="62" y="12"/>
      <point x="82" y="-76"/>
      <point x="136" y="-207" type="curve"/>
    </contour>
  </outline>
</glyph>
<glyph name="parenright" format="1">
  <advance width="273"/>
  <unicode hex="0029"/>
  <outline>
    <contour>
      <point x="143" y="734" type="line"/>
      <point x="178" y="611"/>
      <point x="189" y="543"/>
      <point x="189" y="448" type="curve" smooth="yes"/>
      <point x="189" y="354"/>
      <point x="172" y="240"/>
      <point x="144" y="139" type="curve" smooth="yes"/>
      <point x="109" y="16"/>
      <point x="68" y="-70"/>
      <point x="-21" y="-207" type="curve"/>
      <point x="63" y="-207" type="line"/>
      <point x="156" y="-87"/>
      <point x="199" y="-15"/>
      <point x="241" y="91" type="curve" smooth="yes"/>
      <point x="281" y="193"/>
      <point x="302" y="298"/>
      <point x="302" y="399" type="curve" smooth="yes"/>
      <point x="302" y="513"/>
      <point x="283" y="599"/>
      <point x="228" y="734" type="curve"/>
    </contour>
  </outline>
</glyph>
<glyph name="asterisk" format="1">
  <advance width="319"/>
  <unicode hex="002A"/>
  <outline>
    <contour>
      <point x="387" y="633" type="line"/>
      <point x="299" y="599" type="line"/>
      <point x="319" y="718" type="line"/>
      <point x="250" y="718" type="line"/>
      <point x="229" y="599" type="line"/>
      <point x="152" y="633" type="line"/>
      <point x="120" y="560" type="line"/>
      <point x="200" y="528" type="line"/>
      <point x="127" y="431" type="line"/>
      <point x="171" y="387" type="line"/>
      <point x="243" y="478" type="line"/>
      <point x="283" y="387" type="line"/>
      <point x="342" y="431" type="line"/>
      <point x="303" y="528" type="line"/>
      <point x="394" y="560" type="line"/>
    </contour>
  </outline>
</glyph>
<glyph name="plus" format="1">
  <advance width="479"/>
  <unicode hex="002B"/>
  <outline>
    <contour>
      <point x="247" y="309" type="line"/>
      <point x="87" y="309" type="line"/>
      <point x="67" y="197" type="line"/>
      <point x="228" y="197" type="line"/>
      <point x="193" y="0" type="line"/>
      <point x="285" y="0" type="line"/>
      <point x="320" y="197" type="line"/>
      <point x="480" y="197" type="line"/>
      <point x="500" y="309" type="line"/>
      <point x="339" y="309" type="line"/>
      <point x="374" y="506" type="line"/>
      <point x="282" y="506" type="line"/>
    </contour>
  </outline>
</glyph>
<glyph name="comma" format="1">
  <advance width="228"/>
  <unicode hex="002C"/>
  <outline>
    <contour>
      <point x="201" y="146" type="line"/>
      <point x="78" y="146" type="line"/>
      <point x="52" y="0" type="line"/>
      <point x="121" y="0" type="line"/>
      <point x="105" y="-67"/>
      <point x="83" y="-96"/>
      <point x="32" y="-115" type="curve"/>
      <point x="23" y="-168" type="line"/>
      <point x="109" y="-148"/>
      <point x="160" y="-86"/>
      <point x="179" y="20" type="curve" smooth="yes"/>
    </contour>
  </outline>
</glyph>
<glyph name="hyphen" format="1">
  <advance width="273"/>
  <unicode hex="002D"/>
  <outline>
    <contour>
      <point x="311" y="345" type="line"/>
      <point x="83" y="345" type="line"/>
      <point x="60" y="215" type="line"/>
      <point x="288" y="215" type="line"/>
    </contour>
  </outline>
</glyph>
<glyph name="slash" format="1">
  <advance width="228"/>
  <unicode hex="002F"/>
  <outline>
    <contour>
      <point x="383" y="737" type="line"/>
      <point x="287" y="737" type="line"/>
      <point x="-30" y="-19" type="line"/>
      <point x="66" y="-19" type="line"/>
    </contour>
  </outline>
</glyph>
<glyph name="zero" format="1">
  <advance width="456"/>
  <unicode hex="0030"/>
  <outline>
    <contour>
      <point x="352" y="710" type="curve" smooth="yes"/>
      <point x="285" y="710"/>
      <point x="230" y="681"/>
      <point x="186" y="623" type="curve" smooth="yes"/>
      <point x="125" y="543"/>
      <point x="71" y="335"/>
      <point x="71" y="178" type="curve" smooth="yes"/>
      <point x="71" y="125"/>
      <point x="83" y="75"/>
      <point x="104" y="40" type="curve" smooth="yes"/>
      <point x="127" y="2"/>
      <point x="170" y="-19"/>
      <point x="226" y="-19" type="curve" smooth="yes"/>
      <point x="294" y="-19"/>
      <point x="347" y="9"/>
      <point x="392" y="69" type="curve" smooth="yes"/>
      <point x="455" y="152"/>
      <point x="506" y="350"/>
      <point x="506" y="515" type="curve" smooth="yes"/>
      <point x="506" y="644"/>
      <point x="454" y="710"/>
    </contour>
    <contour>
      <point x="333" y="598" type="curve" smooth="yes"/>
      <point x="372" y="598"/>
      <point x="392" y="570"/>
      <point x="392" y="515" type="curve" smooth="yes"/>
      <point x="392" y="413"/>
      <point x="352" y="212"/>
      <point x="320" y="147" type="curve" smooth="yes"/>
      <point x="301" y="110"/>
      <point x="277" y="93"/>
      <point x="245" y="93" type="curve" smooth="yes"/>
      <point x="206" y="93"/>
      <point x="186" y="121"/>
      <point x="186" y="178" type="curve" smooth="yes"/>
      <point x="186" y="225"/>
      <point x="194" y="284"/>
      <point x="212" y="379" type="curve" smooth="yes"/>
      <point x="230" y="471"/>
      <point x="238" y="501"/>
      <point x="259" y="544" type="curve" smooth="yes"/>
      <point x="275" y="579"/>
      <point x="301" y="598"/>
    </contour>
  </outline>
</glyph>
<glyph name="one" format="1">
  <advance width="456"/>
  <unicode hex="0031"/>
  <outline>
    <contour>
      <point x="142" y="489" type="line"/>
      <point x="281" y="489" type="line"/>
      <point x="195" y="0" type="line"/>
      <point x="310" y="0" type="line"/>
      <point x="434" y="710" type="line"/>
      <point x="340" y="710" type="line"/>
      <point x="318" y="628"/>
      <point x="263" y="587"/>
      <point x="175" y="587" type="curve" smooth="yes"/>
      <point x="159" y="587" type="line"/>
    </contour>
  </outline>
</glyph>
<glyph name="two" format="1">
  <advance width="456"/>
  <unicode hex="0032"/>
  <outline>
    <contour>
      <point x="219" y="459" type="line"/>
      <point x="238" y="555"/>
      <point x="267" y="592"/>
      <point x="324" y="592" type="curve" smooth="yes"/>
      <point x="366" y="592"/>
      <point x="391" y="563"/>
      <point x="391" y="515" type="curve" smooth="yes"/>
      <point x="391" y="450"/>
      <point x="358" y="400"/>
      <point x="270" y="332" type="curve" smooth="yes"/>
      <point x="95" y="201"/>
      <point x="52" y="144"/>
      <point x="21" y="0" type="curve"/>
      <point x="419" y="0" type="line"/>
      <point x="441" y="124" type="line"/>
      <point x="188" y="124" type="line"/>
      <point x="205" y="150"/>
      <point x="219" y="163"/>
      <point x="293" y="219" type="curve" smooth="yes"/>
      <point x="400" y="299"/>
      <point x="403" y="301"/>
      <point x="432" y="334" type="curve" smooth="yes"/>
      <point x="480" y="390"/>
      <point x="508" y="464"/>
      <point x="508" y="539" type="curve" smooth="yes"/>
      <point x="508" y="644"/>
      <point x="444" y="710"/>
      <point x="343" y="710" type="curve" smooth="yes"/>
      <point x="275" y="710"/>
      <point x="214" y="679"/>
      <point x="173" y="624" type="curve" smooth="yes"/>
      <point x="141" y="581"/>
      <point x="125" y="542"/>
      <point x="108" y="459" type="curve"/>
    </contour>
  </outline>
</glyph>
<glyph name="three" format="1">
  <advance width="456"/>
  <unicode hex="0033"/>
  <outline>
    <contour>
      <point x="229" y="311" type="line"/>
      <point x="313" y="310"/>
      <point x="344" y="290"/>
      <point x="344" y="236" type="curve" smooth="yes"/>
      <point x="344" y="158"/>
      <point x="294" y="93"/>
      <point x="235" y="93" type="curve" smooth="yes"/>
      <point x="192" y="93"/>
      <point x="168" y="123"/>
      <point x="168" y="174" type="curve" smooth="yes"/>
      <point x="168" y="186"/>
      <point x="169" y="197"/>
      <point x="173" y="218" type="curve"/>
      <point x="61" y="218" type="line"/>
      <point x="56" y="188"/>
      <point x="54" y="161"/>
      <point x="54" y="143" type="curve" smooth="yes"/>
      <point x="54" y="43"/>
      <point x="117" y="-19"/>
      <point x="219" y="-19" type="curve" smooth="yes"/>
      <point x="291" y="-19"/>
      <point x="356" y="14"/>
      <point x="402" y="75" type="curve" smooth="yes"/>
      <point x="440" y="125"/>
      <point x="464" y="194"/>
      <point x="464" y="257" type="curve" smooth="yes"/>
      <point x="464" y="295"/>
      <point x="450" y="335"/>
      <point x="430" y="356" type="curve" smooth="yes"/>
      <point x="423" y="363"/>
      <point x="415" y="368"/>
      <point x="399" y="376" type="curve"/>
      <point x="465" y="413"/>
      <point x="499" y="476"/>
      <point x="499" y="559" type="curve" smooth="yes"/>
      <point x="499" y="653"/>
      <point x="440" y="710"/>
      <point x="345" y="710" type="curve" smooth="yes"/>
      <point x="277" y="710"/>
      <point x="215" y="679"/>
      <point x="175" y="625" type="curve" smooth="yes"/>
      <point x="145" y="586"/>
      <point x="131" y="551"/>
      <point x="117" y="482" type="curve"/>
      <point x="223" y="482" type="line"/>
      <point x="237" y="560"/>
      <point x="269" y="598"/>
      <point x="321" y="598" type="curve" smooth="yes"/>
      <point x="360" y="598"/>
      <point x="381" y="574"/>
      <point x="381" y="530" type="curve" smooth="yes"/>
      <point x="381" y="495"/>
      <point x="368" y="459"/>
      <point x="348" y="439" type="curve" smooth="yes"/>
      <point x="328" y="419"/>
      <point x="303" y="411"/>
      <point x="265" y="411" type="curve" smooth="yes"/>
      <point x="247" y="411" type="line"/>
    </contour>
  </outline>
</glyph>
<glyph name="four" format="1">
  <advance width="456"/>
  <unicode hex="0034"/>
  <outline>
    <contour>
      <point x="477" y="266" type="line"/>
      <point x="413" y="266" type="line"/>
      <point x="490" y="710" type="line"/>
      <point x="360" y="710" type="line"/>
      <point x="71" y="278" type="line"/>
      <point x="50" y="157" type="line"/>
      <point x="279" y="157" type="line"/>
      <point x="252" y="0" type="line"/>
      <point x="366" y="0" type="line"/>
      <point x="394" y="157" type="line"/>
      <point x="458" y="157" type="line"/>
    </contour>
    <contour>
      <point x="153" y="266" type="line"/>
      <point x="354" y="575" type="line"/>
      <point x="298" y="266" type="line"/>
    </contour>
  </outline>
</glyph>
<glyph name="five" format="1">
  <advance width="456"/>
  <unicode hex="0035"/>
  <outline>
    <contour>
      <point x="265" y="580" type="line"/>
      <point x="501" y="580" type="line"/>
      <point x="522" y="698" type="line"/>
      <point x="202" y="698" type="line"/>
      <point x="94" y="308" type="line"/>
      <point x="196" y="302" type="line"/>
      <point x="219" y="337"/>
      <point x="245" y="353"/>
      <point x="279" y="353" type="curve" smooth="yes"/>
      <point x="324" y="353"/>
      <point x="348" y="322"/>
      <point x="348" y="265" type="curve" smooth="yes"/>
      <point x="348" y="171"/>
      <point x="297" y="93"/>
      <point x="234" y="93" type="curve" smooth="yes"/>
      <point x="194" y="93"/>
      <point x="170" y="121"/>
      <point x="170" y="169" type="curve" smooth="yes"/>
      <point x="170" y="176"/>
      <point x="170" y="181"/>
      <point x="171" y="190" type="curve"/>
      <point x="56" y="190" type="line"/>
      <point x="54" y="171"/>
      <point x="53" y="155"/>
      <point x="53" y="143" type="curve" smooth="yes"/>
      <point x="53" y="46"/>
      <point x="118" y="-19"/>
      <point x="213" y="-19" type="curve" smooth="yes"/>
      <point x="286" y="-19"/>
      <point x="353" y="16"/>
      <point x="398" y="77" type="curve" smooth="yes"/>
      <point x="443" y="136"/>
      <point x="470" y="220"/>
      <point x="470" y="295" type="curve" smooth="yes"/>
      <point x="470" y="398"/>
      <point x="413" y="465"/>
      <point x="325" y="465" type="curve" smooth="yes"/>
      <point x="286" y="465"/>
      <point x="256" y="454"/>
      <point x="217" y="426" type="curve"/>
    </contour>
  </outline>
</glyph>
<glyph name="six" format="1">
  <advance width="456"/>
  <unicode hex="0036"/>
  <outline>
    <contour>
      <point x="507" y="530" type="line"/>
      <point x="507" y="555" type="line" smooth="yes"/>
      <point x="507" y="657"/>
      <point x="457" y="710"/>
      <point x="359" y="710" type="curve" smooth="yes"/>
      <point x="275" y="710"/>
      <point x="201" y="658"/>
      <point x="153" y="564" type="curve" smooth="yes"/>
      <point x="106" y="473"/>
      <point x="70" y="306"/>
      <point x="70" y="182" type="curve" smooth="yes"/>
      <point x="70" y="53"/>
      <point x="127" y="-19"/>
      <point x="229" y="-19" type="curve" smooth="yes"/>
      <point x="295" y="-19"/>
      <point x="353" y="12"/>
      <point x="399" y="72" type="curve" smooth="yes"/>
      <point x="444" y="133"/>
      <point x="472" y="215"/>
      <point x="472" y="291" type="curve" smooth="yes"/>
      <point x="472" y="395"/>
      <point x="417" y="459"/>
      <point x="328" y="459" type="curve" smooth="yes"/>
      <point x="277" y="459"/>
      <point x="243" y="442"/>
      <point x="207" y="397" type="curve"/>
      <point x="241" y="541"/>
      <point x="278" y="598"/>
      <point x="339" y="598" type="curve" smooth="yes"/>
      <point x="373" y="598"/>
      <point x="394" y="577"/>
      <point x="394" y="542" type="curve" smooth="yes"/>
      <point x="394" y="540"/>
      <point x="394" y="535"/>
      <point x="393" y="530" type="curve"/>
    </contour>
    <contour>
      <point x="288" y="347" type="curve" smooth="yes"/>
      <point x="329" y="347"/>
      <point x="355" y="315"/>
      <point x="355" y="265" type="curve" smooth="yes"/>
      <point x="355" y="172"/>
      <point x="306" y="93"/>
      <point x="247" y="93" type="curve" smooth="yes"/>
      <point x="205" y="93"/>
      <point x="177" y="130"/>
      <point x="177" y="187" type="curve" smooth="yes"/>
      <point x="177" y="277"/>
      <point x="225" y="347"/>
    </contour>
  </outline>
</glyph>
<glyph name="seven" format="1">
  <advance width="456"/>
  <unicode hex="0037"/>
  <outline>
    <contour>
      <point x="555" y="698" type="line"/>
      <point x="144" y="698" type="line"/>
      <point x="120" y="574" type="line"/>
      <point x="410" y="574" type="line"/>
      <point x="255" y="402"/>
      <point x="150" y="207"/>
      <point x="102" y="0" type="curve"/>
      <point x="220" y="0" type="line"/>
      <point x="273" y="223"/>
      <point x="374" y="412"/>
      <point x="536" y="590" type="curve"/>
    </contour>
  </outline>
</glyph>
<glyph name="eight" format="1">
  <advance width="456"/>
  <unicode hex="0038"/>
  <outline>
    <contour>
      <point x="410" y="382" type="curve"/>
      <point x="472" y="421"/>
      <point x="505" y="484"/>
      <point x="505" y="562" type="curve" smooth="yes"/>
      <point x="505" y="652"/>
      <point x="445" y="710"/>
      <point x="351" y="710" type="curve" smooth="yes"/>
      <point x="229" y="710"/>
      <point x="131" y="606"/>
      <point x="131" y="477" type="curve" smooth="yes"/>
      <point x="131" y="432"/>
      <point x="144" y="405"/>
      <point x="181" y="377" type="curve"/>
      <point x="132" y="349"/>
      <point x="108" y="325"/>
      <point x="87" y="282" type="curve" smooth="yes"/>
      <point x="68" y="244"/>
      <point x="57" y="195"/>
      <point x="57" y="149" type="curve" smooth="yes"/>
      <point x="57" y="43"/>
      <point x="119" y="-19"/>
      <point x="225" y="-19" type="curve" smooth="yes"/>
      <point x="298" y="-19"/>
      <point x="362" y="13"/>
      <point x="408" y="75" type="curve" smooth="yes"/>
      <point x="447" y="127"/>
      <point x="472" y="199"/>
      <point x="472" y="263" type="curve" smooth="yes"/>
      <point x="472" y="317"/>
      <point x="456" y="347"/>
    </contour>
    <contour>
      <point x="334" y="598" type="curve" smooth="yes"/>
      <point x="370" y="598"/>
      <point x="391" y="573"/>
      <point x="391" y="532" type="curve" smooth="yes"/>
      <point x="391" y="471"/>
      <point x="352" y="422"/>
      <point x="302" y="422" type="curve" smooth="yes"/>
      <point x="266" y="422"/>
      <point x="242" y="450"/>
      <point x="242" y="491" type="curve" smooth="yes"/>
      <point x="242" y="551"/>
      <point x="283" y="598"/>
    </contour>
    <contour>
      <point x="283" y="316" type="curve" smooth="yes"/>
      <point x="325" y="316"/>
      <point x="350" y="286"/>
      <point x="350" y="235" type="curve" smooth="yes"/>
      <point x="350" y="158"/>
      <point x="302" y="93"/>
      <point x="245" y="93" type="curve" smooth="yes"/>
      <point x="203" y="93"/>
      <point x="178" y="123"/>
      <point x="178" y="173" type="curve" smooth="yes"/>
      <point x="178" y="254"/>
      <point x="224" y="316"/>
    </contour>
  </outline>
</glyph>
<glyph name="nine" format="1">
  <advance width="456"/>
  <unicode hex="0039"/>
  <outline>
    <contour>
      <point x="65" y="164" type="line"/>
      <point x="64" y="153"/>
      <point x="64" y="143"/>
      <point x="64" y="135" type="curve" smooth="yes"/>
      <point x="64" y="43"/>
      <point x="123" y="-19"/>
      <point x="211" y="-19" type="curve" smooth="yes"/>
      <point x="279" y="-19"/>
      <point x="338" y="14"/>
      <point x="389" y="81" type="curve" smooth="yes"/>
      <point x="452" y="164"/>
      <point x="504" y="355"/>
      <point x="504" y="506" type="curve" smooth="yes"/>
      <point x="504" y="638"/>
      <point x="448" y="710"/>
      <point x="346" y="710" type="curve" smooth="yes"/>
      <point x="276" y="710"/>
      <point x="214" y="678"/>
      <point x="170" y="620" type="curve" smooth="yes"/>
      <point x="128" y="564"/>
      <point x="100" y="477"/>
      <point x="100" y="400" type="curve" smooth="yes"/>
      <point x="100" y="297"/>
      <point x="155" y="233"/>
      <point x="242" y="233" type="curve" smooth="yes"/>
      <point x="295" y="233"/>
      <point x="330" y="251"/>
      <point x="365" y="296" type="curve"/>
      <point x="349" y="218"/>
      <point x="336" y="181"/>
      <point x="314" y="147" type="curve" smooth="yes"/>
      <point x="290" y="110"/>
      <point x="263" y="93"/>
      <point x="232" y="93" type="curve" smooth="yes"/>
      <point x="195" y="93"/>
      <point x="178" y="115"/>
      <point x="179" y="164" type="curve"/>
    </contour>
    <contour>
      <point x="327" y="595" type="curve" smooth="yes"/>
      <point x="371" y="595"/>
      <point x="395" y="564"/>
      <point x="395" y="509" type="curve" smooth="yes"/>
      <point x="395" y="415"/>
      <point x="347" y="345"/>
      <point x="283" y="345" type="curve" smooth="yes"/>
      <point x="241" y="345"/>
      <point x="218" y="373"/>
      <point x="218" y="424" type="curve" smooth="yes"/>
      <point x="218" y="525"/>
      <point x="263" y="595"/>
    </contour>
  </outline>
</glyph>
<glyph name="colon" format="1">
  <advance width="273"/>
  <unicode hex="003A"/>
  <outline>
    <contour>
      <point x="224" y="146" type="line"/>
      <point x="100" y="146" type="line"/>
      <point x="75" y="0" type="line"/>
      <point x="198" y="0" type="line"/>
    </contour>
    <contour>
      <point x="288" y="512" type="line"/>
      <point x="165" y="512" type="line"/>
      <point x="139" y="366" type="line"/>
      <point x="263" y="366" type="line"/>
    </contour>
  </outline>
</glyph>
<glyph name="semicolon" format="1">
  <advance width="273"/>
  <unicode hex="003B"/>
  <outline>
    <contour>
      <point x="224" y="146" type="line"/>
      <point x="101" y="146" type="line"/>
      <point x="75" y="0" type="line"/>
      <point x="144" y="0" type="line"/>
      <point x="128" y="-67"/>
      <point x="106" y="-96"/>
      <point x="55" y="-115" type="curve"/>
      <point x="46" y="-168" type="line"/>
      <point x="64" y="-166"/>
      <point x="81" y="-159"/>
      <point x="110" y="-141" type="curve" smooth="yes"/>
      <point x="158" y="-111"/>
      <point x="186" y="-62"/>
      <point x="202" y="20" type="curve" smooth="yes"/>
    </contour>
    <contour>
      <point x="288" y="512" type="line"/>
      <point x="165" y="512" type="line"/>
      <point x="139" y="366" type="line"/>
      <point x="263" y="366" type="line"/>
    </contour>
  </outline>
</glyph>
<glyph name="less" format="1">
  <advance width="479"/>
  <unicode hex="003C"/>
  <outline>
    <contour>
      <point x="443" y="-15" type="line"/>
      <point x="465" y="107" type="line"/>
      <point x="207" y="253" type="line"/>
      <point x="516" y="399" type="line"/>
      <point x="537" y="521" type="line"/>
      <point x="86" y="307" type="line"/>
      <point x="67" y="199" type="line"/>
    </contour>
  </outline>
</glyph>
<glyph name="equal" format="1">
  <advance width="479"/>
  <unicode hex="003D"/>
  <outline>
    <contour>
      <point x="519" y="419" type="line"/>
      <point x="106" y="419" type="line"/>
      <point x="86" y="307" type="line"/>
      <point x="499" y="307" type="line"/>
    </contour>
    <contour>
      <point x="481" y="199" type="line"/>
      <point x="67" y="199" type="line"/>
      <point x="48" y="87" type="line"/>
      <point x="461" y="87" type="line"/>
    </contour>
  </outline>
</glyph>
<glyph name="greater" format="1">
  <advance width="479"/>
  <unicode hex="003E"/>
  <outline>
    <contour>
      <point x="30" y="-15" type="line"/>
      <point x="481" y="199" type="line"/>
      <point x="500" y="307" type="line"/>
      <point x="124" y="521" type="line"/>
      <point x="102" y="399" type="line"/>
      <point x="360" y="253" type="line"/>
      <point x="51" y="107" type="line"/>
    </contour>
  </outline>
</glyph>
<glyph name="question" format="1">
  <advance width="501"/>
  <unicode hex="003F"/>
  <outline>
    <contour>
      <point x="343" y="208" type="line"/>
      <point x="355" y="274"/>
      <point x="367" y="294"/>
      <point x="414" y="330" type="curve" smooth="yes"/>
      <point x="462" y="367"/>
      <point x="484" y="388"/>
      <point x="504" y="416" type="curve" smooth="yes"/>
      <point x="533" y="456"/>
      <point x="550" y="510"/>
      <point x="550" y="565" type="curve" smooth="yes"/>
      <point x="550" y="629"/>
      <point x="524" y="677"/>
      <point x="476" y="702" type="curve" smooth="yes"/>
      <point x="447" y="718"/>
      <point x="410" y="727"/>
      <point x="374" y="727" type="curve" smooth="yes"/>
      <point x="304" y="727"/>
      <point x="238" y="694"/>
      <point x="194" y="636" type="curve" smooth="yes"/>
      <point x="164" y="597"/>
      <point x="150" y="563"/>
      <point x="135" y="493" type="curve"/>
      <point x="251" y="493" type="line"/>
      <point x="254" y="509" type="line"/>
      <point x="258" y="525"/>
      <point x="273" y="557"/>
      <point x="283" y="570" type="curve" smooth="yes"/>
      <point x="301" y="595"/>
      <point x="328" y="609"/>
      <point x="357" y="609" type="curve" smooth="yes"/>
      <point x="400" y="609"/>
      <point x="424" y="583"/>
      <point x="424" y="538" type="curve" smooth="yes"/>
      <point x="424" y="487"/>
      <point x="404" y="450"/>
      <point x="353" y="411" type="curve" smooth="yes"/>
      <point x="273" y="349"/>
      <point x="253" y="315"/>
      <point x="235" y="208" type="curve"/>
    </contour>
    <contour>
      <point x="339" y="141" type="line"/>
      <point x="220" y="141" type="line"/>
      <point x="195" y="0" type="line"/>
      <point x="315" y="0" type="line"/>
    </contour>
  </outline>
</glyph>
<glyph name="at" format="1">
  <advance width="800"/>
  <unicode hex="0040"/>
  <outline>
    <contour>
      <point x="587" y="493" type="line"/>
      <point x="570" y="539"/>
      <point x="544" y="558"/>
      <point x="500" y="558" type="curve" smooth="yes"/>
      <point x="445" y="558"/>
      <point x="393" y="527"/>
      <point x="349" y="469" type="curve" smooth="yes"/>
      <point x="305" y="411"/>
      <point x="277" y="336"/>
      <point x="277" y="272" type="curve" smooth="yes"/>
      <point x="277" y="196"/>
      <point x="322" y="137"/>
      <point x="381" y="137" type="curve" smooth="yes"/>
      <point x="412" y="137"/>
      <point x="442" y="154"/>
      <point x="480" y="193" type="curve"/>
      <point x="479" y="187"/>
      <point x="478" y="181"/>
      <point x="478" y="177" type="curve" smooth="yes"/>
      <point x="478" y="154"/>
      <point x="494" y="137"/>
      <point x="514" y="137" type="curve" smooth="yes"/>
      <point x="570" y="137"/>
      <point x="652" y="188"/>
      <point x="702" y="253" type="curve" smooth="yes"/>
      <point x="752" y="318"/>
      <point x="782" y="406"/>
      <point x="782" y="489" type="curve" smooth="yes"/>
      <point x="782" y="632"/>
      <point x="681" y="737"/>
      <point x="543" y="737" type="curve" smooth="yes"/>
      <point x="339" y="737"/>
      <point x="152" y="518"/>
      <point x="152" y="280" type="curve" smooth="yes"/>
      <point x="152" y="104"/>
      <point x="260" y="-19"/>
      <point x="414" y="-19" type="curve" smooth="yes"/>
      <point x="465" y="-19"/>
      <point x="516" y="-5"/>
      <point x="564" y="23" type="curve" smooth="yes"/>
      <point x="613" y="51"/>
      <point x="641" y="77"/>
      <point x="693" y="142" type="curve"/>
      <point x="620" y="142" type="line"/>
      <point x="556" y="85"/>
      <point x="499" y="61"/>
      <point x="433" y="61" type="curve" smooth="yes"/>
      <point x="312" y="61"/>
      <point x="234" y="149"/>
      <point x="234" y="285" type="curve" smooth="yes"/>
      <point x="234" y="369"/>
      <point x="260" y="458"/>
      <point x="306" y="525" type="curve" smooth="yes"/>
      <point x="363" y="611"/>
      <point x="441" y="657"/>
      <point x="529" y="657" type="curve" smooth="yes"/>
      <point x="641" y="657"/>
      <point x="712" y="583"/>
      <point x="712" y="465" type="curve" smooth="yes"/>
      <point x="712" y="348"/>
      <point x="646" y="228"/>
      <point x="583" y="228" type="curve" smooth="yes"/>
      <point x="576" y="228"/>
      <point x="573" y="232"/>
      <point x="573" y="240" type="curve" smooth="yes"/>
      <point x="573" y="249"/>
      <point x="577" y="263"/>
      <point x="587" y="291" type="curve" smooth="yes"/>
      <point x="679" y="546" type="line"/>
      <point x="607" y="546" type="line"/>
    </contour>
    <contour>
      <point x="492" y="461" type="curve" smooth="yes"/>
      <point x="523" y="461"/>
      <point x="544" y="435"/>
      <point x="544" y="398" type="curve" smooth="yes"/>
      <point x="544" y="321"/>
      <point x="479" y="237"/>
      <point x="420" y="237" type="curve" smooth="yes"/>
      <point x="388" y="237"/>
      <point x="369" y="261"/>
      <point x="369" y="300" type="curve" smooth="yes"/>
      <point x="369" y="377"/>
      <point x="433" y="461"/>
    </contour>
  </outline>
</glyph>
<glyph name="D" format="1">
  <advance width="592"/>
  <unicode hex="0044"/>
  <outline>
    <contour>
      <point x="62" y="0" type="line"/>
      <point x="317" y="0" type="line" smooth="yes"/>
      <point x="399" y="0"/>
      <point x="467" y="37"/>
      <point x="524" y="114" type="curve" smooth="yes"/>
      <point x="593" y="206"/>
      <point x="637" y="352"/>
      <point x="637" y="486" type="curve" smooth="yes"/>
      <point x="637" y="561"/>
      <point x="615" y="633"/>
      <point x="581" y="668" type="curve" smooth="yes"/>
      <point x="551" y="700"/>
      <point x="502" y="718"/>
      <point x="448" y="718" type="curve" smooth="yes"/>
      <point x="187" y="718" type="line"/>
    </contour>
    <contour>
      <point x="286" y="594" type="line"/>
      <point x="405" y="594" type="line" smooth="yes"/>
      <point x="476" y="594"/>
      <point x="509" y="552"/>
      <point x="509" y="462" type="curve" smooth="yes"/>
      <point x="509" y="381"/>
      <point x="488" y="287"/>
      <point x="455" y="223" type="curve" smooth="yes"/>
      <point x="422" y="158"/>
      <point x="376" y="124"/>
      <point x="324" y="124" type="curve" smooth="yes"/>
      <point x="204" y="124" type="line"/>
    </contour>
  </outline>
</glyph>
<glyph name="E" format="1">
  <advance width="547"/>
  <unicode hex="0045"/>
  <outline>
    <contour>
      <point x="620" y="718" type="line"/>
      <point x="187" y="718" type="line"/>
      <point x="62" y="0" type="line"/>
      <point x="509" y="0" type="line"/>
      <point x="531" y="127" type="line"/>
      <point x="205" y="127" type="line"/>
      <point x="237" y="313" type="line"/>
      <point x="524" y="313" type="line"/>
      <point x="546" y="440" type="line"/>
      <point x="259" y="440" type="line"/>
      <point x="285" y="591" type="line"/>
      <point x="598" y="591" type="line"/>
    </contour>
  </outline>
</glyph>
<glyph name="F" format="1">
  <advance width="501"/>
  <unicode hex="0046"/>
  <outline>
    <contour>
      <point x="238" y="302" type="line"/>
      <point x="497" y="302" type="line"/>
      <point x="519" y="429" type="line"/>
      <point x="260" y="429" type="line"/>
      <point x="288" y="591" type="line"/>
      <point x="584" y="591" type="line"/>
      <point x="606" y="718" type="line"/>
      <point x="187" y="718" type="line"/>
      <point x="62" y="0" type="line"/>
      <point x="185" y="0" type="line"/>
    </contour>
  </outline>
</glyph>
<glyph name="G" format="1">
  <advance width="638"/>
  <unicode hex="0047"/>
  <outline>
    <contour>
      <point x="385" y="266" type="line"/>
      <point x="522" y="266" type="line"/>
      <point x="498" y="205"/>
      <point x="482" y="179"/>
      <point x="452" y="151" type="curve" smooth="yes"/>
      <point x="421" y="123"/>
      <point x="385" y="108"/>
      <point x="347" y="108" type="curve" smooth="yes"/>
      <point x="264" y="108"/>
      <point x="216" y="166"/>
      <point x="216" y="268" type="curve" smooth="yes"/>
      <point x="216" y="357"/>
      <point x="244" y="460"/>
      <point x="284" y="520" type="curve" smooth="yes"/>
      <point x="323" y="579"/>
      <point x="379" y="613"/>
      <point x="436" y="613" type="curve" smooth="yes"/>
      <point x="497" y="613"/>
      <point x="546" y="563"/>
      <point x="546" y="501" type="curve" smooth="yes"/>
      <point x="546" y="495" type="line"/>
      <point x="669" y="495" type="line"/>
      <point x="670" y="508"/>
      <point x="670" y="518"/>
      <point x="670" y="525" type="curve" smooth="yes"/>
      <point x="670" y="653"/>
      <point x="584" y="737"/>
      <point x="453" y="737" type="curve" smooth="yes"/>
      <point x="353" y="737"/>
      <point x="267" y="691"/>
      <point x="200" y="603" type="curve" smooth="yes"/>
      <point x="131" y="512"/>
      <point x="89" y="377"/>
      <point x="89" y="249" type="curve" smooth="yes"/>
      <point x="89" y="84"/>
      <point x="172" y="-19"/>
      <point x="304" y="-19" type="curve" smooth="yes"/>
      <point x="383" y="-19"/>
      <point x="435" y="9"/>
      <point x="506" y="90" type="curve"/>
      <point x="503" y="0" type="line"/>
      <point x="585" y="0" type="line"/>
      <point x="653" y="387" type="line"/>
      <point x="406" y="387" type="line"/>
    </contour>
  </outline>
</glyph>
<glyph name="I" format="1">
  <advance width="228"/>
  <unicode hex="0049"/>
  <outline>
    <contour>
      <point x="301" y="718" type="line"/>
      <point x="178" y="718" type="line"/>
      <point x="52" y="0" type="line"/>
      <point x="175" y="0" type="line"/>
    </contour>
  </outline>
</glyph>
<glyph name="K" format="1">
  <advance width="592"/>
  <unicode hex="004B"/>
  <outline>
    <contour>
      <point x="236" y="243" type="line"/>
      <point x="306" y="315" type="line"/>
      <point x="433" y="0" type="line"/>
      <point x="592" y="0" type="line"/>
      <point x="411" y="424" type="line"/>
      <point x="703" y="718" type="line"/>
      <point x="544" y="718" type="line"/>
      <point x="268" y="426" type="line"/>
      <point x="319" y="718" type="line"/>
      <point x="196" y="718" type="line"/>
      <point x="71" y="0" type="line"/>
      <point x="194" y="0" type="line"/>
    </contour>
  </outline>
</glyph>
<glyph name="L" format="1">
  <advance width="501"/>
  <unicode hex="004C"/>
  <outline>
    <contour>
      <point x="310" y="718" type="line"/>
      <point x="187" y="718" type="line"/>
      <point x="62" y="0" type="line"/>
      <point x="478" y="0" type="line"/>
      <point x="501" y="130" type="line"/>
      <point x="208" y="130" type="line"/>
    </contour>
  </outline>
</glyph>
<glyph name="M" format="1">
  <advance width="683"/>
  <unicode hex="004D"/>
  <outline>
    <contour>
      <point x="752" y="718" type="line"/>
      <point x="574" y="718" type="line"/>
      <point x="369" y="148" type="line"/>
      <point x="361" y="718" type="line"/>
      <point x="182" y="718" type="line"/>
      <point x="57" y="0" type="line"/>
      <point x="172" y="0" type="line"/>
      <point x="278" y="609" type="line"/>
      <point x="281" y="0" type="line"/>
      <point x="401" y="0" type="line"/>
      <point x="618" y="609" type="line"/>
      <point x="512" y="0" type="line"/>
      <point x="627" y="0" type="line"/>
    </contour>
  </outline>
</glyph>
<glyph name="N" format="1">
  <advance width="592"/>
  <unicode hex="004E"/>
  <outline>
    <contour>
      <point x="459" y="214" type="line"/>
      <point x="311" y="718" type="line"/>
      <point x="182" y="718" type="line"/>
      <point x="57" y="0" type="line"/>
      <point x="172" y="0" type="line"/>
      <point x="261" y="515" type="line"/>
      <point x="413" y="0" type="line"/>
      <point x="536" y="0" type="line"/>
      <point x="661" y="718" type="line"/>
      <point x="546" y="718" type="line"/>
    </contour>
  </outline>
</glyph>
<glyph name="Q" format="1">
  <advance width="638"/>
  <unicode hex="0051"/>
  <outline>
    <contour>
      <point x="610" y="29" type="line"/>
      <point x="559" y="103" type="line"/>
      <point x="594" y="149"/>
      <point x="609" y="176"/>
      <point x="628" y="223" type="curve" smooth="yes"/>
      <point x="658" y="299"/>
      <point x="675" y="391"/>
      <point x="675" y="473" type="curve" smooth="yes"/>
      <point x="675" y="556"/>
      <point x="650" y="631"/>
      <point x="610" y="673" type="curve" smooth="yes"/>
      <point x="570" y="713"/>
      <point x="510" y="737"/>
      <point x="449" y="737" type="curve" smooth="yes"/>
      <point x="353" y="737"/>
      <point x="259" y="688"/>
      <point x="195" y="604" type="curve" smooth="yes"/>
      <point x="131" y="520"/>
      <point x="88" y="376"/>
      <point x="88" y="244" type="curve" smooth="yes"/>
      <point x="88" y="161"/>
      <point x="113" y="87"/>
      <point x="153" y="45" type="curve" smooth="yes"/>
      <point x="194" y="4"/>
      <point x="252" y="-19"/>
      <point x="314" y="-19" type="curve" smooth="yes"/>
      <point x="370" y="-19"/>
      <point x="417" y="-5"/>
      <point x="475" y="29" type="curve"/>
      <point x="531" y="-52" type="line"/>
    </contour>
    <contour>
      <point x="360" y="195" type="line"/>
      <point x="408" y="127" type="line"/>
      <point x="382" y="114"/>
      <point x="362" y="108"/>
      <point x="338" y="108" type="curve" smooth="yes"/>
      <point x="260" y="108"/>
      <point x="214" y="169"/>
      <point x="214" y="271" type="curve" smooth="yes"/>
      <point x="214" y="360"/>
      <point x="241" y="463"/>
      <point x="280" y="521" type="curve" smooth="yes"/>
      <point x="317" y="577"/>
      <point x="371" y="610"/>
      <point x="425" y="610" type="curve" smooth="yes"/>
      <point x="503" y="610"/>
      <point x="549" y="549"/>
      <point x="549" y="445" type="curve" smooth="yes"/>
      <point x="549" y="359"/>
      <point x="527" y="274"/>
      <point x="488" y="205" type="curve"/>
      <point x="438" y="276" type="line"/>
    </contour>
  </outline>
</glyph>
<glyph name="V" format="1">
  <advance width="547"/>
  <unicode hex="0056"/>
  <outline>
    <contour>
      <point x="304" y="170" type="line"/>
      <point x="273" y="718" type="line"/>
      <point x="141" y="718" type="line"/>
      <point x="214" y="0" type="line"/>
      <point x="331" y="0" type="line"/>
      <point x="656" y="718" type="line"/>
      <point x="528" y="718" type="line"/>
    </contour>
  </outline>
</glyph>
<glyph name="W" format="1">
  <advance width="774"/>
  <unicode hex="0057"/>
  <outline>
    <contour>
      <point x="179" y="0" type="line"/>
      <point x="294" y="0" type="line"/>
      <point x="343" y="142" type="line" smooth="yes"/>
      <point x="349" y="157"/>
      <point x="421" y="371"/>
      <point x="485" y="565" type="curve"/>
      <point x="479" y="399"/>
      <point x="479" y="348"/>
      <point x="478" y="0" type="curve"/>
      <point x="596" y="0" type="line"/>
      <point x="887" y="718" type="line"/>
      <point x="762" y="718" type="line"/>
      <point x="629" y="353"/>
      <point x="604" y="286"/>
      <point x="573" y="187" type="curve"/>
      <point x="577" y="301"/>
      <point x="577" y="344"/>
      <point x="577" y="718" type="curve"/>
      <point x="446" y="718" type="line"/>
      <point x="352" y="440"/>
      <point x="310" y="313"/>
      <point x="271" y="187" type="curve"/>
      <point x="273" y="250"/>
      <point x="274" y="278"/>
      <point x="274" y="327" type="curve" smooth="yes"/>
      <point x="274" y="388"/>
      <point x="272" y="558"/>
      <point x="269" y="718" type="curve"/>
      <point x="138" y="718" type="line"/>
    </contour>
  </outline>
</glyph>
<glyph name="X" format="1">
  <advance width="547"/>
  <unicode hex="0058"/>
  <outline>
    <contour>
      <point x="408" y="373" type="line"/>
      <point x="648" y="718" type="line"/>
      <point x="506" y="718" type="line"/>
      <point x="358" y="486" type="line"/>
      <point x="294" y="718" type="line"/>
      <point x="147" y="718" type="line"/>
      <point x="265" y="367" type="line"/>
      <point x="11" y="0" type="line"/>
      <point x="155" y="0" type="line"/>
      <point x="316" y="245" type="line"/>
      <point x="385" y="0" type="line"/>
      <point x="535" y="0" type="line"/>
    </contour>
  </outline>
</glyph>
<glyph name="Y" format="1">
  <advance width="547"/>
  <unicode hex="0059"/>
  <outline>
    <contour>
      <point x="385" y="269" type="line"/>
      <point x="661" y="718" type="line"/>
      <point x="521" y="718" type="line"/>
      <point x="350" y="406" type="line"/>
      <point x="282" y="718" type="line"/>
      <point x="137" y="718" type="line"/>
      <point x="263" y="271" type="line"/>
      <point x="215" y="0" type="line"/>
      <point x="339" y="0" type="line"/>
    </contour>
  </outline>
</glyph>
<glyph name="bracketleft" format="1">
  <advance width="273"/>
  <unicode hex="005B"/>
  <outline>
    <contour>
      <point x="261" y="626" type="line"/>
      <point x="362" y="626" type="line"/>
      <point x="379" y="722" type="line"/>
      <point x="177" y="722" type="line"/>
      <point x="17" y="-196" type="line"/>
      <point x="219" y="-196" type="line"/>
      <point x="236" y="-100" type="line"/>
      <point x="134" y="-100" type="line"/>
    </contour>
  </outline>
</glyph>
<glyph name="bracketright" format="1">
  <advance width="273"/>
  <unicode hex="005D"/>
  <outline>
    <contour>
      <point x="104" y="-100" type="line"/>
      <point x="3" y="-100" type="line"/>
      <point x="-14" y="-196" type="line"/>
      <point x="187" y="-196" type="line"/>
      <point x="347" y="722" type="line"/>
      <point x="146" y="722" type="line"/>
      <point x="129" y="626" type="line"/>
      <point x="230" y="626" type="line"/>
    </contour>
  </outline>
</glyph>
<glyph name="asciicircum" format="1">
  <advance width="479"/>
  <unicode hex="005E"/>
  <outline>
    <contour>
      <point x="196" y="323" type="line"/>
      <point x="341" y="586" type="line"/>
      <point x="394" y="323" type="line"/>
      <point x="484" y="323" type="line"/>
      <point x="402" y="698" type="line"/>
      <point x="320" y="698" type="line"/>
      <point x="107" y="323" type="line"/>
    </contour>
  </outline>
</glyph>
<glyph name="grave" format="1">
  <advance width="273"/>
  <unicode hex="0060"/>
  <outline>
    <contour>
      <point x="207" y="604" type="line"/>
      <point x="290" y="604" type="line"/>
      <point x="238" y="750" type="line"/>
      <point x="112" y="750" type="line"/>
    </contour>
  </outline>
</glyph>
<glyph name="b" format="1">
  <advance width="501"/>
  <unicode hex="0062"/>
  <outline>
    <contour>
      <point x="290" y="718" type="line"/>
      <point x="175" y="718" type="line"/>
      <point x="50" y="0" type="line"/>
      <point x="162" y="0" type="line"/>
      <point x="175" y="70" type="line"/>
      <point x="194" y="12"/>
      <point x="229" y="-14"/>
      <point x="288" y="-14" type="curve" smooth="yes"/>
      <point x="348" y="-14"/>
      <point x="400" y="15"/>
      <point x="443" y="73" type="curve" smooth="yes"/>
      <point x="495" y="143"/>
      <point x="529" y="255"/>
      <point x="529" y="358" type="curve" smooth="yes"/>
      <point x="529" y="474"/>
      <point x="475" y="546"/>
      <point x="387" y="546" type="curve" smooth="yes"/>
      <point x="331" y="546"/>
      <point x="291" y="522"/>
      <point x="245" y="460" type="curve"/>
    </contour>
    <contour>
      <point x="332" y="425" type="curve" smooth="yes"/>
      <point x="381" y="425"/>
      <point x="407" y="389"/>
      <point x="407" y="323" type="curve" smooth="yes"/>
      <point x="407" y="271"/>
      <point x="394" y="216"/>
      <point x="373" y="174" type="curve" smooth="yes"/>
      <point x="348" y="126"/>
      <point x="316" y="101"/>
      <point x="278" y="101" type="curve" smooth="yes"/>
      <point x="229" y="101"/>
      <point x="200" y="139"/>
      <point x="200" y="203" type="curve" smooth="yes"/>
      <point x="200" y="253"/>
      <point x="214" y="313"/>
      <point x="235" y="355" type="curve" smooth="yes"/>
      <point x="258" y="401"/>
      <point x="292" y="425"/>
    </contour>
  </outline>
</glyph>
<glyph name="d" format="1">
  <advance width="501"/>
  <unicode hex="0064"/>
  <outline>
    <contour>
      <point x="577" y="718" type="line"/>
      <point x="462" y="718" type="line"/>
      <point x="417" y="460" type="line"/>
      <point x="393" y="521"/>
      <point x="361" y="546"/>
      <point x="305" y="546" type="curve" smooth="yes"/>
      <point x="173" y="546"/>
      <point x="67" y="383"/>
      <point x="67" y="180" type="curve" smooth="yes"/>
      <point x="67" y="57"/>
      <point x="119" y="-14"/>
      <point x="208" y="-14" type="curve" smooth="yes"/>
      <point x="267" y="-14"/>
      <point x="312" y="12"/>
      <point x="352" y="70" type="curve"/>
      <point x="339" y="0" type="line"/>
      <point x="452" y="0" type="line"/>
    </contour>
    <contour>
      <point x="318" y="425" type="curve" smooth="yes"/>
      <point x="367" y="425"/>
      <point x="393" y="390"/>
      <point x="393" y="321" type="curve" smooth="yes"/>
      <point x="393" y="196"/>
      <point x="335" y="101"/>
      <point x="259" y="101" type="curve" smooth="yes"/>
      <point x="212" y="101"/>
      <point x="187" y="139"/>
      <point x="187" y="209" type="curve" smooth="yes"/>
      <point x="187" y="257"/>
      <point x="201" y="315"/>
      <point x="221" y="355" type="curve" smooth="yes"/>
      <point x="244" y="400"/>
      <point x="278" y="425"/>
    </contour>
  </outline>
</glyph>
<glyph name="f" format="1">
  <advance width="273"/>
  <unicode hex="0066"/>
  <outline>
    <contour>
      <point x="261" y="432" type="line"/>
      <point x="336" y="432" type="line"/>
      <point x="354" y="532" type="line"/>
      <point x="279" y="532" type="line"/>
      <point x="283" y="553" type="line" smooth="yes"/>
      <point x="292" y="605"/>
      <point x="298" y="612"/>
      <point x="333" y="612" type="curve" smooth="yes"/>
      <point x="365" y="612" type="line"/>
      <point x="385" y="725" type="line"/>
      <point x="370" y="726"/>
      <point x="352" y="727"/>
      <point x="333" y="727" type="curve" smooth="yes"/>
      <point x="240" y="727"/>
      <point x="190" y="680"/>
      <point x="171" y="575" type="curve" smooth="yes"/>
      <point x="164" y="532" type="line"/>
      <point x="101" y="532" type="line"/>
      <point x="83" y="432" type="line"/>
      <point x="146" y="432" type="line"/>
      <point x="71" y="0" type="line"/>
      <point x="186" y="0" type="line"/>
    </contour>
  </outline>
</glyph>
<glyph name="h" format="1">
  <advance width="501"/>
  <unicode hex="0068"/>
  <outline>
    <contour>
      <point x="293" y="718" type="line"/>
      <point x="178" y="718" type="line"/>
      <point x="53" y="0" type="line"/>
      <point x="168" y="0" type="line"/>
      <point x="221" y="305" type="line" smooth="yes"/>
      <point x="234" y="381"/>
      <point x="278" y="428"/>
      <point x="334" y="428" type="curve" smooth="yes"/>
      <point x="372" y="428"/>
      <point x="394" y="406"/>
      <point x="394" y="368" type="curve" smooth="yes"/>
      <point x="394" y="358"/>
      <point x="392" y="341"/>
      <point x="389" y="323" type="curve" smooth="yes"/>
      <point x="333" y="0" type="line"/>
      <point x="448" y="0" type="line"/>
      <point x="512" y="368" type="line" smooth="yes"/>
      <point x="515" y="384"/>
      <point x="516" y="399"/>
      <point x="516" y="413" type="curve" smooth="yes"/>
      <point x="516" y="495"/>
      <point x="469" y="546"/>
      <point x="393" y="546" type="curve" smooth="yes"/>
      <point x="331" y="546"/>
      <point x="281" y="516"/>
      <point x="248" y="459" type="curve"/>
    </contour>
  </outline>
</glyph>
<glyph name="j" format="1">
  <advance width="228"/>
  <unicode hex="006A"/>
  <outline>
    <contour>
      <point x="264" y="532" type="line"/>
      <point x="149" y="532" type="line"/>
      <point x="47" y="-53" type="line" smooth="yes"/>
      <point x="41" y="-88"/>
      <point x="29" y="-102"/>
      <point x="5" y="-102" type="curve" smooth="yes"/>
      <point x="-15" y="-102" type="line"/>
      <point x="-35" y="-214" type="line"/>
      <point x="-6" y="-214" type="line" smooth="yes"/>
      <point x="100" y="-214"/>
      <point x="141" y="-175"/>
      <point x="162" y="-56" type="curve" smooth="yes"/>
    </contour>
    <contour>
      <point x="298" y="725" type="line"/>
      <point x="183" y="725" type="line"/>
      <point x="160" y="595" type="line"/>
      <point x="275" y="595" type="line"/>
    </contour>
  </outline>
</glyph>
<glyph name="k" format="1">
  <advance width="456"/>
  <unicode hex="006B"/>
  <outline>
    <contour>
      <point x="201" y="168" type="line"/>
      <point x="259" y="228" type="line"/>
      <point x="323" y="0" type="line"/>
      <point x="461" y="0" type="line"/>
      <point x="359" y="326" type="line"/>
      <point x="549" y="532" type="line"/>
      <point x="408" y="532" type="line"/>
      <point x="229" y="330" type="line"/>
      <point x="297" y="718" type="line"/>
      <point x="182" y="718" type="line"/>
      <point x="57" y="0" type="line"/>
      <point x="172" y="0" type="line"/>
    </contour>
  </outline>
</glyph>
<glyph name="l" format="1">
  <advance width="228"/>
  <unicode hex="006C"/>
  <outline>
    <contour>
      <point x="297" y="718" type="line"/>
      <point x="182" y="718" type="line"/>
      <point x="57" y="0" type="line"/>
      <point x="172" y="0" type="line"/>
    </contour>
  </outline>
</glyph>
<glyph name="m" format="1">
  <advance width="729"/>
  <unicode hex="006D"/>
  <outline>
    <contour>
      <point x="255" y="532" type="line"/>
      <point x="145" y="532" type="line"/>
      <point x="52" y="0" type="line"/>
      <point x="167" y="0" type="line"/>
      <point x="223" y="324" type="line" smooth="yes"/>
      <point x="235" y="393"/>
      <point x="266" y="428"/>
      <point x="313" y="428" type="curve" smooth="yes"/>
      <point x="349" y="428"/>
      <point x="369" y="409"/>
      <point x="369" y="373" type="curve" smooth="yes"/>
      <point x="369" y="361"/>
      <point x="367" y="341"/>
      <point x="363" y="320" type="curve" smooth="yes"/>
      <point x="307" y="0" type="line"/>
      <point x="422" y="0" type="line"/>
      <point x="478" y="319" type="line" smooth="yes"/>
      <point x="490" y="389"/>
      <point x="524" y="428"/>
      <point x="573" y="428" type="curve" smooth="yes"/>
      <point x="606" y="428"/>
      <point x="623" y="407"/>
      <point x="623" y="364" type="curve" smooth="yes"/>
      <point x="623" y="353"/>
      <point x="621" y="337"/>
      <point x="619" y="323" type="curve" smooth="yes"/>
      <point x="563" y="0" type="line"/>
      <point x="678" y="0" type="line"/>
      <point x="742" y="368" type="line" smooth="yes"/>
      <point x="745" y="384"/>
      <point x="746" y="399"/>
      <point x="746" y="413" type="curve" smooth="yes"/>
      <point x="746" y="494"/>
      <point x="698" y="546"/>
      <point x="625" y="546" type="curve" smooth="yes"/>
      <point x="572" y="546"/>
      <point x="536" y="523"/>
      <point x="490" y="461" type="curve"/>
      <point x="465" y="526"/>
      <point x="441" y="546"/>
      <point x="385" y="546" type="curve" smooth="yes"/>
      <point x="324" y="546"/>
      <point x="284" y="519"/>
      <point x="241" y="451" type="curve"/>
    </contour>
  </outline>
</glyph>
<glyph name="q" format="1">
  <advance width="501"/>
  <unicode hex="0071"/>
  <outline>
    <contour>
      <point x="435" y="532" type="line"/>
      <point x="421" y="450" type="line"/>
      <point x="399" y="520"/>
      <point x="370" y="546"/>
      <point x="312" y="546" type="curve" smooth="yes"/>
      <point x="251" y="546"/>
      <point x="197" y="515"/>
      <point x="153" y="456" type="curve" smooth="yes"/>
      <point x="99" y="386"/>
      <point x="66" y="279"/>
      <point x="66" y="179" type="curve" smooth="yes"/>
      <point x="66" y="57"/>
      <point x="119" y="-14"/>
      <point x="210" y="-14" type="curve" smooth="yes"/>
      <point x="270" y="-14"/>
      <point x="310" y="10"/>
      <point x="350" y="69" type="curve"/>
      <point x="301" y="-207" type="line"/>
      <point x="416" y="-207" type="line"/>
      <point x="545" y="532" type="line"/>
    </contour>
    <contour>
      <point x="315" y="425" type="curve" smooth="yes"/>
      <point x="362" y="425"/>
      <point x="391" y="385"/>
      <point x="391" y="321" type="curve" smooth="yes"/>
      <point x="391" y="198"/>
      <point x="334" y="104"/>
      <point x="261" y="104" type="curve" smooth="yes"/>
      <point x="212" y="104"/>
      <point x="185" y="137"/>
      <point x="185" y="197" type="curve" smooth="yes"/>
      <point x="185" y="250"/>
      <point x="199" y="312"/>
      <point x="221" y="355" type="curve" smooth="yes"/>
      <point x="243" y="399"/>
      <point x="278" y="425"/>
    </contour>
  </outline>
</glyph>
<glyph name="r" format="1">
  <advance width="319"/>
  <unicode hex="0072"/>
  <outline>
    <contour>
      <point x="52" y="0" type="line"/>
      <point x="167" y="0" type="line"/>
      <point x="215" y="277" type="line" smooth="yes"/>
      <point x="230" y="363"/>
      <point x="273" y="404"/>
      <point x="347" y="404" type="curve" smooth="yes"/>
      <point x="360" y="404"/>
      <point x="365" y="404"/>
      <point x="376" y="402" type="curve"/>
      <point x="401" y="544" type="line"/>
      <point x="389" y="545"/>
      <point x="383" y="546"/>
      <point x="379" y="546" type="curve" smooth="yes"/>
      <point x="323" y="546"/>
      <point x="291" y="521"/>
      <point x="238" y="437" type="curve"/>
      <point x="255" y="532" type="line"/>
      <point x="145" y="532" type="line"/>
    </contour>
  </outline>
</glyph>
<glyph name="w" format="1">
  <advance width="638"/>
  <unicode hex="0077"/>
  <outline>
    <contour>
      <point x="723" y="532" type="line"/>
      <point x="605" y="532" type="line"/>
      <point x="470" y="145" type="line"/>
      <point x="470" y="532" type="line"/>
      <point x="354" y="532" type="line"/>
      <point x="225" y="145" type="line"/>
      <point x="223" y="532" type="line"/>
      <point x="101" y="532" type="line"/>
      <point x="131" y="0" type="line"/>
      <point x="249" y="0" type="line"/>
      <point x="387" y="393" type="line"/>
      <point x="387" y="0" type="line"/>
      <point x="505" y="0" type="line"/>
    </contour>
  </outline>
</glyph>
<glyph name="z" format="1">
  <advance width="410"/>
  <unicode hex="007A"/>
  <outline>
    <contour>
      <point x="458" y="417" type="line"/>
      <point x="478" y="532" type="line"/>
      <point x="124" y="532" type="line"/>
      <point x="105" y="420" type="line"/>
      <point x="313" y="420" type="line"/>
      <point x="35" y="109" type="line"/>
      <point x="16" y="0" type="line"/>
      <point x="393" y="0" type="line"/>
      <point x="414" y="115" type="line"/>
      <point x="185" y="115" type="line"/>
    </contour>
  </outline>
</glyph>
<glyph name="braceleft" format="1">
  <advance width="319"/>
  <unicode hex="007B"/>
  <outline>
    <contour>
      <point x="280" y="-108" type="line"/>
      <point x="243" y="-108" type="line" smooth="yes"/>
      <point x="219" y="-108"/>
      <point x="206" y="-95"/>
      <point x="206" y="-70" type="curve" smooth="yes"/>
      <point x="206" y="-63"/>
      <point x="207" y="-53"/>
      <point x="209" y="-42" type="curve" smooth="yes"/>
      <point x="243" y="154" type="line" smooth="yes"/>
      <point x="244" y="160"/>
      <point x="245" y="167"/>
      <point x="245" y="170" type="curve" smooth="yes"/>
      <point x="245" y="198"/>
      <point x="233" y="225"/>
      <point x="214" y="242" type="curve" smooth="yes"/>
      <point x="202" y="253"/>
      <point x="190" y="258"/>
      <point x="164" y="263" type="curve"/>
      <point x="220" y="269"/>
      <point x="268" y="313"/>
      <point x="281" y="372" type="curve" smooth="yes"/>
      <point x="315" y="568" type="line" smooth="yes"/>
      <point x="323" y="615"/>
      <point x="340" y="634"/>
      <point x="373" y="634" type="curve" smooth="yes"/>
      <point x="410" y="634" type="line"/>
      <point x="425" y="722" type="line"/>
      <point x="357" y="722" type="line" smooth="yes"/>
      <point x="291" y="722"/>
      <point x="232" y="663"/>
      <point x="218" y="585" type="curve" smooth="yes"/>
      <point x="183" y="385" type="line" smooth="yes"/>
      <point x="176" y="341"/>
      <point x="141" y="311"/>
      <point x="93" y="309" type="curve"/>
      <point x="77" y="217" type="line"/>
      <point x="120" y="214"/>
      <point x="145" y="191"/>
      <point x="143" y="157" type="curve"/>
      <point x="143" y="153"/>
      <point x="142" y="147"/>
      <point x="141" y="141" type="curve" smooth="yes"/>
      <point x="106" y="-59" type="line" smooth="yes"/>
      <point x="104" y="-70"/>
      <point x="103" y="-82"/>
      <point x="103" y="-91" type="curve" smooth="yes"/>
      <point x="103" y="-153"/>
      <point x="142" y="-196"/>
      <point x="197" y="-196" type="curve" smooth="yes"/>
      <point x="265" y="-196" type="line"/>
    </contour>
  </outline>
</glyph>
<glyph name="bar" format="1">
  <advance width="230"/>
  <unicode hex="007C"/>
  <outline>
    <contour>
      <point x="66" y="-19" type="line"/>
      <point x="158" y="-19" type="line"/>
      <point x="289" y="737" type="line"/>
      <point x="197" y="737" type="line"/>
    </contour>
  </outline>
</glyph>
<glyph name="braceright" format="1">
  <advance width="319"/>
  <unicode hex="007D"/>
  <outline>
    <contour>
      <point x="333" y="309" type="line"/>
      <point x="291" y="312"/>
      <point x="268" y="333"/>
      <point x="268" y="369" type="curve" smooth="yes"/>
      <point x="268" y="375"/>
      <point x="268" y="379"/>
      <point x="269" y="385" type="curve" smooth="yes"/>
      <point x="304" y="585" type="line" smooth="yes"/>
      <point x="306" y="596"/>
      <point x="307" y="607"/>
      <point x="307" y="617" type="curve" smooth="yes"/>
      <point x="307" y="679"/>
      <point x="268" y="722"/>
      <point x="213" y="722" type="curve" smooth="yes"/>
      <point x="146" y="722" type="line"/>
      <point x="130" y="634" type="line"/>
      <point x="167" y="634" type="line" smooth="yes"/>
      <point x="191" y="634"/>
      <point x="204" y="621"/>
      <point x="204" y="596" type="curve" smooth="yes"/>
      <point x="204" y="587"/>
      <point x="203" y="578"/>
      <point x="201" y="568" type="curve" smooth="yes"/>
      <point x="167" y="372" type="line" smooth="yes"/>
      <point x="166" y="367"/>
      <point x="166" y="362"/>
      <point x="166" y="356" type="curve" smooth="yes"/>
      <point x="166" y="328"/>
      <point x="178" y="301"/>
      <point x="196" y="284" type="curve"/>
      <point x="209" y="273"/>
      <point x="220" y="268"/>
      <point x="246" y="263" type="curve"/>
      <point x="190" y="257"/>
      <point x="143" y="213"/>
      <point x="129" y="154" type="curve"/>
      <point x="95" y="-42" type="line" smooth="yes"/>
      <point x="87" y="-88"/>
      <point x="70" y="-108"/>
      <point x="38" y="-108" type="curve" smooth="yes"/>
      <point x="1" y="-108" type="line"/>
      <point x="-14" y="-196" type="line"/>
      <point x="54" y="-196" type="line" smooth="yes"/>
      <point x="119" y="-196"/>
      <point x="179" y="-137"/>
      <point x="192" y="-59" type="curve" smooth="yes"/>
      <point x="227" y="141" type="line" smooth="yes"/>
      <point x="234" y="185"/>
      <point x="270" y="215"/>
      <point x="317" y="217" type="curve"/>
    </contour>
  </outline>
</glyph>
<glyph name="asciitilde" format="1">
  <advance width="479"/>
  <unicode hex="007E"/>
  <outline>
    <contour>
      <point x="431" y="321" type="line"/>
      <point x="409" y="294"/>
      <point x="395" y="285"/>
      <point x="369" y="285" type="curve" smooth="yes"/>
      <point x="344" y="285"/>
      <point x="323" y="292"/>
      <point x="290" y="311" type="curve" smooth="yes"/>
      <point x="259" y="329"/>
      <point x="239" y="336"/>
      <point x="218" y="336" type="curve" smooth="yes"/>
      <point x="173" y="336"/>
      <point x="139" y="311"/>
      <point x="94" y="242" type="curve"/>
      <point x="136" y="187" type="line"/>
      <point x="158" y="216"/>
      <point x="172" y="224"/>
      <point x="198" y="224" type="curve" smooth="yes"/>
      <point x="223" y="224"/>
      <point x="244" y="217"/>
      <point x="277" y="198" type="curve" smooth="yes"/>
      <point x="308" y="180"/>
      <point x="328" y="173"/>
      <point x="350" y="173" type="curve" smooth="yes"/>
      <point x="395" y="173"/>
      <point x="428" y="199"/>
      <point x="473" y="267" type="curve"/>
    </contour>
  </outline>
</glyph>
<glyph name="exclamdown" format="1">
  <advance width="273"/>
  <unicode hex="00A1"/>
  <outline>
    <contour>
      <point x="145" y="391" type="line"/>
      <point x="265" y="391" type="line"/>
      <point x="290" y="532" type="line"/>
      <point x="170" y="532" type="line"/>
    </contour>
    <contour>
      <point x="73" y="-3" type="line"/>
      <point x="41" y="-186" type="line"/>
      <point x="168" y="-186" type="line"/>
      <point x="200" y="-3" type="line"/>
      <point x="226" y="333" type="line"/>
      <point x="165" y="333" type="line"/>
    </contour>
  </outline>
</glyph>
<glyph name="cent" format="1">
  <advance width="456"/>
  <unicode hex="00A2"/>
  <outline>
    <contour>
      <point x="489" y="342" type="line"/>
      <point x="490" y="358"/>
      <point x="491" y="373"/>
      <point x="491" y="384" type="curve" smooth="yes"/>
      <point x="491" y="423"/>
      <point x="480" y="460"/>
      <point x="459" y="488" type="curve" smooth="yes"/>
      <point x="447" y="505"/>
      <point x="434" y="515"/>
      <point x="406" y="530" type="curve"/>
      <point x="446" y="628" type="line"/>
      <point x="403" y="628" type="line"/>
      <point x="369" y="543" type="line"/>
      <point x="356" y="545"/>
      <point x="342" y="546"/>
      <point x="332" y="546" type="curve" smooth="yes"/>
      <point x="258" y="546"/>
      <point x="197" y="515"/>
      <point x="150" y="453" type="curve" smooth="yes"/>
      <point x="101" y="388"/>
      <point x="65" y="268"/>
      <point x="65" y="168" type="curve" smooth="yes"/>
      <point x="65" y="123"/>
      <point x="76" y="80"/>
      <point x="97" y="46" type="curve" smooth="yes"/>
      <point x="108" y="29"/>
      <point x="121" y="18"/>
      <point x="148" y="2" type="curve"/>
      <point x="100" y="-118" type="line"/>
      <point x="142" y="-118" type="line"/>
      <point x="186" y="-10" type="line"/>
      <point x="198" y="-13"/>
      <point x="212" y="-14"/>
      <point x="227" y="-14" type="curve" smooth="yes"/>
      <point x="339" y="-14"/>
      <point x="422" y="59"/>
      <point x="463" y="194" type="curve"/>
      <point x="346" y="194" type="line"/>
      <point x="332" y="138"/>
      <point x="294" y="101"/>
      <point x="251" y="101" type="curve" smooth="yes"/>
      <point x="244" y="101"/>
      <point x="238" y="102"/>
      <point x="233" y="105" type="curve"/>
      <point x="357" y="410" type="line"/>
      <point x="368" y="396"/>
      <point x="373" y="373"/>
      <point x="373" y="342" type="curve"/>
    </contour>
    <contour>
      <point x="200" y="129" type="line"/>
      <point x="189" y="149"/>
      <point x="185" y="166"/>
      <point x="185" y="192" type="curve" smooth="yes"/>
      <point x="185" y="248"/>
      <point x="200" y="320"/>
      <point x="222" y="361" type="curve" smooth="yes"/>
      <point x="244" y="405"/>
      <point x="275" y="428"/>
      <point x="312" y="428" type="curve" smooth="yes"/>
      <point x="322" y="428" type="line"/>
    </contour>
  </outline>
</glyph>
<glyph name="sterling" format="1">
  <advance width="456"/>
  <unicode hex="00A3"/>
  <outline>
    <contour>
      <point x="374" y="381" type="line"/>
      <point x="257" y="381" type="line"/>
      <point x="243" y="455"/>
      <point x="239" y="479"/>
      <point x="239" y="495" type="curve" smooth="yes"/>
      <point x="239" y="556"/>
      <point x="285" y="606"/>
      <point x="340" y="606" type="curve" smooth="yes"/>
      <point x="386" y="606"/>
      <point x="408" y="579"/>
      <point x="408" y="524" type="curve" smooth="yes"/>
      <point x="408" y="506"/>
      <point x="408" y="502"/>
      <point x="407" y="487" type="curve"/>
      <point x="515" y="487" type="line"/>
      <point x="518" y="514"/>
      <point x="520" y="537"/>
      <point x="520" y="554" type="curve" smooth="yes"/>
      <point x="520" y="655"/>
      <point x="457" y="718"/>
      <point x="356" y="718" type="curve" smooth="yes"/>
      <point x="229" y="718"/>
      <point x="123" y="608"/>
      <point x="123" y="476" type="curve" smooth="yes"/>
      <point x="123" y="453"/>
      <point x="126" y="435"/>
      <point x="137" y="381" type="curve"/>
      <point x="89" y="381" type="line"/>
      <point x="79" y="321" type="line"/>
      <point x="154" y="321" type="line"/>
      <point x="159" y="299"/>
      <point x="160" y="286"/>
      <point x="160" y="265" type="curve" smooth="yes"/>
      <point x="160" y="235"/>
      <point x="155" y="213"/>
      <point x="143" y="192" type="curve" smooth="yes"/>
      <point x="118" y="149"/>
      <point x="83" y="112"/>
      <point x="41" y="86" type="curve"/>
      <point x="68" y="-11" type="line"/>
      <point x="132" y="20"/>
      <point x="143" y="24"/>
      <point x="165" y="24" type="curve" smooth="yes"/>
      <point x="181" y="24"/>
      <point x="201" y="19"/>
      <point x="221" y="10" type="curve" smooth="yes"/>
      <point x="266" y="-10"/>
      <point x="289" y="-16"/>
      <point x="318" y="-16" type="curve" smooth="yes"/>
      <point x="359" y="-16"/>
      <point x="400" y="-2"/>
      <point x="448" y="29" type="curve"/>
      <point x="434" y="138" type="line"/>
      <point x="398" y="114"/>
      <point x="368" y="102"/>
      <point x="345" y="102" type="curve" smooth="yes"/>
      <point x="339" y="102"/>
      <point x="327" y="106"/>
      <point x="312" y="112" type="curve" smooth="yes"/>
      <point x="287" y="123"/>
      <point x="271" y="127"/>
      <point x="248" y="127" type="curve" smooth="yes"/>
      <point x="219" y="127"/>
      <point x="195" y="120"/>
      <point x="143" y="98" type="curve"/>
      <point x="235" y="173"/>
      <point x="263" y="223"/>
      <point x="266" y="321" type="curve"/>
      <point x="364" y="321" type="line"/>
    </contour>
  </outline>
</glyph>
<glyph name="currency" format="1">
  <advance width="456"/>
  <unicode hex="00A4"/>
  <outline>
    <contour>
      <point x="22" y="142" type="line"/>
      <point x="65" y="76" type="line"/>
      <point x="162" y="174" type="line"/>
      <point x="191" y="151"/>
      <point x="219" y="141"/>
      <point x="252" y="141" type="curve" smooth="yes"/>
      <point x="288" y="141"/>
      <point x="319" y="151"/>
      <point x="354" y="174" type="curve"/>
      <point x="418" y="76" type="line"/>
      <point x="483" y="142" type="line"/>
      <point x="420" y="240" type="line"/>
      <point x="454" y="292"/>
      <point x="471" y="346"/>
      <point x="471" y="402" type="curve" smooth="yes"/>
      <point x="471" y="428"/>
      <point x="468" y="447"/>
      <point x="460" y="472" type="curve"/>
      <point x="558" y="570" type="line"/>
      <point x="515" y="636" type="line"/>
      <point x="418" y="538" type="line"/>
      <point x="390" y="561"/>
      <point x="362" y="571"/>
      <point x="328" y="571" type="curve" smooth="yes"/>
      <point x="294" y="571"/>
      <point x="263" y="561"/>
      <point x="226" y="538" type="curve"/>
      <point x="162" y="636" type="line"/>
      <point x="97" y="570" type="line"/>
      <point x="160" y="472" type="line"/>
      <point x="127" y="420"/>
      <point x="110" y="363"/>
      <point x="110" y="305" type="curve" smooth="yes"/>
      <point x="110" y="281"/>
      <point x="112" y="267"/>
      <point x="120" y="240" type="curve"/>
    </contour>
    <contour>
      <point x="310" y="468" type="curve" smooth="yes"/>
      <point x="351" y="468"/>
      <point x="378" y="435"/>
      <point x="378" y="384" type="curve" smooth="yes"/>
      <point x="378" y="310"/>
      <point x="327" y="244"/>
      <point x="270" y="244" type="curve" smooth="yes"/>
      <point x="230" y="244"/>
      <point x="204" y="277"/>
      <point x="204" y="328" type="curve" smooth="yes"/>
      <point x="204" y="404"/>
      <point x="252" y="468"/>
    </contour>
  </outline>
</glyph>
<glyph name="yen" format="1">
  <advance width="456"/>
  <unicode hex="00A5"/>
  <outline>
    <contour>
      <point x="521" y="405" type="line"/>
      <point x="411" y="405" type="line"/>
      <point x="585" y="698" type="line"/>
      <point x="469" y="698" type="line"/>
      <point x="304" y="404" type="line"/>
      <point x="237" y="698" type="line"/>
      <point x="114" y="698" type="line"/>
      <point x="190" y="405" type="line"/>
      <point x="83" y="405" type="line"/>
      <point x="73" y="345" type="line"/>
      <point x="206" y="345" type="line"/>
      <point x="226" y="270" type="line"/>
      <point x="59" y="270" type="line"/>
      <point x="49" y="210" type="line"/>
      <point x="215" y="210" type="line"/>
      <point x="179" y="0" type="line"/>
      <point x="283" y="0" type="line"/>
      <point x="320" y="210" type="line"/>
      <point x="487" y="210" type="line"/>
      <point x="497" y="270" type="line"/>
      <point x="331" y="270" type="line"/>
      <point x="375" y="345" type="line"/>
      <point x="510" y="345" type="line"/>
    </contour>
  </outline>
</glyph>
<glyph name="brokenbar" format="1">
  <advance width="230"/>
  <unicode hex="00A6"/>
  <outline>
    <contour>
      <point x="66" y="-19" type="line"/>
      <point x="158" y="-19" type="line"/>
      <point x="208" y="271" type="line"/>
      <point x="116" y="271" type="line"/>
    </contour>
    <contour>
      <point x="147" y="447" type="line"/>
      <point x="239" y="447" type="line"/>
      <point x="289" y="737" type="line"/>
      <point x="197" y="737" type="line"/>
    </contour>
  </outline>
</glyph>
<glyph name="section" format="1">
  <advance width="456"/>
  <unicode hex="00A7"/>
  <outline>
    <contour>
      <point x="488" y="544" type="line"/>
      <point x="490" y="564"/>
      <point x="491" y="581"/>
      <point x="491" y="594" type="curve" smooth="yes"/>
      <point x="491" y="676"/>
      <point x="439" y="727"/>
      <point x="355" y="727" type="curve" smooth="yes"/>
      <point x="247" y="727"/>
      <point x="154" y="629"/>
      <point x="154" y="515" type="curve" smooth="yes"/>
      <point x="154" y="483"/>
      <point x="161" y="460"/>
      <point x="180" y="432" type="curve"/>
      <point x="106" y="384"/>
      <point x="76" y="333"/>
      <point x="76" y="255" type="curve" smooth="yes"/>
      <point x="76" y="204"/>
      <point x="94" y="172"/>
      <point x="142" y="139" type="curve" smooth="yes"/>
      <point x="254" y="61" type="line" smooth="yes"/>
      <point x="282" y="41"/>
      <point x="292" y="27"/>
      <point x="292" y="6" type="curve" smooth="yes"/>
      <point x="292" y="-39"/>
      <point x="258" y="-78"/>
      <point x="218" y="-78" type="curve" smooth="yes"/>
      <point x="181" y="-78"/>
      <point x="160" y="-55"/>
      <point x="160" y="-16" type="curve" smooth="yes"/>
      <point x="160" y="-11"/>
      <point x="160" y="-4"/>
      <point x="161" y="3" type="curve"/>
      <point x="53" y="3" type="line"/>
      <point x="51" y="-14"/>
      <point x="50" y="-26"/>
      <point x="50" y="-35" type="curve" smooth="yes"/>
      <point x="50" y="-127"/>
      <point x="104" y="-184"/>
      <point x="190" y="-184" type="curve" smooth="yes"/>
      <point x="308" y="-184"/>
      <point x="405" y="-83"/>
      <point x="405" y="39" type="curve" smooth="yes"/>
      <point x="405" y="77"/>
      <point x="396" y="104"/>
      <point x="374" y="134" type="curve"/>
      <point x="438" y="171"/>
      <point x="479" y="239"/>
      <point x="479" y="307" type="curve" smooth="yes"/>
      <point x="479" y="358"/>
      <point x="456" y="396"/>
      <point x="405" y="431" type="curve" smooth="yes"/>
      <point x="286" y="512" type="line" smooth="yes"/>
      <point x="270" y="523"/>
      <point x="263" y="536"/>
      <point x="263" y="552" type="curve" smooth="yes"/>
      <point x="263" y="590"/>
      <point x="295" y="621"/>
      <point x="334" y="621" type="curve" smooth="yes"/>
      <point x="366" y="621"/>
      <point x="385" y="600"/>
      <point x="385" y="565" type="curve" smooth="yes"/>
      <point x="385" y="560"/>
      <point x="385" y="552"/>
      <point x="384" y="544" type="curve"/>
    </contour>
    <contour>
      <point x="209" y="263" type="line" smooth="yes"/>
      <point x="188" y="278"/>
      <point x="180" y="292"/>
      <point x="180" y="312" type="curve" smooth="yes"/>
      <point x="180" y="340"/>
      <point x="200" y="370"/>
      <point x="227" y="383" type="curve"/>
      <point x="334" y="309" type="line" smooth="yes"/>
      <point x="358" y="292"/>
      <point x="370" y="274"/>
      <point x="370" y="254" type="curve" smooth="yes"/>
      <point x="370" y="225"/>
      <point x="354" y="200"/>
      <point x="323" y="179" type="curve"/>
    </contour>
  </outline>
</glyph>
<glyph name="dieresis" format="1">
  <advance width="273"/>
  <unicode hex="00A8"/>
  <outline>
    <contour>
      <point x="235" y="729" type="line"/>
      <point x="132" y="729" type="line"/>
      <point x="112" y="614" type="line"/>
      <point x="215" y="614" type="line"/>
    </contour>
    <contour>
      <point x="395" y="729" type="line"/>
      <point x="292" y="729" type="line"/>
      <point x="272" y="614" type="line"/>
      <point x="375" y="614" type="line"/>
    </contour>
  </outline>
</glyph>
<glyph name="copyright" format="1">
  <advance width="604"/>
  <unicode hex="00A9"/>
  <outline>
    <contour>
      <point x="441" y="303" type="line"/>
      <point x="428" y="257"/>
      <point x="399" y="233"/>
      <point x="358" y="233" type="curve" smooth="yes"/>
      <point x="315" y="233"/>
      <point x="289" y="269"/>
      <point x="289" y="327" type="curve" smooth="yes"/>
      <point x="289" y="419"/>
      <point x="338" y="492"/>
      <point x="400" y="492" type="curve" smooth="yes"/>
      <point x="439" y="492"/>
      <point x="461" y="469"/>
      <point x="462" y="426" type="curve"/>
      <point x="533" y="426" type="line"/>
      <point x="533" y="431" type="line"/>
      <point x="539" y="519"/>
      <point x="490" y="579"/>
      <point x="414" y="579" type="curve" smooth="yes"/>
      <point x="298" y="579"/>
      <point x="203" y="458"/>
      <point x="203" y="310" type="curve" smooth="yes"/>
      <point x="203" y="211"/>
      <point x="256" y="146"/>
      <point x="339" y="146" type="curve" smooth="yes"/>
      <point x="418" y="146"/>
      <point x="479" y="201"/>
      <point x="514" y="303" type="curve"/>
    </contour>
    <contour>
      <point x="432" y="737" type="curve" smooth="yes"/>
      <point x="222" y="737"/>
      <point x="46" y="524"/>
      <point x="46" y="271" type="curve" smooth="yes"/>
      <point x="46" y="98"/>
      <point x="148" y="-19"/>
      <point x="298" y="-19" type="curve" smooth="yes"/>
      <point x="507" y="-19"/>
      <point x="685" y="196"/>
      <point x="685" y="450" type="curve" smooth="yes"/>
      <point x="685" y="621"/>
      <point x="583" y="737"/>
    </contour>
    <contour>
      <point x="415" y="650" type="curve" smooth="yes"/>
      <point x="522" y="650"/>
      <point x="594" y="562"/>
      <point x="594" y="430" type="curve" smooth="yes"/>
      <point x="594" y="238"/>
      <point x="463" y="69"/>
      <point x="315" y="69" type="curve" smooth="yes"/>
      <point x="207" y="69"/>
      <point x="137" y="155"/>
      <point x="137" y="287" type="curve" smooth="yes"/>
      <point x="137" y="481"/>
      <point x="267" y="650"/>
    </contour>
  </outline>
</glyph>
<glyph name="ordfeminine" format="1">
  <advance width="303"/>
  <unicode hex="00AA"/>
  <outline>
    <contour>
      <point x="209" y="625" type="line"/>
      <point x="219" y="656"/>
      <point x="234" y="666"/>
      <point x="266" y="666" type="curve" smooth="yes"/>
      <point x="293" y="666"/>
      <point x="306" y="657"/>
      <point x="306" y="639" type="curve" smooth="yes"/>
      <point x="306" y="621"/>
      <point x="297" y="613"/>
      <point x="275" y="609" type="curve" smooth="yes"/>
      <point x="206" y="598" type="line" smooth="yes"/>
      <point x="145" y="588"/>
      <point x="102" y="536"/>
      <point x="102" y="472" type="curve" smooth="yes"/>
      <point x="102" y="428"/>
      <point x="131" y="401"/>
      <point x="177" y="401" type="curve" smooth="yes"/>
      <point x="214" y="401"/>
      <point x="240" y="413"/>
      <point x="275" y="447" type="curve"/>
      <point x="274" y="436"/>
      <point x="274" y="431"/>
      <point x="274" y="426" type="curve" smooth="yes"/>
      <point x="274" y="421"/>
      <point x="274" y="417"/>
      <point x="275" y="409" type="curve"/>
      <point x="356" y="409" type="line"/>
      <point x="358" y="422" type="line"/>
      <point x="350" y="425"/>
      <point x="346" y="432"/>
      <point x="346" y="444" type="curve" smooth="yes"/>
      <point x="346" y="449"/>
      <point x="347" y="460"/>
      <point x="349" y="471" type="curve" smooth="yes"/>
      <point x="379" y="644" type="line" smooth="yes"/>
      <point x="380" y="650"/>
      <point x="381" y="657"/>
      <point x="381" y="663" type="curve" smooth="yes"/>
      <point x="381" y="710"/>
      <point x="345" y="737"/>
      <point x="280" y="737" type="curve" smooth="yes"/>
      <point x="201" y="737"/>
      <point x="161" y="705"/>
      <point x="137" y="625" type="curve"/>
    </contour>
    <contour>
      <point x="286" y="525" type="line" smooth="yes"/>
      <point x="280" y="490"/>
      <point x="246" y="462"/>
      <point x="210" y="462" type="curve" smooth="yes"/>
      <point x="192" y="462"/>
      <point x="181" y="473"/>
      <point x="181" y="490" type="curve" smooth="yes"/>
      <point x="181" y="522"/>
      <point x="200" y="541"/>
      <point x="240" y="548" type="curve" smooth="yes"/>
      <point x="268" y="553"/>
      <point x="281" y="557"/>
      <point x="293" y="565" type="curve"/>
    </contour>
    <contour>
      <point x="89" y="356" type="line"/>
      <point x="75" y="276" type="line"/>
      <point x="321" y="276" type="line"/>
      <point x="335" y="356" type="line"/>
    </contour>
  </outline>
</glyph>
<glyph name="guillemotleft" format="1">
  <advance width="456"/>
  <unicode hex="00AB"/>
  <outline>
    <contour>
      <point x="273" y="368" type="line"/>
      <point x="294" y="484" type="line"/>
      <point x="132" y="340" type="line"/>
      <point x="111" y="220" type="line"/>
      <point x="223" y="76" type="line"/>
      <point x="243" y="192" type="line"/>
      <point x="176" y="280" type="line"/>
    </contour>
    <contour>
      <point x="448" y="368" type="line"/>
      <point x="468" y="484" type="line"/>
      <point x="306" y="340" type="line"/>
      <point x="285" y="220" type="line"/>
      <point x="397" y="76" type="line"/>
      <point x="417" y="192" type="line"/>
      <point x="351" y="280" type="line"/>
    </contour>
  </outline>
</glyph>
<glyph name="logicalnot" format="1">
  <advance width="479"/>
  <unicode hex="00AC"/>
  <outline>
    <contour>
      <point x="373" y="108" type="line"/>
      <point x="465" y="108" type="line"/>
      <point x="519" y="419" type="line"/>
      <point x="106" y="419" type="line"/>
      <point x="86" y="307" type="line"/>
      <point x="408" y="307" type="line"/>
    </contour>
  </outline>
</glyph>
<glyph name="registered" format="1">
  <advance width="604"/>
  <unicode hex="00AE"/>
  <outline>
    <contour>
      <point x="307" y="327" type="line"/>
      <point x="341" y="327" type="line"/>
      <point x="388" y="156" type="line"/>
      <point x="473" y="156" type="line"/>
      <point x="419" y="334" type="line"/>
      <point x="450" y="338"/>
      <point x="467" y="346"/>
      <point x="484" y="364" type="curve" smooth="yes"/>
      <point x="506" y="388"/>
      <point x="521" y="432"/>
      <point x="521" y="474" type="curve" smooth="yes"/>
      <point x="521" y="535"/>
      <point x="483" y="563"/>
      <point x="402" y="563" type="curve" smooth="yes"/>
      <point x="277" y="563" type="line"/>
      <point x="206" y="156" type="line"/>
      <point x="278" y="156" type="line"/>
    </contour>
    <contour>
      <point x="319" y="396" type="line"/>
      <point x="337" y="494" type="line"/>
      <point x="387" y="494" type="line" smooth="yes"/>
      <point x="427" y="494"/>
      <point x="444" y="484"/>
      <point x="444" y="459" type="curve" smooth="yes"/>
      <point x="444" y="445"/>
      <point x="439" y="426"/>
      <point x="432" y="416" type="curve" smooth="yes"/>
      <point x="422" y="402"/>
      <point x="408" y="396"/>
      <point x="383" y="396" type="curve" smooth="yes"/>
    </contour>
    <contour>
      <point x="431" y="737" type="curve" smooth="yes"/>
      <point x="221" y="737"/>
      <point x="45" y="523"/>
      <point x="45" y="269" type="curve" smooth="yes"/>
      <point x="45" y="97"/>
      <point x="146" y="-19"/>
      <point x="298" y="-19" type="curve" smooth="yes"/>
      <point x="507" y="-19"/>
      <point x="684" y="195"/>
      <point x="684" y="449" type="curve" smooth="yes"/>
      <point x="684" y="621"/>
      <point x="582" y="737"/>
    </contour>
    <contour>
      <point x="414" y="649" type="curve" smooth="yes"/>
      <point x="520" y="649"/>
      <point x="592" y="561"/>
      <point x="592" y="429" type="curve" smooth="yes"/>
      <point x="592" y="238"/>
      <point x="462" y="69"/>
      <point x="314" y="69" type="curve" smooth="yes"/>
      <point x="206" y="69"/>
      <point x="136" y="155"/>
      <point x="136" y="287" type="curve" smooth="yes"/>
      <point x="136" y="480"/>
      <point x="266" y="649"/>
    </contour>
  </outline>
</glyph>
<glyph name="macron" format="1">
  <advance width="273"/>
  <unicode hex="00AF"/>
  <outline>
    <contour>
      <point x="396" y="678" type="line"/>
      <point x="113" y="678" type="line"/>
      <point x="100" y="604" type="line"/>
      <point x="383" y="604" type="line"/>
    </contour>
  </outline>
</glyph>
<glyph name="degree" format="1">
  <advance width="328"/>
  <unicode hex="00B0"/>
  <outline>
    <contour>
      <point x="288" y="712" type="curve" smooth="yes"/>
      <point x="214" y="712"/>
      <point x="143" y="628"/>
      <point x="143" y="539" type="curve" smooth="yes"/>
      <point x="143" y="474"/>
      <point x="183" y="426"/>
      <point x="238" y="426" type="curve" smooth="yes"/>
      <point x="313" y="426"/>
      <point x="383" y="510"/>
      <point x="383" y="599" type="curve" smooth="yes"/>
      <point x="383" y="664"/>
      <point x="343" y="712"/>
    </contour>
    <contour>
      <point x="278" y="656" type="curve" smooth="yes"/>
      <point x="311" y="656"/>
      <point x="336" y="627"/>
      <point x="336" y="587" type="curve" smooth="yes"/>
      <point x="336" y="533"/>
      <point x="293" y="482"/>
      <point x="248" y="482" type="curve" smooth="yes"/>
      <point x="214" y="482"/>
      <point x="190" y="511"/>
      <point x="190" y="550" type="curve" smooth="yes"/>
      <point x="190" y="605"/>
      <point x="233" y="656"/>
    </contour>
  </outline>
</glyph>
<glyph name="plusminus" format="1">
  <advance width="479"/>
  <unicode hex="00B1"/>
  <outline>
    <contour>
      <point x="260" y="381" type="line"/>
      <point x="99" y="381" type="line"/>
      <point x="80" y="269" type="line"/>
      <point x="240" y="269" type="line"/>
      <point x="218" y="143" type="line"/>
      <point x="310" y="143" type="line"/>
      <point x="332" y="269" type="line"/>
      <point x="493" y="269" type="line"/>
      <point x="512" y="381" type="line"/>
      <point x="352" y="381" type="line"/>
      <point x="386" y="578" type="line"/>
      <point x="294" y="578" type="line"/>
    </contour>
    <contour>
      <point x="33" y="0" type="line"/>
      <point x="446" y="0" type="line"/>
      <point x="465" y="112" type="line"/>
      <point x="52" y="112" type="line"/>
    </contour>
  </outline>
</glyph>
<glyph name="acute" format="1">
  <advance width="273"/>
  <unicode hex="00B4"/>
  <outline>
    <contour>
      <point x="423" y="750" type="line"/>
      <point x="297" y="750" type="line"/>
      <point x="194" y="604" type="line"/>
      <point x="277" y="604" type="line"/>
    </contour>
  </outline>
</glyph>
<glyph name="paragraph" format="1">
  <advance width="456"/>
  <unicode hex="00B6"/>
  <outline>
    <contour>
      <point x="141" y="-191" type="line"/>
      <point x="233" y="-191" type="line"/>
      <point x="374" y="615" type="line"/>
      <point x="457" y="615" type="line"/>
      <point x="316" y="-191" type="line"/>
      <point x="408" y="-191" type="line"/>
      <point x="564" y="700" type="line"/>
      <point x="315" y="700" type="line" smooth="yes"/>
      <point x="236" y="700"/>
      <point x="179" y="681"/>
      <point x="141" y="643" type="curve" smooth="yes"/>
      <point x="104" y="606"/>
      <point x="80" y="542"/>
      <point x="80" y="480" type="curve" smooth="yes"/>
      <point x="80" y="428"/>
      <point x="101" y="390"/>
      <point x="141" y="367" type="curve" smooth="yes"/>
      <point x="166" y="354"/>
      <point x="187" y="349"/>
      <point x="235" y="347" type="curve"/>
    </contour>
  </outline>
</glyph>
<glyph name="periodcentered" format="1">
  <advance width="228"/>
  <unicode hex="00B7"/>
  <outline>
    <contour>
      <point x="172" y="334" type="curve" smooth="yes"/>
      <point x="130" y="334"/>
      <point x="90" y="286"/>
      <point x="90" y="235" type="curve" smooth="yes"/>
      <point x="90" y="198"/>
      <point x="112" y="172"/>
      <point x="144" y="172" type="curve" smooth="yes"/>
      <point x="187" y="172"/>
      <point x="226" y="219"/>
      <point x="226" y="270" type="curve" smooth="yes"/>
      <point x="226" y="307"/>
      <point x="203" y="334"/>
    </contour>
  </outline>
</glyph>
<glyph name="cedilla" format="1">
  <advance width="273"/>
  <unicode hex="00B8"/>
  <outline>
    <contour>
      <point x="28" y="-84" type="line"/>
      <point x="42" y="-104" type="line"/>
      <point x="57" y="-99"/>
      <point x="69" y="-96"/>
      <point x="76" y="-96" type="curve" smooth="yes"/>
      <point x="92" y="-96"/>
      <point x="103" y="-107"/>
      <point x="103" y="-124" type="curve" smooth="yes"/>
      <point x="103" y="-149"/>
      <point x="81" y="-171"/>
      <point x="56" y="-171" type="curve" smooth="yes"/>
      <point x="43" y="-171"/>
      <point x="26" y="-166"/>
      <point x="-4" y="-155" type="curve"/>
      <point x="-30" y="-203" type="line"/>
      <point x="12" y="-223"/>
      <point x="30" y="-228"/>
      <point x="57" y="-228" type="curve" smooth="yes"/>
      <point x="126" y="-228"/>
      <point x="180" y="-176"/>
      <point x="180" y="-111" type="curve" smooth="yes"/>
      <point x="180" y="-76"/>
      <point x="156" y="-51"/>
      <point x="120" y="-51" type="curve" smooth="yes"/>
      <point x="113" y="-51"/>
      <point x="106" y="-52"/>
      <point x="96" y="-55" type="curve"/>
      <point x="136" y="0" type="line"/>
      <point x="88" y="0" type="line"/>
    </contour>
  </outline>
</glyph>
<glyph name="ordmasculine" format="1">
  <advance width="299"/>
  <unicode hex="00BA"/>
  <outline>
    <contour>
      <point x="279" y="737" type="curve" smooth="yes"/>
      <point x="181" y="737"/>
      <point x="101" y="644"/>
      <point x="101" y="531" type="curve" smooth="yes"/>
      <point x="101" y="450"/>
      <point x="146" y="401"/>
      <point x="220" y="401" type="curve" smooth="yes"/>
      <point x="318" y="401"/>
      <point x="398" y="493"/>
      <point x="398" y="606" type="curve" smooth="yes"/>
      <point x="398" y="688"/>
      <point x="353" y="737"/>
    </contour>
    <contour>
      <point x="266" y="665" type="curve" smooth="yes"/>
      <point x="297" y="665"/>
      <point x="317" y="639"/>
      <point x="317" y="597" type="curve" smooth="yes"/>
      <point x="317" y="530"/>
      <point x="278" y="473"/>
      <point x="233" y="473" type="curve" smooth="yes"/>
      <point x="201" y="473"/>
      <point x="182" y="499"/>
      <point x="182" y="541" type="curve" smooth="yes"/>
      <point x="182" y="608"/>
      <point x="221" y="665"/>
    </contour>
    <contour>
      <point x="89" y="356" type="line"/>
      <point x="75" y="276" type="line"/>
      <point x="321" y="276" type="line"/>
      <point x="335" y="356" type="line"/>
    </contour>
  </outline>
</glyph>
<glyph name="guillemotright" format="1">
  <advance width="456"/>
  <unicode hex="00BB"/>
  <outline>
    <contour>
      <point x="377" y="280" type="line"/>
      <point x="280" y="192" type="line"/>
      <point x="260" y="76" type="line"/>
      <point x="422" y="220" type="line"/>
      <point x="443" y="340" type="line"/>
      <point x="331" y="484" type="line"/>
      <point x="311" y="368" type="line"/>
    </contour>
    <contour>
      <point x="203" y="280" type="line"/>
      <point x="105" y="192" type="line"/>
      <point x="85" y="76" type="line"/>
      <point x="247" y="220" type="line"/>
      <point x="268" y="340" type="line"/>
      <point x="156" y="484" type="line"/>
      <point x="136" y="368" type="line"/>
    </contour>
  </outline>
</glyph>
<glyph name="onequarter" format="1">
  <advance width="684"/>
  <unicode hex="00BC"/>
  <outline>
    <contour>
      <point x="661" y="424" type="line"/>
      <point x="572" y="424" type="line"/>
      <point x="388" y="164" type="line"/>
      <point x="375" y="90" type="line"/>
      <point x="525" y="90" type="line"/>
      <point x="509" y="0" type="line"/>
      <point x="587" y="0" type="line"/>
      <point x="603" y="90" type="line"/>
      <point x="644" y="90" type="line"/>
      <point x="656" y="159" type="line"/>
      <point x="615" y="159" type="line"/>
    </contour>
    <contour>
      <point x="445" y="157" type="line"/>
      <point x="574" y="343" type="line"/>
      <point x="563" y="288"/>
      <point x="559" y="264"/>
      <point x="540" y="157" type="curve"/>
    </contour>
    <contour>
      <point x="108" y="-19" type="line"/>
      <point x="173" y="-19" type="line"/>
      <point x="650" y="710" type="line"/>
      <point x="586" y="710" type="line"/>
    </contour>
    <contour>
      <point x="121" y="574" type="line"/>
      <point x="211" y="574" type="line"/>
      <point x="161" y="283" type="line"/>
      <point x="244" y="283" type="line"/>
      <point x="318" y="710" type="line"/>
      <point x="248" y="710" type="line"/>
      <point x="235" y="661"/>
      <point x="200" y="636"/>
      <point x="143" y="636" type="curve" smooth="yes"/>
      <point x="132" y="636" type="line"/>
    </contour>
  </outline>
</glyph>
<glyph name="onehalf" format="1">
  <advance width="684"/>
  <unicode hex="00BD"/>
  <outline>
    <contour>
      <point x="108" y="-19" type="line"/>
      <point x="173" y="-19" type="line"/>
      <point x="650" y="710" type="line"/>
      <point x="586" y="710" type="line"/>
    </contour>
    <contour>
      <point x="121" y="574" type="line"/>
      <point x="211" y="574" type="line"/>
      <point x="161" y="283" type="line"/>
      <point x="244" y="283" type="line"/>
      <point x="318" y="710" type="line"/>
      <point x="248" y="710" type="line"/>
      <point x="235" y="661"/>
      <point x="200" y="636"/>
      <point x="143" y="636" type="curve" smooth="yes"/>
      <point x="132" y="636" type="line"/>
    </contour>
    <contour>
      <point x="517" y="275" type="line"/>
      <point x="528" y="334"/>
      <point x="549" y="360"/>
      <point x="584" y="360" type="curve" smooth="yes"/>
      <point x="609" y="360"/>
      <point x="626" y="339"/>
      <point x="626" y="310" type="curve" smooth="yes"/>
      <point x="626" y="272"/>
      <point x="603" y="239"/>
      <point x="548" y="199" type="curve" smooth="yes"/>
      <point x="443" y="126"/>
      <point x="412" y="87"/>
      <point x="393" y="0" type="curve"/>
      <point x="651" y="0" type="line"/>
      <point x="666" y="82" type="line"/>
      <point x="513" y="82" type="line"/>
      <point x="523" y="93"/>
      <point x="549" y="115"/>
      <point x="575" y="133" type="curve" smooth="yes"/>
      <point x="637" y="175"/>
      <point x="639" y="177"/>
      <point x="658" y="198" type="curve" smooth="yes"/>
      <point x="687" y="233"/>
      <point x="704" y="278"/>
      <point x="704" y="323" type="curve" smooth="yes"/>
      <point x="704" y="393"/>
      <point x="662" y="439"/>
      <point x="597" y="439" type="curve" smooth="yes"/>
      <point x="552" y="439"/>
      <point x="510" y="417"/>
      <point x="484" y="379" type="curve" smooth="yes"/>
      <point x="464" y="351"/>
      <point x="455" y="326"/>
      <point x="445" y="275" type="curve"/>
    </contour>
  </outline>
</glyph>
<glyph name="threequarters" format="1">
  <advance width="684"/>
  <unicode hex="00BE"/>
  <outline>
    <contour>
      <point x="688" y="424" type="line"/>
      <point x="599" y="424" type="line"/>
      <point x="415" y="164" type="line"/>
      <point x="402" y="90" type="line"/>
      <point x="552" y="90" type="line"/>
      <point x="536" y="0" type="line"/>
      <point x="614" y="0" type="line"/>
      <point x="630" y="90" type="line"/>
      <point x="671" y="90" type="line"/>
      <point x="683" y="159" type="line"/>
      <point x="642" y="159" type="line"/>
    </contour>
    <contour>
      <point x="472" y="159" type="line"/>
      <point x="597" y="339" type="line"/>
      <point x="587" y="290"/>
      <point x="582" y="260"/>
      <point x="564" y="159" type="curve"/>
    </contour>
    <contour>
      <point x="144" y="-19" type="line"/>
      <point x="209" y="-19" type="line"/>
      <point x="686" y="710" type="line"/>
      <point x="622" y="710" type="line"/>
    </contour>
    <contour>
      <point x="85" y="425" type="line"/>
      <point x="83" y="407"/>
      <point x="82" y="390"/>
      <point x="82" y="378" type="curve" smooth="yes"/>
      <point x="82" y="312"/>
      <point x="123" y="271"/>
      <point x="188" y="271" type="curve" smooth="yes"/>
      <point x="275" y="271"/>
      <point x="347" y="350"/>
      <point x="347" y="446" type="curve" smooth="yes"/>
      <point x="347" y="484"/>
      <point x="333" y="507"/>
      <point x="304" y="520" type="curve"/>
      <point x="346" y="541"/>
      <point x="368" y="579"/>
      <point x="368" y="630" type="curve" smooth="yes"/>
      <point x="368" y="687"/>
      <point x="329" y="722"/>
      <point x="266" y="722" type="curve" smooth="yes"/>
      <point x="221" y="722"/>
      <point x="180" y="702"/>
      <point x="154" y="668" type="curve" smooth="yes"/>
      <point x="136" y="645"/>
      <point x="128" y="625"/>
      <point x="119" y="585" type="curve"/>
      <point x="189" y="585" type="line"/>
      <point x="197" y="626"/>
      <point x="218" y="647"/>
      <point x="251" y="647" type="curve" smooth="yes"/>
      <point x="275" y="647"/>
      <point x="288" y="635"/>
      <point x="288" y="610" type="curve" smooth="yes"/>
      <point x="288" y="565"/>
      <point x="265" y="543"/>
      <point x="217" y="543" type="curve" smooth="yes"/>
      <point x="205" y="543" type="line"/>
      <point x="194" y="479" type="line"/>
      <point x="247" y="479"/>
      <point x="265" y="467"/>
      <point x="265" y="435" type="curve" smooth="yes"/>
      <point x="265" y="383"/>
      <point x="239" y="346"/>
      <point x="201" y="346" type="curve" smooth="yes"/>
      <point x="172" y="346"/>
      <point x="156" y="366"/>
      <point x="156" y="401" type="curve" smooth="yes"/>
      <point x="156" y="406"/>
      <point x="157" y="415"/>
      <point x="159" y="425" type="curve"/>
    </contour>
  </outline>
</glyph>
<glyph name="questiondown" format="1">
  <advance width="501"/>
  <unicode hex="00BF"/>
  <outline>
    <contour>
      <point x="251" y="324" type="line"/>
      <point x="239" y="257"/>
      <point x="227" y="238"/>
      <point x="180" y="202" type="curve" smooth="yes"/>
      <point x="133" y="166"/>
      <point x="110" y="143"/>
      <point x="90" y="116" type="curve" smooth="yes"/>
      <point x="61" y="76"/>
      <point x="44" y="22"/>
      <point x="44" y="-33" type="curve" smooth="yes"/>
      <point x="44" y="-97"/>
      <point x="70" y="-145"/>
      <point x="118" y="-170" type="curve" smooth="yes"/>
      <point x="147" y="-186"/>
      <point x="184" y="-195"/>
      <point x="220" y="-195" type="curve" smooth="yes"/>
      <point x="290" y="-195"/>
      <point x="356" y="-162"/>
      <point x="400" y="-104" type="curve" smooth="yes"/>
      <point x="430" y="-65"/>
      <point x="444" y="-30"/>
      <point x="459" y="39" type="curve"/>
      <point x="343" y="39" type="line"/>
      <point x="340" y="23" type="line"/>
      <point x="336" y="7"/>
      <point x="321" y="-25"/>
      <point x="311" y="-38" type="curve" smooth="yes"/>
      <point x="293" y="-63"/>
      <point x="266" y="-77"/>
      <point x="237" y="-77" type="curve" smooth="yes"/>
      <point x="194" y="-77"/>
      <point x="170" y="-51"/>
      <point x="170" y="-6" type="curve" smooth="yes"/>
      <point x="170" y="46"/>
      <point x="190" y="82"/>
      <point x="241" y="121" type="curve" smooth="yes"/>
      <point x="321" y="183"/>
      <point x="341" y="216"/>
      <point x="359" y="324" type="curve"/>
    </contour>
    <contour>
      <point x="255" y="391" type="line"/>
      <point x="374" y="391" type="line"/>
      <point x="399" y="532" type="line"/>
      <point x="279" y="532" type="line"/>
    </contour>
  </outline>
</glyph>
<glyph name="Acircumflex" format="1">
  <advance width="592"/>
  <unicode hex="00C2"/>
  <outline>
    <contour>
      <point x="213" y="148" type="line"/>
      <point x="430" y="148" type="line"/>
      <point x="442" y="0" type="line"/>
      <point x="576" y="0" type="line"/>
      <point x="494" y="718" type="line"/>
      <point x="352" y="718" type="line"/>
      <point x="16" y="0" type="line"/>
      <point x="146" y="0" type="line"/>
    </contour>
    <contour>
      <point x="394" y="559" type="line"/>
      <point x="417" y="272" type="line"/>
      <point x="267" y="272" type="line"/>
    </contour>
    <contour>
      <point x="511" y="936" type="line"/>
      <point x="408" y="936" type="line"/>
      <point x="289" y="790" type="line"/>
      <point x="382" y="790" type="line"/>
      <point x="448" y="872" type="line"/>
      <point x="486" y="790" type="line"/>
      <point x="579" y="790" type="line"/>
    </contour>
  </outline>
</glyph>
<glyph name="Atilde" format="1">
  <advance width="592"/>
  <unicode hex="00C3"/>
  <outline>
    <contour>
      <point x="213" y="148" type="line"/>
      <point x="430" y="148" type="line"/>
      <point x="442" y="0" type="line"/>
      <point x="576" y="0" type="line"/>
      <point x="494" y="718" type="line"/>
      <point x="352" y="718" type="line"/>
      <point x="16" y="0" type="line"/>
      <point x="146" y="0" type="line"/>
    </contour>
    <contour>
      <point x="394" y="559" type="line"/>
      <point x="417" y="272" type="line"/>
      <point x="267" y="272" type="line"/>
    </contour>
    <contour>
      <point x="554" y="923" type="line"/>
      <point x="543" y="895"/>
      <point x="529" y="883"/>
      <point x="508" y="883" type="curve" smooth="yes"/>
      <point x="497" y="883"/>
      <point x="487" y="887"/>
      <point x="460" y="900" type="curve" smooth="yes"/>
      <point x="428" y="916"/>
      <point x="420" y="919"/>
      <point x="404" y="919" type="curve" smooth="yes"/>
      <point x="351" y="919"/>
      <point x="314" y="881"/>
      <point x="284" y="796" type="curve"/>
      <point x="336" y="796" type="line"/>
      <point x="347" y="824"/>
      <point x="363" y="839"/>
      <point x="382" y="839" type="curve" smooth="yes"/>
      <point x="390" y="839"/>
      <point x="400" y="836"/>
      <point x="418" y="828" type="curve" smooth="yes"/>
      <point x="452" y="812"/>
      <point x="480" y="803"/>
      <point x="497" y="803" type="curve" smooth="yes"/>
      <point x="543" y="803"/>
      <point x="580" y="843"/>
      <point x="607" y="923" type="curve"/>
    </contour>
  </outline>
</glyph>
<glyph name="Adieresis" format="1">
  <advance width="592"/>
  <unicode hex="00C4"/>
  <outline>
    <contour>
      <point x="213" y="148" type="line"/>
      <point x="430" y="148" type="line"/>
      <point x="442" y="0" type="line"/>
      <point x="576" y="0" type="line"/>
      <point x="494" y="718" type="line"/>
      <point x="352" y="718" type="line"/>
      <point x="16" y="0" type="line"/>
      <point x="146" y="0" type="line"/>
    </contour>
    <contour>
      <point x="394" y="559" type="line"/>
      <point x="417" y="272" type="line"/>
      <point x="267" y="272" type="line"/>
    </contour>
    <contour>
      <point x="427" y="915" type="line"/>
      <point x="324" y="915" type="line"/>
      <point x="304" y="800" type="line"/>
      <point x="407" y="800" type="line"/>
    </contour>
    <contour>
      <point x="587" y="915" type="line"/>
      <point x="484" y="915" type="line"/>
      <point x="464" y="800" type="line"/>
      <point x="567" y="800" type="line"/>
    </contour>
  </outline>
</glyph>
<glyph name="Aring" format="1">
  <advance width="592"/>
  <unicode hex="00C5"/>
  <outline>
    <contour>
      <point x="213" y="148" type="line"/>
      <point x="430" y="148" type="line"/>
      <point x="442" y="0" type="line"/>
      <point x="576" y="0" type="line"/>
      <point x="494" y="718" type="line"/>
      <point x="352" y="718" type="line"/>
      <point x="16" y="0" type="line"/>
      <point x="146" y="0" type="line"/>
    </contour>
    <contour>
      <point x="394" y="559" type="line"/>
      <point x="417" y="272" type="line"/>
      <point x="267" y="272" type="line"/>
    </contour>
    <contour>
      <point x="469" y="989" type="curve" smooth="yes"/>
      <point x="415" y="989"/>
      <point x="361" y="927"/>
      <point x="361" y="864" type="curve" smooth="yes"/>
      <point x="361" y="818"/>
      <point x="393" y="781"/>
      <point x="433" y="781" type="curve" smooth="yes"/>
      <point x="487" y="781"/>
      <point x="541" y="843"/>
      <point x="541" y="906" type="curve" smooth="yes"/>
      <point x="541" y="952"/>
      <point x="509" y="989"/>
    </contour>
    <contour>
      <point x="460" y="937" type="curve" smooth="yes"/>
      <point x="480" y="937"/>
      <point x="494" y="920"/>
      <point x="494" y="896" type="curve" smooth="yes"/>
      <point x="494" y="863"/>
      <point x="469" y="833"/>
      <point x="442" y="833" type="curve" smooth="yes"/>
      <point x="422" y="833"/>
      <point x="408" y="850"/>
      <point x="408" y="874" type="curve" smooth="yes"/>
      <point x="408" y="907"/>
      <point x="433" y="937"/>
    </contour>
  </outline>
</glyph>
<glyph name="AE" format="1">
  <advance width="820"/>
  <unicode hex="00C6"/>
  <outline>
    <contour>
      <point x="527" y="313" type="line"/>
      <point x="801" y="313" type="line"/>
      <point x="823" y="440" type="line"/>
      <point x="549" y="440" type="line"/>
      <point x="575" y="591" type="line"/>
      <point x="880" y="591" type="line"/>
      <point x="902" y="718" type="line"/>
      <point x="344" y="718" type="line"/>
      <point x="4" y="0" type="line"/>
      <point x="133" y="0" type="line"/>
      <point x="202" y="153" type="line"/>
      <point x="379" y="153" type="line"/>
      <point x="352" y="0" type="line"/>
      <point x="783" y="0" type="line"/>
      <point x="805" y="127" type="line"/>
      <point x="495" y="127" type="line"/>
    </contour>
    <contour>
      <point x="255" y="271" type="line"/>
      <point x="402" y="591" type="line"/>
      <point x="455" y="591" type="line"/>
      <point x="399" y="271" type="line"/>
    </contour>
  </outline>
</glyph>
<glyph name="Ccedilla" format="1">
  <advance width="592"/>
  <unicode hex="00C7"/>
  <outline>
    <contour>
      <point x="298" y="-19" type="line"/>
      <point x="438" y="-20"/>
      <point x="546" y="73"/>
      <point x="604" y="246" type="curve"/>
      <point x="481" y="246" type="line"/>
      <point x="465" y="205"/>
      <point x="456" y="188"/>
      <point x="439" y="167" type="curve" smooth="yes"/>
      <point x="409" y="130"/>
      <point x="370" y="111"/>
      <point x="327" y="111" type="curve" smooth="yes"/>
      <point x="256" y="111"/>
      <point x="216" y="167"/>
      <point x="216" y="267" type="curve" smooth="yes"/>
      <point x="216" y="359"/>
      <point x="244" y="464"/>
      <point x="283" y="524" type="curve" smooth="yes"/>
      <point x="319" y="579"/>
      <point x="365" y="607"/>
      <point x="418" y="607" type="curve" smooth="yes"/>
      <point x="459" y="607"/>
      <point x="491" y="589"/>
      <point x="506" y="559" type="curve" smooth="yes"/>
      <point x="517" y="538"/>
      <point x="520" y="522"/>
      <point x="522" y="483" type="curve"/>
      <point x="645" y="483" type="line"/>
      <point x="647" y="499"/>
      <point x="647" y="510"/>
      <point x="647" y="519" type="curve" smooth="yes"/>
      <point x="647" y="649"/>
      <point x="563" y="737"/>
      <point x="438" y="737" type="curve" smooth="yes"/>
      <point x="345" y="737"/>
      <point x="262" y="693"/>
      <point x="199" y="609" type="curve" smooth="yes"/>
      <point x="131" y="519"/>
      <point x="88" y="376"/>
      <point x="88" y="241" type="curve" smooth="yes"/>
      <point x="88" y="128"/>
      <point x="126" y="44"/>
      <point x="195" y="7" type="curve" smooth="yes"/>
      <point x="213" y="-3"/>
      <point x="231" y="-10"/>
      <point x="254" y="-14" type="curve"/>
      <point x="204" y="-84" type="line"/>
      <point x="218" y="-104" type="line"/>
      <point x="233" y="-99"/>
      <point x="244" y="-96"/>
      <point x="252" y="-96" type="curve" smooth="yes"/>
      <point x="267" y="-96"/>
      <point x="278" y="-108"/>
      <point x="278" y="-124" type="curve" smooth="yes"/>
      <point x="278" y="-149"/>
      <point x="256" y="-171"/>
      <point x="231" y="-171" type="curve" smooth="yes"/>
      <point x="219" y="-171"/>
      <point x="202" y="-167"/>
      <point x="172" y="-155" type="curve"/>
      <point x="146" y="-203" type="line"/>
      <point x="187" y="-223"/>
      <point x="206" y="-228"/>
      <point x="233" y="-228" type="curve" smooth="yes"/>
      <point x="302" y="-228"/>
      <point x="356" y="-176"/>
      <point x="356" y="-111" type="curve" smooth="yes"/>
      <point x="356" y="-75"/>
      <point x="332" y="-51"/>
      <point x="296" y="-51" type="curve" smooth="yes"/>
      <point x="289" y="-51"/>
      <point x="282" y="-52"/>
      <point x="272" y="-55" type="curve"/>
    </contour>
  </outline>
</glyph>
<glyph name="Egrave" format="1">
  <advance width="547"/>
  <unicode hex="00C8"/>
  <outline>
    <contour>
      <point x="620" y="718" type="line"/>
      <point x="187" y="718" type="line"/>
      <point x="62" y="0" type="line"/>
      <point x="509" y="0" type="line"/>
      <point x="531" y="127" type="line"/>
      <point x="205" y="127" type="line"/>
      <point x="237" y="313" type="line"/>
      <point x="524" y="313" type="line"/>
      <point x="546" y="440" type="line"/>
      <point x="259" y="440" type="line"/>
      <point x="285" y="591" type="line"/>
      <point x="598" y="591" type="line"/>
    </contour>
    <contour>
      <point x="376" y="790" type="line"/>
      <point x="459" y="790" type="line"/>
      <point x="407" y="936" type="line"/>
      <point x="281" y="936" type="line"/>
    </contour>
  </outline>
</glyph>
<glyph name="Eacute" format="1">
  <advance width="547"/>
  <unicode hex="00C9"/>
  <outline>
    <contour>
      <point x="620" y="718" type="line"/>
      <point x="187" y="718" type="line"/>
      <point x="62" y="0" type="line"/>
      <point x="509" y="0" type="line"/>
      <point x="531" y="127" type="line"/>
      <point x="205" y="127" type="line"/>
      <point x="237" y="313" type="line"/>
      <point x="524" y="313" type="line"/>
      <point x="546" y="440" type="line"/>
      <point x="259" y="440" type="line"/>
      <point x="285" y="591" type="line"/>
      <point x="598" y="591" type="line"/>
    </contour>
    <contour>
      <point x="592" y="936" type="line"/>
      <point x="466" y="936" type="line"/>
      <point x="363" y="790" type="line"/>
      <point x="446" y="790" type="line"/>
    </contour>
  </outline>
</glyph>
<glyph name="Ecircumflex" format="1">
  <advance width="547"/>
  <unicode hex="00CA"/>
  <outline>
    <contour>
      <point x="620" y="718" type="line"/>
      <point x="187" y="718" type="line"/>
      <point x="62" y="0" type="line"/>
      <point x="509" y="0" type="line"/>
      <point x="531" y="127" type="line"/>
      <point x="205" y="127" type="line"/>
      <point x="237" y="313" type="line"/>
      <point x="524" y="313" type="line"/>
      <point x="546" y="440" type="line"/>
      <point x="259" y="440" type="line"/>
      <point x="285" y="591" type="line"/>
      <point x="598" y="591" type="line"/>
    </contour>
    <contour>
      <point x="489" y="936" type="line"/>
      <point x="386" y="936" type="line"/>
      <point x="267" y="790" type="line"/>
      <point x="360" y="790" type="line"/>
      <point x="426" y="872" type="line"/>
      <point x="464" y="790" type="line"/>
      <point x="557" y="790" type="line"/>
    </contour>
  </outline>
</glyph>
<glyph name="Iacute" format="1">
  <advance width="228"/>
  <unicode hex="00CD"/>
  <outline>
    <contour>
      <point x="301" y="718" type="line"/>
      <point x="178" y="718" type="line"/>
      <point x="52" y="0" type="line"/>
      <point x="175" y="0" type="line"/>
    </contour>
    <contour>
      <point x="433" y="936" type="line"/>
      <point x="307" y="936" type="line"/>
      <point x="204" y="790" type="line"/>
      <point x="287" y="790" type="line"/>
    </contour>
  </outline>
</glyph>
<glyph name="Icircumflex" format="1">
  <advance width="228"/>
  <unicode hex="00CE"/>
  <outline>
    <contour>
      <point x="301" y="718" type="line"/>
      <point x="178" y="718" type="line"/>
      <point x="52" y="0" type="line"/>
      <point x="175" y="0" type="line"/>
    </contour>
    <contour>
      <point x="329" y="936" type="line"/>
      <point x="226" y="936" type="line"/>
      <point x="107" y="790" type="line"/>
      <point x="200" y="790" type="line"/>
      <point x="266" y="872" type="line"/>
      <point x="304" y="790" type="line"/>
      <point x="397" y="790" type="line"/>
    </contour>
  </outline>
</glyph>
<glyph name="Idieresis" format="1">
  <advance width="228"/>
  <unicode hex="00CF"/>
  <outline>
    <contour>
      <point x="300" y="718" type="line"/>
      <point x="177" y="718" type="line"/>
      <point x="52" y="0" type="line"/>
      <point x="175" y="0" type="line"/>
    </contour>
    <contour>
      <point x="245" y="915" type="line"/>
      <point x="142" y="915" type="line"/>
      <point x="122" y="800" type="line"/>
      <point x="225" y="800" type="line"/>
    </contour>
    <contour>
      <point x="405" y="915" type="line"/>
      <point x="302" y="915" type="line"/>
      <point x="282" y="800" type="line"/>
      <point x="385" y="800" type="line"/>
    </contour>
  </outline>
</glyph>
<glyph name="Eth" format="1">
  <advance width="592"/>
  <unicode hex="00D0"/>
  <outline>
    <contour>
      <point x="117" y="316" type="line"/>
      <point x="62" y="0" type="line"/>
      <point x="318" y="0" type="line" smooth="yes"/>
      <point x="399" y="0"/>
      <point x="467" y="37"/>
      <point x="524" y="114" type="curve" smooth="yes"/>
      <point x="593" y="206"/>
      <point x="637" y="352"/>
      <point x="637" y="485" type="curve" smooth="yes"/>
      <point x="637" y="561"/>
      <point x="615" y="633"/>
      <point x="581" y="668" type="curve" smooth="yes"/>
      <point x="551" y="700"/>
      <point x="502" y="718"/>
      <point x="448" y="718" type="curve" smooth="yes"/>
      <point x="188" y="718" type="line"/>
      <point x="139" y="440" type="line"/>
      <point x="73" y="440" type="line"/>
      <point x="51" y="316" type="line"/>
    </contour>
    <contour>
      <point x="287" y="594" type="line"/>
      <point x="405" y="594" type="line" smooth="yes"/>
      <point x="476" y="594"/>
      <point x="509" y="552"/>
      <point x="509" y="462" type="curve" smooth="yes"/>
      <point x="509" y="380"/>
      <point x="488" y="287"/>
      <point x="455" y="223" type="curve" smooth="yes"/>
      <point x="421" y="158"/>
      <point x="377" y="124"/>
      <point x="324" y="124" type="curve" smooth="yes"/>
      <point x="205" y="124" type="line"/>
      <point x="238" y="316" type="line"/>
      <point x="374" y="316" type="line"/>
      <point x="396" y="440" type="line"/>
      <point x="260" y="440" type="line"/>
    </contour>
  </outline>
</glyph>
<glyph name="Ntilde" format="1">
  <advance width="592"/>
  <unicode hex="00D1"/>
  <outline>
    <contour>
      <point x="459" y="214" type="line"/>
      <point x="311" y="718" type="line"/>
      <point x="182" y="718" type="line"/>
      <point x="57" y="0" type="line"/>
      <point x="172" y="0" type="line"/>
      <point x="261" y="515" type="line"/>
      <point x="413" y="0" type="line"/>
      <point x="536" y="0" type="line"/>
      <point x="661" y="718" type="line"/>
      <point x="546" y="718" type="line"/>
    </contour>
    <contour>
      <point x="555" y="923" type="line"/>
      <point x="544" y="895"/>
      <point x="530" y="883"/>
      <point x="509" y="883" type="curve" smooth="yes"/>
      <point x="498" y="883"/>
      <point x="488" y="887"/>
      <point x="461" y="900" type="curve" smooth="yes"/>
      <point x="429" y="916"/>
      <point x="421" y="919"/>
      <point x="405" y="919" type="curve" smooth="yes"/>
      <point x="352" y="919"/>
      <point x="315" y="881"/>
      <point x="285" y="796" type="curve"/>
      <point x="337" y="796" type="line"/>
      <point x="348" y="824"/>
      <point x="364" y="839"/>
      <point x="383" y="839" type="curve" smooth="yes"/>
      <point x="391" y="839"/>
      <point x="401" y="836"/>
      <point x="419" y="828" type="curve" smooth="yes"/>
      <point x="453" y="812"/>
      <point x="481" y="803"/>
      <point x="498" y="803" type="curve" smooth="yes"/>
      <point x="544" y="803"/>
      <point x="581" y="843"/>
      <point x="608" y="923" type="curve"/>
    </contour>
  </outline>
</glyph>
<glyph name="Otilde" format="1">
  <advance width="638"/>
  <unicode hex="00D5"/>
  <outline>
    <contour>
      <point x="449" y="737" type="curve" smooth="yes"/>
      <point x="353" y="737"/>
      <point x="260" y="688"/>
      <point x="196" y="604" type="curve" smooth="yes"/>
      <point x="133" y="522"/>
      <point x="88" y="372"/>
      <point x="88" y="245" type="curve" smooth="yes"/>
      <point x="88" y="82"/>
      <point x="175" y="-19"/>
      <point x="315" y="-19" type="curve" smooth="yes"/>
      <point x="411" y="-19"/>
      <point x="504" y="30"/>
      <point x="568" y="114" type="curve" smooth="yes"/>
      <point x="632" y="198"/>
      <point x="675" y="342"/>
      <point x="675" y="474" type="curve" smooth="yes"/>
      <point x="675" y="557"/>
      <point x="651" y="631"/>
      <point x="610" y="672" type="curve" smooth="yes"/>
      <point x="568" y="714"/>
      <point x="511" y="737"/>
    </contour>
    <contour>
      <point x="426" y="610" type="curve" smooth="yes"/>
      <point x="503" y="610"/>
      <point x="550" y="548"/>
      <point x="550" y="447" type="curve" smooth="yes"/>
      <point x="550" y="257"/>
      <point x="457" y="108"/>
      <point x="339" y="108" type="curve" smooth="yes"/>
      <point x="261" y="108"/>
      <point x="214" y="169"/>
      <point x="214" y="271" type="curve" smooth="yes"/>
      <point x="214" y="348"/>
      <point x="233" y="432"/>
      <point x="264" y="493" type="curve" smooth="yes"/>
      <point x="301" y="567"/>
      <point x="362" y="610"/>
    </contour>
    <contour>
      <point x="578" y="923" type="line"/>
      <point x="567" y="895"/>
      <point x="553" y="883"/>
      <point x="532" y="883" type="curve" smooth="yes"/>
      <point x="521" y="883"/>
      <point x="511" y="887"/>
      <point x="484" y="900" type="curve" smooth="yes"/>
      <point x="452" y="916"/>
      <point x="444" y="919"/>
      <point x="428" y="919" type="curve" smooth="yes"/>
      <point x="375" y="919"/>
      <point x="338" y="881"/>
      <point x="308" y="796" type="curve"/>
      <point x="360" y="796" type="line"/>
      <point x="371" y="824"/>
      <point x="387" y="839"/>
      <point x="406" y="839" type="curve" smooth="yes"/>
      <point x="414" y="839"/>
      <point x="424" y="836"/>
      <point x="442" y="828" type="curve" smooth="yes"/>
      <point x="476" y="812"/>
      <point x="504" y="803"/>
      <point x="521" y="803" type="curve" smooth="yes"/>
      <point x="567" y="803"/>
      <point x="604" y="843"/>
      <point x="631" y="923" type="curve"/>
    </contour>
  </outline>
</glyph>
<glyph name="multiply" format="1">
  <advance width="479"/>
  <unicode hex="00D7"/>
  <outline>
    <contour>
      <point x="219" y="253" type="line"/>
      <point x="47" y="80" type="line"/>
      <point x="99" y="1" type="line"/>
      <point x="270" y="174" type="line"/>
      <point x="381" y="1" type="line"/>
      <point x="461" y="80" type="line"/>
      <point x="348" y="253" type="line"/>
      <point x="520" y="426" type="line"/>
      <point x="469" y="505" type="line"/>
      <point x="297" y="332" type="line"/>
      <point x="186" y="505" type="line"/>
      <point x="107" y="426" type="line"/>
    </contour>
  </outline>
</glyph>
<glyph name="Oslash" format="1">
  <advance width="638"/>
  <unicode hex="00D8"/>
  <outline>
    <contour>
      <point x="733" y="707" type="line"/>
      <point x="705" y="745" type="line"/>
      <point x="623" y="656" type="line"/>
      <point x="594" y="688"/>
      <point x="579" y="700"/>
      <point x="552" y="713" type="curve" smooth="yes"/>
      <point x="520" y="729"/>
      <point x="483" y="737"/>
      <point x="446" y="737" type="curve" smooth="yes"/>
      <point x="353" y="737"/>
      <point x="259" y="688"/>
      <point x="196" y="604" type="curve" smooth="yes"/>
      <point x="133" y="522"/>
      <point x="88" y="373"/>
      <point x="88" y="246" type="curve" smooth="yes"/>
      <point x="88" y="189"/>
      <point x="95" y="154"/>
      <point x="115" y="104" type="curve"/>
      <point x="29" y="11" type="line"/>
      <point x="57" y="-27" type="line"/>
      <point x="140" y="63" type="line"/>
      <point x="167" y="31"/>
      <point x="182" y="19"/>
      <point x="208" y="6" type="curve" smooth="yes"/>
      <point x="241" y="-11"/>
      <point x="278" y="-19"/>
      <point x="316" y="-19" type="curve" smooth="yes"/>
      <point x="410" y="-19"/>
      <point x="503" y="30"/>
      <point x="567" y="114" type="curve" smooth="yes"/>
      <point x="630" y="197"/>
      <point x="675" y="346"/>
      <point x="675" y="473" type="curve" smooth="yes"/>
      <point x="675" y="530"/>
      <point x="669" y="563"/>
      <point x="648" y="615" type="curve"/>
    </contour>
    <contour>
      <point x="219" y="218" type="line"/>
      <point x="215" y="242"/>
      <point x="214" y="253"/>
      <point x="214" y="274" type="curve" smooth="yes"/>
      <point x="214" y="344"/>
      <point x="234" y="429"/>
      <point x="264" y="493" type="curve" smooth="yes"/>
      <point x="299" y="564"/>
      <point x="362" y="610"/>
      <point x="425" y="610" type="curve" smooth="yes"/>
      <point x="469" y="610"/>
      <point x="499" y="593"/>
      <point x="526" y="551" type="curve"/>
    </contour>
    <contour>
      <point x="543" y="501" type="line"/>
      <point x="548" y="477"/>
      <point x="549" y="467"/>
      <point x="549" y="444" type="curve" smooth="yes"/>
      <point x="549" y="373"/>
      <point x="530" y="289"/>
      <point x="498" y="224" type="curve" smooth="yes"/>
      <point x="464" y="153"/>
      <point x="401" y="108"/>
      <point x="337" y="108" type="curve" smooth="yes"/>
      <point x="293" y="108"/>
      <point x="262" y="126"/>
      <point x="236" y="168" type="curve"/>
    </contour>
  </outline>
</glyph>
<glyph name="Ugrave" format="1">
  <advance width="592"/>
  <unicode hex="00D9"/>
  <outline>
    <contour>
      <point x="659" y="718" type="line"/>
      <point x="534" y="718" type="line"/>
      <point x="451" y="245" type="line" smooth="yes"/>
      <point x="436" y="155"/>
      <point x="388" y="108"/>
      <point x="314" y="108" type="curve" smooth="yes"/>
      <point x="256" y="108"/>
      <point x="225" y="142"/>
      <point x="225" y="208" type="curve" smooth="yes"/>
      <point x="225" y="220"/>
      <point x="227" y="237"/>
      <point x="229" y="252" type="curve" smooth="yes"/>
      <point x="310" y="718" type="line"/>
      <point x="185" y="718" type="line"/>
      <point x="102" y="242" type="line" smooth="yes"/>
      <point x="98" y="218"/>
      <point x="96" y="194"/>
      <point x="96" y="169" type="curve" smooth="yes"/>
      <point x="96" y="49"/>
      <point x="167" y="-19"/>
      <point x="294" y="-19" type="curve" smooth="yes"/>
      <point x="448" y="-19"/>
      <point x="547" y="76"/>
      <point x="578" y="251" type="curve" smooth="yes"/>
    </contour>
    <contour>
      <point x="400" y="790" type="line"/>
      <point x="483" y="790" type="line"/>
      <point x="431" y="936" type="line"/>
      <point x="305" y="936" type="line"/>
    </contour>
  </outline>
</glyph>
<glyph name="Thorn" format="1">
  <advance width="547"/>
  <unicode hex="00DE"/>
  <outline>
    <contour>
      <point x="62" y="0" type="line"/>
      <point x="185" y="0" type="line"/>
      <point x="213" y="159" type="line"/>
      <point x="354" y="159" type="line" smooth="yes"/>
      <point x="421" y="159"/>
      <point x="476" y="188"/>
      <point x="520" y="245" type="curve" smooth="yes"/>
      <point x="562" y="301"/>
      <point x="588" y="378"/>
      <point x="588" y="451" type="curve" smooth="yes"/>
      <point x="588" y="558"/>
      <point x="533" y="620"/>
      <point x="439" y="620" type="curve" smooth="yes"/>
      <point x="293" y="620" type="line"/>
      <point x="310" y="718" type="line"/>
      <point x="187" y="718" type="line"/>
    </contour>
    <contour>
      <point x="234" y="283" type="line"/>
      <point x="272" y="496" type="line"/>
      <point x="369" y="496" type="line" smooth="yes"/>
      <point x="433" y="496"/>
      <point x="463" y="474"/>
      <point x="463" y="425" type="curve" smooth="yes"/>
      <point x="463" y="396"/>
      <point x="455" y="360"/>
      <point x="443" y="337" type="curve" smooth="yes"/>
      <point x="424" y="301"/>
      <point x="393" y="283"/>
      <point x="349" y="283" type="curve" smooth="yes"/>
    </contour>
  </outline>
</glyph>
<glyph name="germandbls" format="1">
  <advance width="501"/>
  <unicode hex="00DF"/>
  <outline>
    <contour>
      <point x="228" y="-8" type="line"/>
      <point x="252" y="-13"/>
      <point x="260" y="-14"/>
      <point x="274" y="-14" type="curve" smooth="yes"/>
      <point x="345" y="-14"/>
      <point x="407" y="17"/>
      <point x="451" y="76" type="curve" smooth="yes"/>
      <point x="491" y="128"/>
      <point x="520" y="216"/>
      <point x="520" y="285" type="curve" smooth="yes"/>
      <point x="520" y="344"/>
      <point x="502" y="377"/>
      <point x="453" y="411" type="curve"/>
      <point x="509" y="445"/>
      <point x="539" y="506"/>
      <point x="539" y="585" type="curve" smooth="yes"/>
      <point x="539" y="679"/>
      <point x="481" y="731"/>
      <point x="377" y="731" type="curve" smooth="yes"/>
      <point x="259" y="731"/>
      <point x="171" y="656"/>
      <point x="151" y="539" type="curve" smooth="yes"/>
      <point x="57" y="0" type="line"/>
      <point x="172" y="0" type="line"/>
      <point x="264" y="530" type="line" smooth="yes"/>
      <point x="273" y="585"/>
      <point x="308" y="619"/>
      <point x="354" y="619" type="curve" smooth="yes"/>
      <point x="396" y="619"/>
      <point x="421" y="596"/>
      <point x="421" y="556" type="curve" smooth="yes"/>
      <point x="421" y="522"/>
      <point x="409" y="487"/>
      <point x="392" y="469" type="curve" smooth="yes"/>
      <point x="376" y="452"/>
      <point x="357" y="446"/>
      <point x="312" y="444" type="curve"/>
      <point x="295" y="347" type="line"/>
      <point x="375" y="340"/>
      <point x="402" y="318"/>
      <point x="402" y="260" type="curve" smooth="yes"/>
      <point x="402" y="223"/>
      <point x="390" y="178"/>
      <point x="373" y="152" type="curve" smooth="yes"/>
      <point x="350" y="118"/>
      <point x="316" y="101"/>
      <point x="271" y="101" type="curve" smooth="yes"/>
      <point x="264" y="101"/>
      <point x="254" y="101"/>
      <point x="250" y="102" type="curve"/>
      <point x="247" y="102" type="line"/>
    </contour>
  </outline>
</glyph>
<glyph name="acircumflex" format="1">
  <advance width="456"/>
  <unicode hex="00E2"/>
  <outline>
    <contour>
      <point x="211" y="360" type="line"/>
      <point x="227" y="414"/>
      <point x="251" y="434"/>
      <point x="299" y="434" type="curve" smooth="yes"/>
      <point x="341" y="434"/>
      <point x="361" y="419"/>
      <point x="361" y="387" type="curve" smooth="yes"/>
      <point x="361" y="354"/>
      <point x="345" y="336"/>
      <point x="312" y="330" type="curve" smooth="yes"/>
      <point x="205" y="311" type="line" smooth="yes"/>
      <point x="109" y="294"/>
      <point x="45" y="210"/>
      <point x="45" y="101" type="curve" smooth="yes"/>
      <point x="45" y="29"/>
      <point x="87" y="-14"/>
      <point x="157" y="-14" type="curve" smooth="yes"/>
      <point x="213" y="-14"/>
      <point x="254" y="7"/>
      <point x="309" y="63" type="curve"/>
      <point x="307" y="44"/>
      <point x="307" y="37"/>
      <point x="307" y="29" type="curve" smooth="yes"/>
      <point x="307" y="22"/>
      <point x="307" y="16"/>
      <point x="308" y="0" type="curve"/>
      <point x="432" y="0" type="line"/>
      <point x="436" y="21" type="line"/>
      <point x="425" y="27"/>
      <point x="420" y="37"/>
      <point x="420" y="55" type="curve" smooth="yes"/>
      <point x="420" y="69"/>
      <point x="422" y="85"/>
      <point x="425" y="104" type="curve" smooth="yes"/>
      <point x="475" y="392" type="line" smooth="yes"/>
      <point x="477" y="403"/>
      <point x="478" y="414"/>
      <point x="478" y="425" type="curve" smooth="yes"/>
      <point x="478" y="502"/>
      <point x="422" y="546"/>
      <point x="323" y="546" type="curve" smooth="yes"/>
      <point x="248" y="546"/>
      <point x="194" y="524"/>
      <point x="156" y="478" type="curve" smooth="yes"/>
      <point x="131" y="448"/>
      <point x="118" y="419"/>
      <point x="101" y="360" type="curve"/>
    </contour>
    <contour>
      <point x="328" y="191" type="line" smooth="yes"/>
      <point x="318" y="133"/>
      <point x="264" y="86"/>
      <point x="208" y="86" type="curve" smooth="yes"/>
      <point x="180" y="86"/>
      <point x="163" y="104"/>
      <point x="163" y="133" type="curve" smooth="yes"/>
      <point x="163" y="188"/>
      <point x="191" y="216"/>
      <point x="257" y="230" type="curve" smooth="yes"/>
      <point x="304" y="239"/>
      <point x="322" y="246"/>
      <point x="340" y="259" type="curve"/>
    </contour>
    <contour>
      <point x="410" y="750" type="line"/>
      <point x="307" y="750" type="line"/>
      <point x="188" y="604" type="line"/>
      <point x="281" y="604" type="line"/>
      <point x="347" y="686" type="line"/>
      <point x="385" y="604" type="line"/>
      <point x="478" y="604" type="line"/>
    </contour>
  </outline>
</glyph>
<glyph name="atilde" format="1">
  <advance width="456"/>
  <unicode hex="00E3"/>
  <outline>
    <contour>
      <point x="211" y="360" type="line"/>
      <point x="227" y="414"/>
      <point x="251" y="434"/>
      <point x="299" y="434" type="curve" smooth="yes"/>
      <point x="341" y="434"/>
      <point x="361" y="419"/>
      <point x="361" y="387" type="curve" smooth="yes"/>
      <point x="361" y="354"/>
      <point x="345" y="336"/>
      <point x="312" y="330" type="curve" smooth="yes"/>
      <point x="205" y="311" type="line" smooth="yes"/>
      <point x="109" y="294"/>
      <point x="45" y="210"/>
      <point x="45" y="101" type="curve" smooth="yes"/>
      <point x="45" y="29"/>
      <point x="87" y="-14"/>
      <point x="157" y="-14" type="curve" smooth="yes"/>
      <point x="213" y="-14"/>
      <point x="254" y="7"/>
      <point x="309" y="63" type="curve"/>
      <point x="307" y="44"/>
      <point x="307" y="37"/>
      <point x="307" y="29" type="curve" smooth="yes"/>
      <point x="307" y="22"/>
      <point x="307" y="16"/>
      <point x="308" y="0" type="curve"/>
      <point x="432" y="0" type="line"/>
      <point x="436" y="21" type="line"/>
      <point x="425" y="27"/>
      <point x="420" y="37"/>
      <point x="420" y="55" type="curve" smooth="yes"/>
      <point x="420" y="69"/>
      <point x="422" y="85"/>
      <point x="425" y="104" type="curve" smooth="yes"/>
      <point x="475" y="392" type="line" smooth="yes"/>
      <point x="477" y="403"/>
      <point x="478" y="414"/>
      <point x="478" y="425" type="curve" smooth="yes"/>
      <point x="478" y="502"/>
      <point x="422" y="546"/>
      <point x="323" y="546" type="curve" smooth="yes"/>
      <point x="248" y="546"/>
      <point x="194" y="524"/>
      <point x="156" y="478" type="curve" smooth="yes"/>
      <point x="131" y="448"/>
      <point x="118" y="419"/>
      <point x="101" y="360" type="curve"/>
    </contour>
    <contour>
      <point x="328" y="191" type="line" smooth="yes"/>
      <point x="318" y="133"/>
      <point x="264" y="86"/>
      <point x="208" y="86" type="curve" smooth="yes"/>
      <point x="180" y="86"/>
      <point x="163" y="104"/>
      <point x="163" y="133" type="curve" smooth="yes"/>
      <point x="163" y="188"/>
      <point x="191" y="216"/>
      <point x="257" y="230" type="curve" smooth="yes"/>
      <point x="304" y="239"/>
      <point x="322" y="246"/>
      <point x="340" y="259" type="curve"/>
    </contour>
    <contour>
      <point x="454" y="737" type="line"/>
      <point x="443" y="709"/>
      <point x="429" y="697"/>
      <point x="408" y="697" type="curve" smooth="yes"/>
      <point x="397" y="697"/>
      <point x="387" y="701"/>
      <point x="360" y="714" type="curve" smooth="yes"/>
      <point x="328" y="730"/>
      <point x="320" y="733"/>
      <point x="304" y="733" type="curve" smooth="yes"/>
      <point x="251" y="733"/>
      <point x="214" y="695"/>
      <point x="184" y="610" type="curve"/>
      <point x="236" y="610" type="line"/>
      <point x="247" y="638"/>
      <point x="263" y="653"/>
      <point x="282" y="653" type="curve" smooth="yes"/>
      <point x="290" y="653"/>
      <point x="300" y="650"/>
      <point x="318" y="642" type="curve" smooth="yes"/>
      <point x="352" y="626"/>
      <point x="380" y="617"/>
      <point x="397" y="617" type="curve" smooth="yes"/>
      <point x="443" y="617"/>
      <point x="480" y="657"/>
      <point x="507" y="737" type="curve"/>
    </contour>
  </outline>
</glyph>
<glyph name="ccedilla" format="1">
  <advance width="456"/>
  <unicode hex="00E7"/>
  <outline>
    <contour>
      <point x="234" y="-14" type="line"/>
      <point x="341" y="-12"/>
      <point x="427" y="67"/>
      <point x="463" y="194" type="curve"/>
      <point x="346" y="194" type="line"/>
      <point x="332" y="138"/>
      <point x="294" y="101"/>
      <point x="251" y="101" type="curve" smooth="yes"/>
      <point x="209" y="101"/>
      <point x="185" y="133"/>
      <point x="185" y="189" type="curve" smooth="yes"/>
      <point x="185" y="247"/>
      <point x="200" y="320"/>
      <point x="222" y="361" type="curve" smooth="yes"/>
      <point x="245" y="406"/>
      <point x="275" y="428"/>
      <point x="314" y="428" type="curve" smooth="yes"/>
      <point x="355" y="428"/>
      <point x="372" y="402"/>
      <point x="373" y="342" type="curve"/>
      <point x="489" y="342" type="line"/>
      <point x="490" y="358"/>
      <point x="491" y="374"/>
      <point x="491" y="385" type="curve" smooth="yes"/>
      <point x="491" y="483"/>
      <point x="427" y="546"/>
      <point x="329" y="546" type="curve" smooth="yes"/>
      <point x="258" y="546"/>
      <point x="196" y="514"/>
      <point x="150" y="453" type="curve" smooth="yes"/>
      <point x="99" y="386"/>
      <point x="65" y="272"/>
      <point x="65" y="170" type="curve" smooth="yes"/>
      <point x="65" y="91"/>
      <point x="92" y="32"/>
      <point x="140" y="6" type="curve" smooth="yes"/>
      <point x="154" y="-2"/>
      <point x="169" y="-7"/>
      <point x="188" y="-11" type="curve"/>
      <point x="136" y="-84" type="line"/>
      <point x="150" y="-104" type="line"/>
      <point x="165" y="-99"/>
      <point x="176" y="-96"/>
      <point x="184" y="-96" type="curve" smooth="yes"/>
      <point x="199" y="-96"/>
      <point x="210" y="-108"/>
      <point x="210" y="-124" type="curve" smooth="yes"/>
      <point x="210" y="-149"/>
      <point x="188" y="-171"/>
      <point x="163" y="-171" type="curve" smooth="yes"/>
      <point x="151" y="-171"/>
      <point x="133" y="-166"/>
      <point x="104" y="-155" type="curve"/>
      <point x="78" y="-203" type="line"/>
      <point x="119" y="-223"/>
      <point x="138" y="-228"/>
      <point x="165" y="-228" type="curve" smooth="yes"/>
      <point x="233" y="-228"/>
      <point x="288" y="-176"/>
      <point x="288" y="-111" type="curve" smooth="yes"/>
      <point x="288" y="-76"/>
      <point x="264" y="-51"/>
      <point x="228" y="-51" type="curve" smooth="yes"/>
      <point x="221" y="-51"/>
      <point x="214" y="-52"/>
      <point x="204" y="-55" type="curve"/>
    </contour>
  </outline>
</glyph>
<glyph name="igrave" format="1">
  <advance width="228"/>
  <unicode hex="00EC"/>
  <outline>
    <contour>
      <point x="150" y="532" type="line"/>
      <point x="57" y="0" type="line"/>
      <point x="171" y="0" type="line"/>
      <point x="264" y="532" type="line"/>
    </contour>
    <contour>
      <point x="185" y="604" type="line"/>
      <point x="268" y="604" type="line"/>
      <point x="216" y="750" type="line"/>
      <point x="90" y="750" type="line"/>
    </contour>
  </outline>
</glyph>
<glyph name="icircumflex" format="1">
  <advance width="228"/>
  <unicode hex="00EE"/>
  <outline>
    <contour>
      <point x="150" y="532" type="line"/>
      <point x="57" y="0" type="line"/>
      <point x="171" y="0" type="line"/>
      <point x="264" y="532" type="line"/>
    </contour>
    <contour>
      <point x="297" y="750" type="line"/>
      <point x="194" y="750" type="line"/>
      <point x="75" y="604" type="line"/>
      <point x="168" y="604" type="line"/>
      <point x="234" y="686" type="line"/>
      <point x="272" y="604" type="line"/>
      <point x="365" y="604" type="line"/>
    </contour>
  </outline>
</glyph>
<glyph name="idieresis" format="1">
  <advance width="228"/>
  <unicode hex="00EF"/>
  <outline>
    <contour>
      <point x="150" y="532" type="line"/>
      <point x="57" y="0" type="line"/>
      <point x="172" y="0" type="line"/>
      <point x="264" y="532" type="line"/>
    </contour>
    <contour>
      <point x="213" y="729" type="line"/>
      <point x="110" y="729" type="line"/>
      <point x="90" y="614" type="line"/>
      <point x="193" y="614" type="line"/>
    </contour>
    <contour>
      <point x="373" y="729" type="line"/>
      <point x="270" y="729" type="line"/>
      <point x="250" y="614" type="line"/>
      <point x="353" y="614" type="line"/>
    </contour>
  </outline>
</glyph>
<glyph name="eth" format="1">
  <advance width="501"/>
  <unicode hex="00F0"/>
  <outline>
    <contour>
      <point x="549" y="685" type="line"/>
      <point x="507" y="737" type="line"/>
      <point x="416" y="693" type="line"/>
      <point x="397" y="712"/>
      <point x="381" y="724"/>
      <point x="359" y="737" type="curve"/>
      <point x="262" y="688" type="line"/>
      <point x="277" y="678"/>
      <point x="293" y="664"/>
      <point x="314" y="643" type="curve"/>
      <point x="217" y="596" type="line"/>
      <point x="260" y="544" type="line"/>
      <point x="356" y="591" type="line"/>
      <point x="390" y="545"/>
      <point x="406" y="510"/>
      <point x="417" y="460" type="curve"/>
      <point x="393" y="506"/>
      <point x="365" y="523"/>
      <point x="319" y="523" type="curve" smooth="yes"/>
      <point x="182" y="523"/>
      <point x="67" y="371"/>
      <point x="67" y="189" type="curve" smooth="yes"/>
      <point x="67" y="64"/>
      <point x="136" y="-14"/>
      <point x="248" y="-14" type="curve" smooth="yes"/>
      <point x="323" y="-14"/>
      <point x="392" y="23"/>
      <point x="444" y="91" type="curve" smooth="yes"/>
      <point x="499" y="163"/>
      <point x="534" y="279"/>
      <point x="534" y="388" type="curve" smooth="yes"/>
      <point x="534" y="484"/>
      <point x="513" y="554"/>
      <point x="459" y="641" type="curve"/>
    </contour>
    <contour>
      <point x="323" y="405" type="curve" smooth="yes"/>
      <point x="374" y="405"/>
      <point x="405" y="366"/>
      <point x="405" y="301" type="curve" smooth="yes"/>
      <point x="405" y="262"/>
      <point x="393" y="216"/>
      <point x="374" y="177" type="curve" smooth="yes"/>
      <point x="349" y="130"/>
      <point x="313" y="104"/>
      <point x="270" y="104" type="curve" smooth="yes"/>
      <point x="216" y="104"/>
      <point x="186" y="142"/>
      <point x="186" y="210" type="curve" smooth="yes"/>
      <point x="186" y="318"/>
      <point x="247" y="405"/>
    </contour>
  </outline>
</glyph>
<glyph name="ntilde" format="1">
  <advance width="501"/>
  <unicode hex="00F1"/>
  <outline>
    <contour>
      <point x="256" y="532" type="line"/>
      <point x="146" y="532" type="line"/>
      <point x="53" y="0" type="line"/>
      <point x="168" y="0" type="line"/>
      <point x="221" y="305" type="line" smooth="yes"/>
      <point x="234" y="381"/>
      <point x="278" y="428"/>
      <point x="334" y="428" type="curve" smooth="yes"/>
      <point x="372" y="428"/>
      <point x="394" y="406"/>
      <point x="394" y="368" type="curve" smooth="yes"/>
      <point x="394" y="358"/>
      <point x="392" y="341"/>
      <point x="389" y="323" type="curve" smooth="yes"/>
      <point x="333" y="0" type="line"/>
      <point x="448" y="0" type="line"/>
      <point x="512" y="368" type="line" smooth="yes"/>
      <point x="515" y="384"/>
      <point x="516" y="399"/>
      <point x="516" y="413" type="curve" smooth="yes"/>
      <point x="516" y="496"/>
      <point x="469" y="546"/>
      <point x="391" y="546" type="curve" smooth="yes"/>
      <point x="330" y="546"/>
      <point x="288" y="519"/>
      <point x="242" y="451" type="curve"/>
    </contour>
    <contour>
      <point x="476" y="737" type="line"/>
      <point x="465" y="709"/>
      <point x="451" y="697"/>
      <point x="430" y="697" type="curve" smooth="yes"/>
      <point x="419" y="697"/>
      <point x="409" y="701"/>
      <point x="382" y="714" type="curve" smooth="yes"/>
      <point x="350" y="730"/>
      <point x="342" y="733"/>
      <point x="326" y="733" type="curve" smooth="yes"/>
      <point x="273" y="733"/>
      <point x="236" y="695"/>
      <point x="206" y="610" type="curve"/>
      <point x="258" y="610" type="line"/>
      <point x="269" y="638"/>
      <point x="285" y="653"/>
      <point x="304" y="653" type="curve" smooth="yes"/>
      <point x="312" y="653"/>
      <point x="322" y="650"/>
      <point x="340" y="642" type="curve" smooth="yes"/>
      <point x="374" y="626"/>
      <point x="402" y="617"/>
      <point x="419" y="617" type="curve" smooth="yes"/>
      <point x="465" y="617"/>
      <point x="502" y="657"/>
      <point x="529" y="737" type="curve"/>
    </contour>
  </outline>
</glyph>
<glyph name="divide" format="1">
  <advance width="479"/>
  <unicode hex="00F7"/>
  <outline>
    <contour>
      <point x="480" y="197" type="line"/>
      <point x="500" y="309" type="line"/>
      <point x="87" y="309" type="line"/>
      <point x="67" y="197" type="line"/>
    </contour>
    <contour>
      <point x="336" y="548" type="curve" smooth="yes"/>
      <point x="290" y="548"/>
      <point x="246" y="496"/>
      <point x="246" y="441" type="curve" smooth="yes"/>
      <point x="246" y="401"/>
      <point x="272" y="371"/>
      <point x="305" y="371" type="curve" smooth="yes"/>
      <point x="348" y="371"/>
      <point x="394" y="425"/>
      <point x="394" y="476" type="curve" smooth="yes"/>
      <point x="394" y="517"/>
      <point x="369" y="548"/>
    </contour>
    <contour>
      <point x="264" y="135" type="curve" smooth="yes"/>
      <point x="218" y="135"/>
      <point x="174" y="83"/>
      <point x="174" y="28" type="curve" smooth="yes"/>
      <point x="174" y="-11"/>
      <point x="200" y="-42"/>
      <point x="233" y="-42" type="curve" smooth="yes"/>
      <point x="276" y="-42"/>
      <point x="322" y="12"/>
      <point x="322" y="63" type="curve" smooth="yes"/>
      <point x="322" y="104"/>
      <point x="297" y="135"/>
    </contour>
  </outline>
</glyph>
<glyph name="oslash" format="1">
  <advance width="501"/>
  <unicode hex="00F8"/>
  <outline>
    <contour>
      <point x="575" y="528" type="line"/>
      <point x="552" y="560" type="line"/>
      <point x="483" y="487" type="line"/>
      <point x="443" y="529"/>
      <point x="403" y="546"/>
      <point x="346" y="546" type="curve" smooth="yes"/>
      <point x="269" y="546"/>
      <point x="198" y="509"/>
      <point x="146" y="442" type="curve" smooth="yes"/>
      <point x="99" y="381"/>
      <point x="67" y="279"/>
      <point x="67" y="191" type="curve" smooth="yes"/>
      <point x="67" y="147"/>
      <point x="73" y="118"/>
      <point x="91" y="77" type="curve"/>
      <point x="18" y="0" type="line"/>
      <point x="44" y="-29" type="line"/>
      <point x="113" y="44" type="line"/>
      <point x="151" y="3"/>
      <point x="191" y="-14"/>
      <point x="248" y="-14" type="curve" smooth="yes"/>
      <point x="325" y="-14"/>
      <point x="397" y="23"/>
      <point x="448" y="90" type="curve" smooth="yes"/>
      <point x="495" y="152"/>
      <point x="527" y="253"/>
      <point x="527" y="341" type="curve" smooth="yes"/>
      <point x="527" y="386"/>
      <point x="521" y="413"/>
      <point x="504" y="454" type="curve"/>
    </contour>
    <contour>
      <point x="406" y="351" type="line"/>
      <point x="407" y="337"/>
      <point x="407" y="331"/>
      <point x="407" y="322" type="curve" smooth="yes"/>
      <point x="407" y="285"/>
      <point x="397" y="234"/>
      <point x="383" y="197" type="curve" smooth="yes"/>
      <point x="358" y="135"/>
      <point x="320" y="104"/>
      <point x="268" y="104" type="curve" smooth="yes"/>
      <point x="237" y="104"/>
      <point x="218" y="114"/>
      <point x="203" y="138" type="curve"/>
    </contour>
    <contour>
      <point x="189" y="179" type="line"/>
      <point x="188" y="194"/>
      <point x="187" y="201"/>
      <point x="187" y="210" type="curve" smooth="yes"/>
      <point x="187" y="248"/>
      <point x="197" y="299"/>
      <point x="211" y="335" type="curve" smooth="yes"/>
      <point x="236" y="397"/>
      <point x="274" y="428"/>
      <point x="326" y="428" type="curve" smooth="yes"/>
      <point x="357" y="428"/>
      <point x="376" y="418"/>
      <point x="393" y="393" type="curve"/>
    </contour>
  </outline>
</glyph>
<glyph name="ugrave" format="1">
  <advance width="501"/>
  <unicode hex="00F9"/>
  <outline>
    <contour>
      <point x="540" y="532" type="line"/>
      <point x="425" y="532" type="line"/>
      <point x="371" y="225" type="line" smooth="yes"/>
      <point x="358" y="150"/>
      <point x="316" y="104"/>
      <point x="260" y="104" type="curve" smooth="yes"/>
      <point x="221" y="104"/>
      <point x="201" y="126"/>
      <point x="201" y="168" type="curve" smooth="yes"/>
      <point x="201" y="180"/>
      <point x="202" y="191"/>
      <point x="204" y="202" type="curve" smooth="yes"/>
      <point x="262" y="532" type="line"/>
      <point x="147" y="532" type="line"/>
      <point x="85" y="182" type="line" smooth="yes"/>
      <point x="82" y="161"/>
      <point x="80" y="140"/>
      <point x="80" y="120" type="curve" smooth="yes"/>
      <point x="80" y="34"/>
      <point x="123" y="-14"/>
      <point x="199" y="-14" type="curve" smooth="yes"/>
      <point x="262" y="-14"/>
      <point x="306" y="13"/>
      <point x="351" y="78" type="curve"/>
      <point x="337" y="0" type="line"/>
      <point x="447" y="0" type="line"/>
    </contour>
    <contour>
      <point x="320" y="604" type="line"/>
      <point x="403" y="604" type="line"/>
      <point x="351" y="750" type="line"/>
      <point x="225" y="750" type="line"/>
    </contour>
  </outline>
</glyph>
<glyph name="udieresis" format="1">
  <advance width="501"/>
  <unicode hex="00FC"/>
  <outline>
    <contour>
      <point x="540" y="532" type="line"/>
      <point x="425" y="532" type="line"/>
      <point x="371" y="225" type="line" smooth="yes"/>
      <point x="358" y="150"/>
      <point x="316" y="104"/>
      <point x="260" y="104" type="curve" smooth="yes"/>
      <point x="221" y="104"/>
      <point x="201" y="126"/>
      <point x="201" y="168" type="curve" smooth="yes"/>
      <point x="201" y="180"/>
      <point x="202" y="191"/>
      <point x="204" y="202" type="curve" smooth="yes"/>
      <point x="262" y="532" type="line"/>
      <point x="147" y="532" type="line"/>
      <point x="85" y="182" type="line" smooth="yes"/>
      <point x="82" y="161"/>
      <point x="80" y="140"/>
      <point x="80" y="120" type="curve" smooth="yes"/>
      <point x="80" y="34"/>
      <point x="123" y="-14"/>
      <point x="199" y="-14" type="curve" smooth="yes"/>
      <point x="262" y="-14"/>
      <point x="306" y="13"/>
      <point x="351" y="78" type="curve"/>
      <point x="337" y="0" type="line"/>
      <point x="447" y="0" type="line"/>
    </contour>
    <contour>
      <point x="349" y="729" type="line"/>
      <point x="246" y="729" type="line"/>
      <point x="226" y="614" type="line"/>
      <point x="329" y="614" type="line"/>
    </contour>
    <contour>
      <point x="509" y="729" type="line"/>
      <point x="406" y="729" type="line"/>
      <point x="386" y="614" type="line"/>
      <point x="489" y="614" type="line"/>
    </contour>
  </outline>
</glyph>
<glyph name="thorn" format="1">
  <advance width="501"/>
  <unicode hex="00FE"/>
  <outline>
    <contour>
      <point x="178" y="71" type="line"/>
      <point x="198" y="10"/>
      <point x="228" y="-14"/>
      <point x="288" y="-14" type="curve" smooth="yes"/>
      <point x="348" y="-14"/>
      <point x="400" y="15"/>
      <point x="443" y="73" type="curve" smooth="yes"/>
      <point x="495" y="143"/>
      <point x="529" y="255"/>
      <point x="529" y="358" type="curve" smooth="yes"/>
      <point x="529" y="474"/>
      <point x="475" y="546"/>
      <point x="387" y="546" type="curve" smooth="yes"/>
      <point x="331" y="546"/>
      <point x="291" y="522"/>
      <point x="246" y="461" type="curve"/>
      <point x="291" y="718" type="line"/>
      <point x="176" y="718" type="line"/>
      <point x="15" y="-207" type="line"/>
      <point x="130" y="-207" type="line"/>
    </contour>
    <contour>
      <point x="332" y="425" type="curve" smooth="yes"/>
      <point x="381" y="425"/>
      <point x="407" y="389"/>
      <point x="407" y="321" type="curve" smooth="yes"/>
      <point x="407" y="272"/>
      <point x="394" y="217"/>
      <point x="373" y="174" type="curve" smooth="yes"/>
      <point x="349" y="126"/>
      <point x="316" y="101"/>
      <point x="278" y="101" type="curve" smooth="yes"/>
      <point x="229" y="101"/>
      <point x="201" y="138"/>
      <point x="201" y="202" type="curve" smooth="yes"/>
      <point x="201" y="252"/>
      <point x="215" y="312"/>
      <point x="237" y="357" type="curve" smooth="yes"/>
      <point x="258" y="401"/>
      <point x="292" y="425"/>
    </contour>
  </outline>
</glyph>
<glyph name="ydieresis" format="1">
  <advance width="456"/>
  <unicode hex="00FF"/>
  <outline>
    <contour>
      <point x="535" y="532" type="line"/>
      <point x="413" y="532" type="line"/>
      <point x="254" y="136" type="line"/>
      <point x="229" y="532" type="line"/>
      <point x="101" y="532" type="line"/>
      <point x="165" y="-22" type="line"/>
      <point x="143" y="-87"/>
      <point x="126" y="-102"/>
      <point x="78" y="-102" type="curve" smooth="yes"/>
      <point x="69" y="-102"/>
      <point x="61" y="-101"/>
      <point x="54" y="-100" type="curve"/>
      <point x="34" y="-212" type="line"/>
      <point x="61" y="-213"/>
      <point x="77" y="-214"/>
      <point x="88" y="-214" type="curve" smooth="yes"/>
      <point x="183" y="-214"/>
      <point x="198" y="-197"/>
      <point x="293" y="9" type="curve" smooth="yes"/>
    </contour>
    <contour>
      <point x="327" y="729" type="line"/>
      <point x="224" y="729" type="line"/>
      <point x="204" y="614" type="line"/>
      <point x="307" y="614" type="line"/>
    </contour>
    <contour>
      <point x="487" y="729" type="line"/>
      <point x="384" y="729" type="line"/>
      <point x="364" y="614" type="line"/>
      <point x="467" y="614" type="line"/>
    </contour>
  </outline>
</glyph>
<glyph name="Amacron" format="1">
  <advance width="592"/>
  <unicode hex="0100"/>
  <outline>
    <contour>
      <point x="213" y="148" type="line"/>
      <point x="430" y="148" type="line"/>
      <point x="442" y="0" type="line"/>
      <point x="576" y="0" type="line"/>
      <point x="494" y="718" type="line"/>
      <point x="352" y="718" type="line"/>
      <point x="16" y="0" type="line"/>
      <point x="146" y="0" type="line"/>
    </contour>
    <contour>
      <point x="394" y="559" type="line"/>
      <point x="417" y="272" type="line"/>
      <point x="267" y="272" type="line"/>
    </contour>
    <contour>
      <point x="588" y="864" type="line"/>
      <point x="305" y="864" type="line"/>
      <point x="292" y="790" type="line"/>
      <point x="575" y="790" type="line"/>
    </contour>
  </outline>
</glyph>
<glyph name="Abreve" format="1">
  <advance width="592"/>
  <unicode hex="0102"/>
  <outline>
    <contour>
      <point x="213" y="148" type="line"/>
      <point x="430" y="148" type="line"/>
      <point x="442" y="0" type="line"/>
      <point x="576" y="0" type="line"/>
      <point x="494" y="718" type="line"/>
      <point x="352" y="718" type="line"/>
      <point x="16" y="0" type="line"/>
      <point x="146" y="0" type="line"/>
    </contour>
    <contour>
      <point x="394" y="559" type="line"/>
      <point x="417" y="272" type="line"/>
      <point x="267" y="272" type="line"/>
    </contour>
    <contour>
      <point x="544" y="936" type="line"/>
      <point x="524" y="883"/>
      <point x="500" y="866"/>
      <point x="447" y="866" type="curve" smooth="yes"/>
      <point x="396" y="866"/>
      <point x="375" y="885"/>
      <point x="375" y="930" type="curve" smooth="yes"/>
      <point x="375" y="936" type="line"/>
      <point x="321" y="936" type="line"/>
      <point x="320" y="924"/>
      <point x="320" y="914"/>
      <point x="320" y="908" type="curve" smooth="yes"/>
      <point x="320" y="832"/>
      <point x="359" y="790"/>
      <point x="429" y="790" type="curve" smooth="yes"/>
      <point x="513" y="790"/>
      <point x="570" y="839"/>
      <point x="597" y="936" type="curve"/>
    </contour>
  </outline>
</glyph>
<glyph name="Aogonek" format="1">
  <advance width="592"/>
  <unicode hex="0104"/>
  <outline>
    <contour>
      <point x="430" y="148" type="line"/>
      <point x="442" y="0" type="line"/>
      <point x="507" y="0" type="line"/>
      <point x="472" y="-17"/>
      <point x="463" y="-23"/>
      <point x="445" y="-40" type="curve" smooth="yes"/>
      <point x="413" y="-71"/>
      <point x="393" y="-115"/>
      <point x="393" y="-151" type="curve" smooth="yes"/>
      <point x="393" y="-197"/>
      <point x="429" y="-228"/>
      <point x="481" y="-228" type="curve" smooth="yes"/>
      <point x="508" y="-228"/>
      <point x="529" y="-222"/>
      <point x="573" y="-204" type="curve"/>
      <point x="567" y="-155" type="line"/>
      <point x="541" y="-166"/>
      <point x="517" y="-172"/>
      <point x="502" y="-172" type="curve" smooth="yes"/>
      <point x="485" y="-172"/>
      <point x="472" y="-157"/>
      <point x="472" y="-136" type="curve" smooth="yes"/>
      <point x="472" y="-97"/>
      <point x="511" y="-46"/>
      <point x="576" y="0" type="curve"/>
      <point x="494" y="718" type="line"/>
      <point x="352" y="718" type="line"/>
      <point x="16" y="0" type="line"/>
      <point x="146" y="0" type="line"/>
      <point x="213" y="148" type="line"/>
    </contour>
    <contour>
      <point x="394" y="559" type="line"/>
      <point x="417" y="272" type="line"/>
      <point x="267" y="272" type="line"/>
    </contour>
  </outline>
</glyph>
<glyph name="dcaron" format="1">
  <advance width="561"/>
  <unicode hex="010F"/>
  <outline>
    <contour>
      <point x="577" y="718" type="line"/>
      <point x="462" y="718" type="line"/>
      <point x="417" y="460" type="line"/>
      <point x="393" y="521"/>
      <point x="361" y="546"/>
      <point x="305" y="546" type="curve" smooth="yes"/>
      <point x="173" y="546"/>
      <point x="67" y="383"/>
      <point x="67" y="180" type="curve" smooth="yes"/>
      <point x="67" y="57"/>
      <point x="119" y="-14"/>
      <point x="208" y="-14" type="curve" smooth="yes"/>
      <point x="267" y="-14"/>
      <point x="312" y="12"/>
      <point x="352" y="70" type="curve"/>
      <point x="339" y="0" type="line"/>
      <point x="452" y="0" type="line"/>
    </contour>
    <contour>
      <point x="318" y="425" type="curve" smooth="yes"/>
      <point x="367" y="425"/>
      <point x="393" y="390"/>
      <point x="393" y="321" type="curve" smooth="yes"/>
      <point x="393" y="196"/>
      <point x="335" y="101"/>
      <point x="259" y="101" type="curve" smooth="yes"/>
      <point x="212" y="101"/>
      <point x="187" y="139"/>
      <point x="187" y="209" type="curve" smooth="yes"/>
      <point x="187" y="257"/>
      <point x="201" y="315"/>
      <point x="221" y="355" type="curve" smooth="yes"/>
      <point x="244" y="400"/>
      <point x="278" y="425"/>
    </contour>
    <contour>
      <point x="603" y="718" type="line"/>
      <point x="584" y="611" type="line"/>
      <point x="640" y="611" type="line"/>
      <point x="635" y="565"/>
      <point x="607" y="531"/>
      <point x="569" y="523" type="curve"/>
      <point x="561" y="480" type="line"/>
      <point x="624" y="486"/>
      <point x="675" y="545"/>
      <point x="684" y="623" type="curve"/>
      <point x="701" y="718" type="line"/>
    </contour>
  </outline>
</glyph>
<glyph name="Eogonek" format="1">
  <advance width="547"/>
  <unicode hex="0118"/>
  <outline>
    <contour>
      <point x="620" y="718" type="line"/>
      <point x="187" y="718" type="line"/>
      <point x="62" y="0" type="line"/>
      <point x="440" y="0" type="line"/>
      <point x="406" y="-17"/>
      <point x="395" y="-24"/>
      <point x="378" y="-40" type="curve" smooth="yes"/>
      <point x="346" y="-71"/>
      <point x="326" y="-115"/>
      <point x="326" y="-151" type="curve" smooth="yes"/>
      <point x="326" y="-197"/>
      <point x="362" y="-228"/>
      <point x="414" y="-228" type="curve" smooth="yes"/>
      <point x="441" y="-228"/>
      <point x="462" y="-222"/>
      <point x="506" y="-204" type="curve"/>
      <point x="500" y="-155" type="line"/>
      <point x="473" y="-166"/>
      <point x="450" y="-172"/>
      <point x="435" y="-172" type="curve" smooth="yes"/>
      <point x="418" y="-172"/>
      <point x="405" y="-157"/>
      <point x="405" y="-136" type="curve" smooth="yes"/>
      <point x="405" y="-97"/>
      <point x="444" y="-46"/>
      <point x="509" y="0" type="curve"/>
      <point x="531" y="127" type="line"/>
      <point x="205" y="127" type="line"/>
      <point x="237" y="313" type="line"/>
      <point x="524" y="313" type="line"/>
      <point x="546" y="440" type="line"/>
      <point x="259" y="440" type="line"/>
      <point x="285" y="591" type="line"/>
      <point x="598" y="591" type="line"/>
    </contour>
  </outline>
</glyph>
<glyph name="eogonek" format="1">
  <advance width="456"/>
  <unicode hex="0119"/>
  <outline>
    <contour>
      <point x="473" y="228" type="line"/>
      <point x="477" y="253" type="line" smooth="yes"/>
      <point x="483" y="286"/>
      <point x="486" y="319"/>
      <point x="486" y="351" type="curve" smooth="yes"/>
      <point x="486" y="477"/>
      <point x="428" y="546"/>
      <point x="321" y="546" type="curve" smooth="yes"/>
      <point x="231" y="546"/>
      <point x="158" y="497"/>
      <point x="110" y="404" type="curve" smooth="yes"/>
      <point x="77" y="341"/>
      <point x="58" y="259"/>
      <point x="58" y="180" type="curve" smooth="yes"/>
      <point x="58" y="53"/>
      <point x="118" y="-14"/>
      <point x="230" y="-14" type="curve" smooth="yes"/>
      <point x="236" y="-14"/>
      <point x="242" y="-14"/>
      <point x="253" y="-13" type="curve"/>
      <point x="201" y="-42"/>
      <point x="164" y="-100"/>
      <point x="164" y="-151" type="curve" smooth="yes"/>
      <point x="164" y="-197"/>
      <point x="200" y="-228"/>
      <point x="252" y="-228" type="curve" smooth="yes"/>
      <point x="279" y="-228"/>
      <point x="301" y="-222"/>
      <point x="345" y="-204" type="curve"/>
      <point x="339" y="-155" type="line"/>
      <point x="312" y="-166"/>
      <point x="288" y="-172"/>
      <point x="273" y="-172" type="curve" smooth="yes"/>
      <point x="256" y="-172"/>
      <point x="243" y="-157"/>
      <point x="243" y="-136" type="curve" smooth="yes"/>
      <point x="243" y="-102"/>
      <point x="268" y="-67"/>
      <point x="342" y="5" type="curve" smooth="yes"/>
      <point x="414" y="76"/>
      <point x="425" y="91"/>
      <point x="455" y="156" type="curve"/>
      <point x="337" y="156" type="line"/>
      <point x="319" y="118"/>
      <point x="290" y="98"/>
      <point x="251" y="98" type="curve" smooth="yes"/>
      <point x="200" y="98"/>
      <point x="171" y="131"/>
      <point x="171" y="189" type="curve" smooth="yes"/>
      <point x="171" y="197"/>
      <point x="172" y="213"/>
      <point x="174" y="228" type="curve"/>
    </contour>
    <contour>
      <point x="193" y="319" type="line"/>
      <point x="216" y="397"/>
      <point x="249" y="431"/>
      <point x="300" y="431" type="curve" smooth="yes"/>
      <point x="344" y="431"/>
      <point x="372" y="398"/>
      <point x="372" y="345" type="curve"/>
      <point x="371" y="319" type="line"/>
    </contour>
  </outline>
</glyph>
<glyph name="Ecaron" format="1">
  <advance width="547"/>
  <unicode hex="011A"/>
  <outline>
    <contour>
      <point x="620" y="718" type="line"/>
      <point x="187" y="718" type="line"/>
      <point x="62" y="0" type="line"/>
      <point x="509" y="0" type="line"/>
      <point x="531" y="127" type="line"/>
      <point x="205" y="127" type="line"/>
      <point x="237" y="313" type="line"/>
      <point x="524" y="313" type="line"/>
      <point x="546" y="440" type="line"/>
      <point x="259" y="440" type="line"/>
      <point x="285" y="591" type="line"/>
      <point x="598" y="591" type="line"/>
    </contour>
    <contour>
      <point x="581" y="936" type="line"/>
      <point x="488" y="936" type="line"/>
      <point x="422" y="854" type="line"/>
      <point x="385" y="936" type="line"/>
      <point x="292" y="936" type="line"/>
      <point x="360" y="790" type="line"/>
      <point x="462" y="790" type="line"/>
    </contour>
  </outline>
</glyph>
<glyph name="ecaron" format="1">
  <advance width="456"/>
  <unicode hex="011B"/>
  <outline>
    <contour>
      <point x="337" y="156" type="line"/>
      <point x="319" y="118"/>
      <point x="290" y="98"/>
      <point x="251" y="98" type="curve" smooth="yes"/>
      <point x="200" y="98"/>
      <point x="171" y="131"/>
      <point x="171" y="189" type="curve" smooth="yes"/>
      <point x="171" y="197"/>
      <point x="172" y="213"/>
      <point x="174" y="228" type="curve"/>
      <point x="473" y="228" type="line"/>
      <point x="477" y="253" type="line" smooth="yes"/>
      <point x="483" y="286"/>
      <point x="486" y="319"/>
      <point x="486" y="351" type="curve" smooth="yes"/>
      <point x="486" y="477"/>
      <point x="428" y="546"/>
      <point x="321" y="546" type="curve" smooth="yes"/>
      <point x="231" y="546"/>
      <point x="158" y="497"/>
      <point x="110" y="404" type="curve" smooth="yes"/>
      <point x="77" y="341"/>
      <point x="58" y="259"/>
      <point x="58" y="179" type="curve" smooth="yes"/>
      <point x="58" y="53"/>
      <point x="118" y="-14"/>
      <point x="230" y="-14" type="curve" smooth="yes"/>
      <point x="278" y="-14"/>
      <point x="322" y="0"/>
      <point x="361" y="29" type="curve" smooth="yes"/>
      <point x="402" y="59"/>
      <point x="425" y="90"/>
      <point x="455" y="156" type="curve"/>
    </contour>
    <contour>
      <point x="193" y="319" type="line"/>
      <point x="216" y="397"/>
      <point x="249" y="431"/>
      <point x="300" y="431" type="curve" smooth="yes"/>
      <point x="344" y="431"/>
      <point x="372" y="398"/>
      <point x="372" y="345" type="curve"/>
      <point x="371" y="319" type="line"/>
    </contour>
    <contour>
      <point x="504" y="750" type="line"/>
      <point x="411" y="750" type="line"/>
      <point x="345" y="668" type="line"/>
      <point x="308" y="750" type="line"/>
      <point x="215" y="750" type="line"/>
      <point x="283" y="604" type="line"/>
      <point x="385" y="604" type="line"/>
    </contour>
  </outline>
</glyph>
<glyph name="Gbreve" format="1">
  <advance width="638"/>
  <unicode hex="011E"/>
  <outline>
    <contour>
      <point x="385" y="266" type="line"/>
      <point x="522" y="266" type="line"/>
      <point x="498" y="205"/>
      <point x="482" y="179"/>
      <point x="452" y="151" type="curve" smooth="yes"/>
      <point x="421" y="123"/>
      <point x="385" y="108"/>
      <point x="347" y="108" type="curve" smooth="yes"/>
      <point x="264" y="108"/>
      <point x="216" y="166"/>
      <point x="216" y="268" type="curve" smooth="yes"/>
      <point x="216" y="357"/>
      <point x="244" y="460"/>
      <point x="284" y="520" type="curve" smooth="yes"/>
      <point x="323" y="579"/>
      <point x="379" y="613"/>
      <point x="436" y="613" type="curve" smooth="yes"/>
      <point x="497" y="613"/>
      <point x="546" y="563"/>
      <point x="546" y="501" type="curve" smooth="yes"/>
      <point x="546" y="495" type="line"/>
      <point x="669" y="495" type="line"/>
      <point x="670" y="508"/>
      <point x="670" y="518"/>
      <point x="670" y="525" type="curve" smooth="yes"/>
      <point x="670" y="653"/>
      <point x="584" y="737"/>
      <point x="453" y="737" type="curve" smooth="yes"/>
      <point x="353" y="737"/>
      <point x="267" y="691"/>
      <point x="200" y="603" type="curve" smooth="yes"/>
      <point x="131" y="512"/>
      <point x="89" y="377"/>
      <point x="89" y="249" type="curve" smooth="yes"/>
      <point x="89" y="84"/>
      <point x="172" y="-19"/>
      <point x="304" y="-19" type="curve" smooth="yes"/>
      <point x="383" y="-19"/>
      <point x="435" y="9"/>
      <point x="506" y="90" type="curve"/>
      <point x="503" y="0" type="line"/>
      <point x="585" y="0" type="line"/>
      <point x="653" y="387" type="line"/>
      <point x="406" y="387" type="line"/>
    </contour>
    <contour>
      <point x="567" y="936" type="line"/>
      <point x="547" y="883"/>
      <point x="523" y="866"/>
      <point x="470" y="866" type="curve" smooth="yes"/>
      <point x="419" y="866"/>
      <point x="398" y="885"/>
      <point x="398" y="930" type="curve" smooth="yes"/>
      <point x="398" y="936" type="line"/>
      <point x="344" y="936" type="line"/>
      <point x="343" y="924"/>
      <point x="343" y="914"/>
      <point x="343" y="908" type="curve" smooth="yes"/>
      <point x="343" y="832"/>
      <point x="382" y="790"/>
      <point x="452" y="790" type="curve" smooth="yes"/>
      <point x="536" y="790"/>
      <point x="593" y="839"/>
      <point x="620" y="936" type="curve"/>
    </contour>
  </outline>
</glyph>
<glyph name="gbreve" format="1">
  <advance width="501"/>
  <unicode hex="011F"/>
  <outline>
    <contour>
      <point x="436" y="532" type="line"/>
      <point x="421" y="450" type="line"/>
      <point x="404" y="517"/>
      <point x="371" y="546"/>
      <point x="310" y="546" type="curve" smooth="yes"/>
      <point x="178" y="546"/>
      <point x="71" y="384"/>
      <point x="71" y="184" type="curve" smooth="yes"/>
      <point x="71" y="66"/>
      <point x="126" y="-3"/>
      <point x="219" y="-3" type="curve" smooth="yes"/>
      <point x="277" y="-3"/>
      <point x="311" y="18"/>
      <point x="352" y="80" type="curve"/>
      <point x="340" y="11" type="line" smooth="yes"/>
      <point x="325" y="-74"/>
      <point x="290" y="-111"/>
      <point x="224" y="-111" type="curve" smooth="yes"/>
      <point x="192" y="-111"/>
      <point x="169" y="-102"/>
      <point x="161" y="-85" type="curve" smooth="yes"/>
      <point x="158" y="-79"/>
      <point x="157" y="-72"/>
      <point x="157" y="-57" type="curve"/>
      <point x="32" y="-57" type="line"/>
      <point x="31" y="-67"/>
      <point x="31" y="-78"/>
      <point x="31" y="-84" type="curve" smooth="yes"/>
      <point x="31" y="-168"/>
      <point x="95" y="-217"/>
      <point x="203" y="-217" type="curve" smooth="yes"/>
      <point x="275" y="-217"/>
      <point x="338" y="-194"/>
      <point x="381" y="-151" type="curve" smooth="yes"/>
      <point x="419" y="-114"/>
      <point x="443" y="-59"/>
      <point x="458" y="28" type="curve" smooth="yes"/>
      <point x="546" y="532" type="line"/>
    </contour>
    <contour>
      <point x="315" y="425" type="curve" smooth="yes"/>
      <point x="361" y="425"/>
      <point x="390" y="385"/>
      <point x="390" y="319" type="curve" smooth="yes"/>
      <point x="390" y="273"/>
      <point x="378" y="221"/>
      <point x="359" y="183" type="curve" smooth="yes"/>
      <point x="336" y="139"/>
      <point x="302" y="115"/>
      <point x="262" y="115" type="curve" smooth="yes"/>
      <point x="217" y="115"/>
      <point x="191" y="150"/>
      <point x="191" y="212" type="curve" smooth="yes"/>
      <point x="191" y="328"/>
      <point x="248" y="425"/>
    </contour>
    <contour>
      <point x="466" y="750" type="line"/>
      <point x="446" y="697"/>
      <point x="422" y="680"/>
      <point x="369" y="680" type="curve" smooth="yes"/>
      <point x="318" y="680"/>
      <point x="297" y="699"/>
      <point x="297" y="744" type="curve" smooth="yes"/>
      <point x="297" y="750" type="line"/>
      <point x="243" y="750" type="line"/>
      <point x="242" y="738"/>
      <point x="242" y="728"/>
      <point x="242" y="722" type="curve" smooth="yes"/>
      <point x="242" y="646"/>
      <point x="281" y="604"/>
      <point x="351" y="604" type="curve" smooth="yes"/>
      <point x="435" y="604"/>
      <point x="492" y="653"/>
      <point x="519" y="750" type="curve"/>
    </contour>
  </outline>
</glyph>
<glyph name="gcommaaccent" format="1">
  <advance width="501"/>
  <unicode hex="0123"/>
  <outline>
    <contour>
      <point x="436" y="532" type="line"/>
      <point x="421" y="450" type="line"/>
      <point x="404" y="517"/>
      <point x="371" y="546"/>
      <point x="310" y="546" type="curve" smooth="yes"/>
      <point x="178" y="546"/>
      <point x="71" y="384"/>
      <point x="71" y="184" type="curve" smooth="yes"/>
      <point x="71" y="66"/>
      <point x="126" y="-3"/>
      <point x="219" y="-3" type="curve" smooth="yes"/>
      <point x="277" y="-3"/>
      <point x="311" y="18"/>
      <point x="352" y="80" type="curve"/>
      <point x="340" y="11" type="line" smooth="yes"/>
      <point x="325" y="-74"/>
      <point x="290" y="-111"/>
      <point x="224" y="-111" type="curve" smooth="yes"/>
      <point x="192" y="-111"/>
      <point x="169" y="-102"/>
      <point x="161" y="-85" type="curve" smooth="yes"/>
      <point x="158" y="-79"/>
      <point x="157" y="-72"/>
      <point x="157" y="-57" type="curve"/>
      <point x="32" y="-57" type="line"/>
      <point x="31" y="-67"/>
      <point x="31" y="-78"/>
      <point x="31" y="-84" type="curve" smooth="yes"/>
      <point x="31" y="-168"/>
      <point x="95" y="-217"/>
      <point x="203" y="-217" type="curve" smooth="yes"/>
      <point x="275" y="-217"/>
      <point x="338" y="-194"/>
      <point x="381" y="-151" type="curve" smooth="yes"/>
      <point x="419" y="-114"/>
      <point x="443" y="-59"/>
      <point x="458" y="28" type="curve" smooth="yes"/>
      <point x="546" y="532" type="line"/>
    </contour>
    <contour>
      <point x="315" y="425" type="curve" smooth="yes"/>
      <point x="361" y="425"/>
      <point x="390" y="385"/>
      <point x="390" y="319" type="curve" smooth="yes"/>
      <point x="390" y="273"/>
      <point x="378" y="221"/>
      <point x="359" y="183" type="curve" smooth="yes"/>
      <point x="336" y="139"/>
      <point x="302" y="115"/>
      <point x="262" y="115" type="curve" smooth="yes"/>
      <point x="217" y="115"/>
      <point x="191" y="150"/>
      <point x="191" y="212" type="curve" smooth="yes"/>
      <point x="191" y="328"/>
      <point x="248" y="425"/>
    </contour>
    <contour>
      <point x="404" y="606" type="line"/>
      <point x="423" y="713" type="line"/>
      <point x="368" y="713" type="line"/>
      <point x="373" y="759"/>
      <point x="400" y="793"/>
      <point x="439" y="801" type="curve"/>
      <point x="446" y="844" type="line"/>
      <point x="384" y="838"/>
      <point x="332" y="779"/>
      <point x="323" y="701" type="curve"/>
      <point x="306" y="606" type="line"/>
    </contour>
  </outline>
</glyph>
<glyph name="Imacron" format="1">
  <advance width="228"/>
  <unicode hex="012A"/>
  <outline>
    <contour>
      <point x="301" y="718" type="line"/>
      <point x="178" y="718" type="line"/>
      <point x="52" y="0" type="line"/>
      <point x="175" y="0" type="line"/>
    </contour>
    <contour>
      <point x="406" y="864" type="line"/>
      <point x="123" y="864" type="line"/>
      <point x="110" y="790" type="line"/>
      <point x="393" y="790" type="line"/>
    </contour>
  </outline>
</glyph>
<glyph name="imacron" format="1">
  <advance width="228"/>
  <unicode hex="012B"/>
  <outline>
    <contour>
      <point x="150" y="532" type="line"/>
      <point x="57" y="0" type="line"/>
      <point x="171" y="0" type="line"/>
      <point x="264" y="532" type="line"/>
    </contour>
    <contour>
      <point x="374" y="678" type="line"/>
      <point x="91" y="678" type="line"/>
      <point x="78" y="604" type="line"/>
      <point x="361" y="604" type="line"/>
    </contour>
  </outline>
</glyph>
<glyph name="Iogonek" format="1">
  <advance width="228"/>
  <unicode hex="012E"/>
  <outline>
    <contour>
      <point x="301" y="718" type="line"/>
      <point x="177" y="718" type="line"/>
      <point x="52" y="0" type="line"/>
      <point x="106" y="0" type="line"/>
      <point x="71" y="-17"/>
      <point x="62" y="-23"/>
      <point x="44" y="-40" type="curve" smooth="yes"/>
      <point x="12" y="-71"/>
      <point x="-8" y="-115"/>
      <point x="-8" y="-151" type="curve" smooth="yes"/>
      <point x="-8" y="-197"/>
      <point x="28" y="-228"/>
      <point x="80" y="-228" type="curve" smooth="yes"/>
      <point x="107" y="-228"/>
      <point x="128" y="-222"/>
      <point x="172" y="-204" type="curve"/>
      <point x="166" y="-155" type="line"/>
      <point x="140" y="-166"/>
      <point x="116" y="-172"/>
      <point x="101" y="-172" type="curve" smooth="yes"/>
      <point x="84" y="-172"/>
      <point x="71" y="-157"/>
      <point x="71" y="-136" type="curve" smooth="yes"/>
      <point x="71" y="-97"/>
      <point x="110" y="-46"/>
      <point x="175" y="0" type="curve"/>
    </contour>
  </outline>
</glyph>
<glyph name="iogonek" format="1">
  <advance width="228"/>
  <unicode hex="012F"/>
  <outline>
    <contour>
      <point x="265" y="532" type="line"/>
      <point x="150" y="532" type="line"/>
      <point x="57" y="0" type="line"/>
      <point x="103" y="0" type="line"/>
      <point x="68" y="-17"/>
      <point x="59" y="-23"/>
      <point x="41" y="-40" type="curve" smooth="yes"/>
      <point x="9" y="-71"/>
      <point x="-11" y="-115"/>
      <point x="-11" y="-151" type="curve" smooth="yes"/>
      <point x="-11" y="-197"/>
      <point x="25" y="-228"/>
      <point x="77" y="-228" type="curve" smooth="yes"/>
      <point x="104" y="-228"/>
      <point x="125" y="-222"/>
      <point x="169" y="-204" type="curve"/>
      <point x="163" y="-155" type="line"/>
      <point x="137" y="-166"/>
      <point x="113" y="-172"/>
      <point x="98" y="-172" type="curve" smooth="yes"/>
      <point x="81" y="-172"/>
      <point x="68" y="-157"/>
      <point x="68" y="-136" type="curve" smooth="yes"/>
      <point x="68" y="-97"/>
      <point x="107" y="-46"/>
      <point x="172" y="0" type="curve"/>
    </contour>
    <contour>
      <point x="298" y="725" type="line"/>
      <point x="184" y="725" type="line"/>
      <point x="161" y="595" type="line"/>
      <point x="276" y="595" type="line"/>
    </contour>
  </outline>
</glyph>
<glyph name="Idotaccent" format="1">
  <advance width="228"/>
  <unicode hex="0130"/>
  <outline>
    <contour>
      <point x="301" y="718" type="line"/>
      <point x="178" y="718" type="line"/>
      <point x="52" y="0" type="line"/>
      <point x="175" y="0" type="line"/>
    </contour>
    <contour>
      <point x="326" y="915" type="line"/>
      <point x="222" y="915" type="line"/>
      <point x="202" y="800" type="line"/>
      <point x="306" y="800" type="line"/>
    </contour>
  </outline>
</glyph>
<glyph name="IJ" format="1">
  <advance width="650"/>
  <unicode hex="0132"/>
  <outline>
    <contour>
      <point x="722" y="718" type="line"/>
      <point x="599" y="718" type="line"/>
      <point x="510" y="208" type="line" smooth="yes"/>
      <point x="497" y="130"/>
      <point x="474" y="103"/>
      <point x="424" y="103" type="curve" smooth="yes"/>
      <point x="385" y="103"/>
      <point x="368" y="122"/>
      <point x="368" y="166" type="curve" smooth="yes"/>
      <point x="368" y="190"/>
      <point x="371" y="214"/>
      <point x="380" y="271" type="curve"/>
      <point x="265" y="271" type="line"/>
      <point x="253" y="200"/>
      <point x="249" y="167"/>
      <point x="249" y="134" type="curve" smooth="yes"/>
      <point x="249" y="31"/>
      <point x="300" y="-18"/>
      <point x="408" y="-18" type="curve" smooth="yes"/>
      <point x="531" y="-18"/>
      <point x="607" y="58"/>
      <point x="633" y="208" type="curve" smooth="yes"/>
    </contour>
    <contour>
      <point x="301" y="718" type="line"/>
      <point x="178" y="718" type="line"/>
      <point x="52" y="0" type="line"/>
      <point x="175" y="0" type="line"/>
    </contour>
  </outline>
</glyph>
<glyph name="ij" format="1">
  <advance width="432"/>
  <unicode hex="0133"/>
  <outline>
    <contour>
      <point x="464" y="532" type="line"/>
      <point x="349" y="532" type="line"/>
      <point x="247" y="-53" type="line" smooth="yes"/>
      <point x="241" y="-88"/>
      <point x="229" y="-102"/>
      <point x="205" y="-102" type="curve" smooth="yes"/>
      <point x="185" y="-102" type="line"/>
      <point x="165" y="-214" type="line"/>
      <point x="194" y="-214" type="line" smooth="yes"/>
      <point x="300" y="-214"/>
      <point x="341" y="-175"/>
      <point x="362" y="-56" type="curve" smooth="yes"/>
    </contour>
    <contour>
      <point x="498" y="725" type="line"/>
      <point x="383" y="725" type="line"/>
      <point x="360" y="595" type="line"/>
      <point x="475" y="595" type="line"/>
    </contour>
    <contour>
      <point x="150" y="532" type="line"/>
      <point x="57" y="0" type="line"/>
      <point x="172" y="0" type="line"/>
      <point x="264" y="532" type="line"/>
    </contour>
    <contour>
      <point x="298" y="725" type="line"/>
      <point x="183" y="725" type="line"/>
      <point x="161" y="595" type="line"/>
      <point x="275" y="595" type="line"/>
    </contour>
  </outline>
</glyph>
<glyph name="jcircumflex" format="1">
  <advance width="228"/>
  <unicode hex="0135"/>
  <outline>
    <contour>
      <point x="264" y="532" type="line"/>
      <point x="149" y="532" type="line"/>
      <point x="47" y="-53" type="line" smooth="yes"/>
      <point x="41" y="-88"/>
      <point x="29" y="-102"/>
      <point x="5" y="-102" type="curve" smooth="yes"/>
      <point x="-15" y="-102" type="line"/>
      <point x="-35" y="-214" type="line"/>
      <point x="-6" y="-214" type="line" smooth="yes"/>
      <point x="100" y="-214"/>
      <point x="141" y="-175"/>
      <point x="162" y="-56" type="curve" smooth="yes"/>
    </contour>
    <contour>
      <point x="307" y="789" type="line"/>
      <point x="204" y="789" type="line"/>
      <point x="85" y="643" type="line"/>
      <point x="178" y="643" type="line"/>
      <point x="244" y="725" type="line"/>
      <point x="282" y="643" type="line"/>
      <point x="375" y="643" type="line"/>
    </contour>
  </outline>
</glyph>
<glyph name="Kcommaaccent" format="1">
  <advance width="592"/>
  <unicode hex="0136"/>
  <outline>
    <contour>
      <point x="236" y="243" type="line"/>
      <point x="306" y="315" type="line"/>
      <point x="433" y="0" type="line"/>
      <point x="592" y="0" type="line"/>
      <point x="411" y="424" type="line"/>
      <point x="703" y="718" type="line"/>
      <point x="544" y="718" type="line"/>
      <point x="268" y="426" type="line"/>
      <point x="319" y="718" type="line"/>
      <point x="196" y="718" type="line"/>
      <point x="71" y="0" type="line"/>
      <point x="194" y="0" type="line"/>
    </contour>
    <contour>
      <point x="236" y="-60" type="line"/>
      <point x="217" y="-167" type="line"/>
      <point x="273" y="-167" type="line"/>
      <point x="268" y="-213"/>
      <point x="240" y="-247"/>
      <point x="202" y="-255" type="curve"/>
      <point x="194" y="-298" type="line"/>
      <point x="257" y="-292"/>
      <point x="308" y="-233"/>
      <point x="317" y="-155" type="curve"/>
      <point x="334" y="-60" type="line"/>
    </contour>
  </outline>
</glyph>
<glyph name="kcommaaccent" format="1">
  <advance width="456"/>
  <unicode hex="0137"/>
  <outline>
    <contour>
      <point x="201" y="168" type="line"/>
      <point x="259" y="228" type="line"/>
      <point x="323" y="0" type="line"/>
      <point x="461" y="0" type="line"/>
      <point x="359" y="326" type="line"/>
      <point x="549" y="532" type="line"/>
      <point x="408" y="532" type="line"/>
      <point x="229" y="330" type="line"/>
      <point x="297" y="718" type="line"/>
      <point x="182" y="718" type="line"/>
      <point x="57" y="0" type="line"/>
      <point x="172" y="0" type="line"/>
    </contour>
    <contour>
      <point x="168" y="-60" type="line"/>
      <point x="149" y="-167" type="line"/>
      <point x="205" y="-167" type="line"/>
      <point x="200" y="-213"/>
      <point x="172" y="-247"/>
      <point x="134" y="-255" type="curve"/>
      <point x="126" y="-298" type="line"/>
      <point x="189" y="-292"/>
      <point x="240" y="-233"/>
      <point x="249" y="-155" type="curve"/>
      <point x="266" y="-60" type="line"/>
    </contour>
  </outline>
</glyph>
<glyph name="Lacute" format="1">
  <advance width="501"/>
  <unicode hex="0139"/>
  <outline>
    <contour>
      <point x="310" y="718" type="line"/>
      <point x="187" y="718" type="line"/>
      <point x="62" y="0" type="line"/>
      <point x="478" y="0" type="line"/>
      <point x="501" y="130" type="line"/>
      <point x="208" y="130" type="line"/>
    </contour>
    <contour>
      <point x="489" y="936" type="line"/>
      <point x="363" y="936" type="line"/>
      <point x="260" y="790" type="line"/>
      <point x="343" y="790" type="line"/>
    </contour>
  </outline>
</glyph>
<glyph name="lacute" format="1">
  <advance width="228"/>
  <unicode hex="013A"/>
  <outline>
    <contour>
      <point x="297" y="718" type="line"/>
      <point x="182" y="718" type="line"/>
      <point x="57" y="0" type="line"/>
      <point x="172" y="0" type="line"/>
    </contour>
    <contour>
      <point x="433" y="936" type="line"/>
      <point x="307" y="936" type="line"/>
      <point x="204" y="790" type="line"/>
      <point x="287" y="790" type="line"/>
    </contour>
  </outline>
</glyph>
<glyph name="Lcommaaccent" format="1">
  <advance width="501"/>
  <unicode hex="013B"/>
  <outline>
    <contour>
      <point x="310" y="718" type="line"/>
      <point x="187" y="718" type="line"/>
      <point x="62" y="0" type="line"/>
      <point x="478" y="0" type="line"/>
      <point x="501" y="130" type="line"/>
      <point x="208" y="130" type="line"/>
    </contour>
    <contour>
      <point x="191" y="-60" type="line"/>
      <point x="172" y="-167" type="line"/>
      <point x="228" y="-167" type="line"/>
      <point x="223" y="-213"/>
      <point x="195" y="-247"/>
      <point x="157" y="-255" type="curve"/>
      <point x="149" y="-298" type="line"/>
      <point x="212" y="-292"/>
      <point x="263" y="-233"/>
      <point x="272" y="-155" type="curve"/>
      <point x="289" y="-60" type="line"/>
    </contour>
  </outline>
</glyph>
<glyph name="lcommaaccent" format="1">
  <advance width="228"/>
  <unicode hex="013C"/>
  <outline>
    <contour>
      <point x="297" y="718" type="line"/>
      <point x="182" y="718" type="line"/>
      <point x="57" y="0" type="line"/>
      <point x="172" y="0" type="line"/>
    </contour>
    <contour>
      <point x="54" y="-60" type="line"/>
      <point x="35" y="-167" type="line"/>
      <point x="91" y="-167" type="line"/>
      <point x="86" y="-213"/>
      <point x="58" y="-247"/>
      <point x="20" y="-255" type="curve"/>
      <point x="12" y="-298" type="line"/>
      <point x="75" y="-292"/>
      <point x="126" y="-233"/>
      <point x="135" y="-155" type="curve"/>
      <point x="152" y="-60" type="line"/>
    </contour>
  </outline>
</glyph>
<glyph name="Lcaron" format="1">
  <advance width="501"/>
  <unicode hex="013D"/>
  <outline>
    <contour>
      <point x="310" y="718" type="line"/>
      <point x="187" y="718" type="line"/>
      <point x="62" y="0" type="line"/>
      <point x="478" y="0" type="line"/>
      <point x="501" y="130" type="line"/>
      <point x="208" y="130" type="line"/>
    </contour>
    <contour>
      <point x="475" y="718" type="line"/>
      <point x="456" y="611" type="line"/>
      <point x="512" y="611" type="line"/>
      <point x="507" y="565"/>
      <point x="479" y="531"/>
      <point x="441" y="523" type="curve"/>
      <point x="433" y="480" type="line"/>
      <point x="496" y="486"/>
      <point x="547" y="545"/>
      <point x="556" y="623" type="curve"/>
      <point x="573" y="718" type="line"/>
    </contour>
  </outline>
</glyph>
<glyph name="lcaron" format="1">
  <advance width="283"/>
  <unicode hex="013E"/>
  <outline>
    <contour>
      <point x="297" y="718" type="line"/>
      <point x="182" y="718" type="line"/>
      <point x="57" y="0" type="line"/>
      <point x="172" y="0" type="line"/>
    </contour>
    <contour>
      <point x="324" y="718" type="line"/>
      <point x="305" y="611" type="line"/>
      <point x="361" y="611" type="line"/>
      <point x="356" y="565"/>
      <point x="328" y="531"/>
      <point x="290" y="523" type="curve"/>
      <point x="282" y="480" type="line"/>
      <point x="345" y="486"/>
      <point x="396" y="545"/>
      <point x="405" y="623" type="curve"/>
      <point x="422" y="718" type="line"/>
    </contour>
  </outline>
</glyph>
<glyph name="ldot" format="1">
  <advance width="456"/>
  <unicode hex="0140"/>
  <outline>
    <contour>
      <point x="400" y="334" type="curve" smooth="yes"/>
      <point x="358" y="334"/>
      <point x="318" y="286"/>
      <point x="318" y="235" type="curve" smooth="yes"/>
      <point x="318" y="198"/>
      <point x="340" y="172"/>
      <point x="372" y="172" type="curve" smooth="yes"/>
      <point x="415" y="172"/>
      <point x="454" y="219"/>
      <point x="454" y="270" type="curve" smooth="yes"/>
      <point x="454" y="307"/>
      <point x="431" y="334"/>
    </contour>
    <contour>
      <point x="297" y="718" type="line"/>
      <point x="182" y="718" type="line"/>
      <point x="57" y="0" type="line"/>
      <point x="172" y="0" type="line"/>
    </contour>
  </outline>
</glyph>
